<svg xmlns="http://www.w3.org/2000/svg" xmlns:xlink="http://www.w3.org/1999/xlink" width="153.333" height="80.367" viewBox="0 0 153.333 80.367">
  <defs>
    <clipPath id="clip-path">
      <rect id="Rectangle_4" data-name="Rectangle 4" width="153.333" height="80.367" transform="translate(0 0)" fill="none"/>
    </clipPath>
  </defs>
  <g id="Group_3" data-name="Group 3" transform="translate(0 0)">
    <path id="Path_1" data-name="Path 1" d="M54.718,31.379h13V13.918L54.718.269Z" fill="#929497"/>
    <path id="Path_2" data-name="Path 2" d="M54.718.268,67.683,13.946h33.7V.268Z" fill="#4d4d4f"/>
    <path id="Path_3" data-name="Path 3" d="M88.372,33.283V15.821h13.01V46.933Z" fill="#4d4d4f"/>
    <path id="Path_4" data-name="Path 4" d="M101.381,46.933H54.717V33.256h33.7Z" fill="#929497"/>
    <rect id="Rectangle_1" data-name="Rectangle 1" width="47.677" height="22.417" transform="translate(0.208 0.266)" fill="#231917"/>
    <rect id="Rectangle_2" data-name="Rectangle 2" width="23.139" height="22.583" transform="translate(0.178 23.837)" fill="#231917"/>
    <path id="Path_5" data-name="Path 5" d="M47.644,23.921H24.775V46.405Z" fill="#0073bb"/>
    <path id="Path_6" data-name="Path 6" d="M0,51.328V63.554H3.95V59.7h7.794V56.374H3.95V54.787h8.8V51.328Z" fill="#231917"/>
    <g id="Group_2" data-name="Group 2">
      <g id="Group_1" data-name="Group 1" clip-path="url(#clip-path)">
        <path id="Path_7" data-name="Path 7" d="M24.517,59.514s-.039.942-.833.942H18.709a.724.724,0,0,1-.7-.708c0-.668-.019-8.5-.019-8.5h-3.6v9.305A2.755,2.755,0,0,0,16.831,63.3H25.2s3.174.11,3.174-2.922V51.328H24.517Z" fill="#231917"/>
        <path id="Path_8" data-name="Path 8" d="M38.086,59.337s.106.754-.507.754h-3.9s-.433.076-.433-.54V58.075H29.636v3.1s.145,2.424,2.345,2.424h7.255a2.857,2.857,0,0,0,2.522-2.752V51.361H38.086Z" fill="#231917"/>
        <rect id="Rectangle_3" data-name="Rectangle 3" width="3.968" height="12.512" transform="translate(43.453 51.11)" fill="#231917"/>
        <path id="Path_9" data-name="Path 9" d="M3.845,80.225H2.331V74.262H.142V72.98H6.035v1.282H3.845Z" fill="#404041"/>
        <path id="Path_10" data-name="Path 10" d="M11.626,80.225H10.213V76.966c0-.394-.02-1.06-.918-1.06a1.1,1.1,0,0,0-1.11,1.241v3.078H6.773V72.98H8.185v2.573H8.2a1.657,1.657,0,0,1,1.554-.837,1.713,1.713,0,0,1,1.867,1.8Z" fill="#404041"/>
        <path id="Path_11" data-name="Path 11" d="M17.5,78.651a2.325,2.325,0,0,1-2.361,1.716c-1.513,0-2.674-.727-2.674-2.936a2.494,2.494,0,0,1,2.573-2.715c1.06,0,2.523.5,2.523,2.957v.252H13.877c.04.4.121,1.312,1.261,1.312a.907.907,0,0,0,.908-.586Zm-1.392-1.644a1.087,1.087,0,0,0-1.09-1.13c-.666,0-1.019.424-1.1,1.13Z" fill="#404041"/>
        <path id="Path_12" data-name="Path 12" d="M22.829,80.225H21.315V72.98h5.157v1.282H22.829V75.9h3.189v1.282H22.829Z" fill="#404041"/>
        <path id="Path_13" data-name="Path 13" d="M32.164,80.225H30.812v-.757h-.02a1.769,1.769,0,0,1-1.635.9,1.727,1.727,0,0,1-1.826-1.977V74.857h1.412v3.33c0,.827.485.989.919.989a1.071,1.071,0,0,0,1.089-1.221v-3.1h1.413Z" fill="#404041"/>
        <path id="Path_14" data-name="Path 14" d="M35.021,74.858H35.9v1.009h-.878v2.916c0,.313.01.434.585.434.091,0,.192-.01.293-.02v1.069c-.222.01-.444.02-.666.02h-.182c-1.221,0-1.443-.464-1.443-1.16V75.867h-.726V74.858h.726V73.4h1.413Z" fill="#404041"/>
        <path id="Path_15" data-name="Path 15" d="M41.59,80.225H40.238v-.757h-.02a1.769,1.769,0,0,1-1.635.9,1.727,1.727,0,0,1-1.826-1.977V74.857h1.412v3.33c0,.827.485.989.919.989a1.071,1.071,0,0,0,1.089-1.221v-3.1H41.59Z" fill="#404041"/>
        <path id="Path_16" data-name="Path 16" d="M42.853,74.858h1.352v.928h.02a1.572,1.572,0,0,1,1.473-1.07,2.508,2.508,0,0,1,.273.021v1.432a2.807,2.807,0,0,0-.4-.019,1.141,1.141,0,0,0-1.3,1.281v2.795H42.853Z" fill="#404041"/>
        <path id="Path_17" data-name="Path 17" d="M51.349,78.651a2.325,2.325,0,0,1-2.361,1.716c-1.513,0-2.674-.727-2.674-2.936a2.494,2.494,0,0,1,2.573-2.715c1.06,0,2.523.5,2.523,2.957v.252H47.727c.041.4.121,1.312,1.261,1.312a.907.907,0,0,0,.908-.586Zm-1.392-1.644a1.087,1.087,0,0,0-1.09-1.13c-.666,0-1.019.424-1.1,1.13Z" fill="#404041"/>
        <path id="Path_18" data-name="Path 18" d="M56.508,74.222H55.1V72.91h1.413Zm0,6H55.1V74.858h1.413Z" fill="#404041"/>
        <path id="Path_19" data-name="Path 19" d="M60.847,76.492c-.06-.343-.181-.706-.948-.706s-.868.292-.868.525c0,.847,3.36.231,3.36,2.209,0,1.564-1.513,1.847-2.351,1.847-1.221,0-2.543-.424-2.583-1.857H58.91c0,.454.282.787,1.171.787.726,0,.9-.353.9-.554,0-.9-3.329-.223-3.329-2.231,0-.786.494-1.8,2.169-1.8,1.049,0,2.3.263,2.412,1.776Z" fill="#404041"/>
        <path id="Path_20" data-name="Path 20" d="M67.751,80.225H66.238V72.981h3.309A2.118,2.118,0,0,1,71.8,75.3a2.22,2.22,0,0,1-2.31,2.31H67.751Zm1.4-3.864c1.13,0,1.13-.807,1.13-1.13,0-.706-.394-1-1.332-1h-1.2v2.129Z" fill="#404041"/>
        <path id="Path_21" data-name="Path 21" d="M72.8,74.858H74.15v.928h.02a1.572,1.572,0,0,1,1.473-1.07,2.508,2.508,0,0,1,.273.021v1.432a2.807,2.807,0,0,0-.4-.019,1.141,1.141,0,0,0-1.3,1.281v2.795H72.8Z" fill="#404041"/>
        <path id="Path_22" data-name="Path 22" d="M81.294,78.651a2.325,2.325,0,0,1-2.361,1.716c-1.513,0-2.673-.727-2.673-2.936a2.494,2.494,0,0,1,2.572-2.715c1.06,0,2.523.5,2.523,2.957v.252H77.672c.041.4.121,1.312,1.261,1.312a.907.907,0,0,0,.908-.586ZM79.9,77.007a1.087,1.087,0,0,0-1.09-1.13c-.666,0-1.019.424-1.1,1.13Z" fill="#404041"/>
        <path id="Path_23" data-name="Path 23" d="M86.865,78.268a2.3,2.3,0,0,1-2.452,2.1,2.379,2.379,0,0,1-2.482-2.674c0-1.736.757-2.977,2.573-2.977a2.2,2.2,0,0,1,2.371,2.059H85.442a.91.91,0,0,0-.938-.868c-.888,0-1.12.888-1.12,1.554,0,.585.02,1.746,1.089,1.746a.985.985,0,0,0,.959-.939Z" fill="#404041"/>
        <path id="Path_24" data-name="Path 24" d="M92.154,79.176c0,.636.141.777.312.837v.212H90.943a2.34,2.34,0,0,1-.131-.635,2.185,2.185,0,0,1-1.736.776A1.507,1.507,0,0,1,87.441,78.8a1.641,1.641,0,0,1,1.565-1.715l1.27-.192c.223-.03.5-.121.5-.423,0-.6-.565-.626-.928-.626a.758.758,0,0,0-.867.747H87.613c.161-1.645,1.3-1.877,2.4-1.877.757,0,2.14.232,2.14,1.554Zm-1.383-1.564a2.05,2.05,0,0,1-.958.292c-.526.091-.959.222-.959.808a.616.616,0,0,0,.656.645A1.169,1.169,0,0,0,90.771,78.3Z" fill="#404041"/>
        <path id="Path_25" data-name="Path 25" d="M96.4,76.492c-.06-.343-.181-.706-.948-.706s-.868.292-.868.525c0,.847,3.36.231,3.36,2.209,0,1.564-1.513,1.847-2.351,1.847-1.221,0-2.543-.424-2.583-1.857h1.453c0,.454.282.787,1.171.787.726,0,.9-.353.9-.554,0-.9-3.329-.223-3.329-2.231,0-.786.494-1.8,2.169-1.8,1.049,0,2.3.263,2.412,1.776Z" fill="#404041"/>
        <path id="Path_26" data-name="Path 26" d="M100.511,74.858h.878v1.009h-.878v2.916c0,.313.01.434.585.434.091,0,.192-.01.293-.02v1.069c-.222.01-.444.02-.666.02h-.181c-1.221,0-1.443-.464-1.443-1.16V75.867h-.727V74.858H99.1V73.4h1.412Z" fill="#404041"/>
        <path id="Path_27" data-name="Path 27" d="M87.542,50.49,82.75,62.379,77.937,50.49H76.47l5.567,13.479H83.4L88.958,50.49H87.542Z" fill="#6d6e70"/>
        <path id="Path_28" data-name="Path 28" d="M70.753,50.49H69.4V63.969h6.925V62.751H70.753Z" fill="#6d6e70"/>
        <path id="Path_29" data-name="Path 29" d="M90.388,63.969h7.385V62.751H91.741V57.777h5.846V56.558H91.741v-4.85h6.032V50.49H90.388Z" fill="#6d6e70"/>
        <path id="Path_30" data-name="Path 30" d="M65.175,50.49V63.969h1.353V50.49H65.175Z" fill="#6d6e70"/>
        <path id="Path_31" data-name="Path 31" d="M59.535,56.186a5.309,5.309,0,0,1-2.117-.96,1.907,1.907,0,0,1-.625-1.488,2.113,2.113,0,0,1,.712-1.611,2.468,2.468,0,0,1,1.741-.656,2.264,2.264,0,0,1,1.668.661,2.892,2.892,0,0,1,.78,1.792h1.317a3.5,3.5,0,0,0-1.075-2.618,3.7,3.7,0,0,0-2.69-1.044,3.752,3.752,0,0,0-2.675,1.028,3.352,3.352,0,0,0-1.095,2.531,3.121,3.121,0,0,0,.821,2.257,5.561,5.561,0,0,0,2.613,1.353A5.618,5.618,0,0,1,61.3,58.562a2.374,2.374,0,0,1,.713,1.813,2.45,2.45,0,0,1-.806,1.854,2.785,2.785,0,0,1-1.988.764,2.577,2.577,0,0,1-1.916-.712,3.375,3.375,0,0,1-.857-2.082H55.114a3.847,3.847,0,0,0,1.137,2.887,4.417,4.417,0,0,0,5.892-.02,3.986,3.986,0,0,0,.29-5.361,6.065,6.065,0,0,0-2.9-1.519" fill="#6d6e70"/>
        <path id="Path_32" data-name="Path 32" d="M109.3,54.782a3.924,3.924,0,0,0-1.332-3.156,5.538,5.538,0,0,0-3.7-1.136h-4.111V63.969h1.353V51.7h2.758a4.07,4.07,0,0,1,2.7.811,2.806,2.806,0,0,1,.971,2.268,2.762,2.762,0,0,1-.971,2.246,4.07,4.07,0,0,1-2.7.811h-1.451l4.617,6.13h1.709L105.288,59a5.086,5.086,0,0,0,2.68-1.075,3.9,3.9,0,0,0,1.332-3.139" fill="#6d6e70"/>
        <path id="Path_33" data-name="Path 33" d="M118.969,63.969h7.385V62.751h-6.032V57.777h5.846V56.558h-5.846v-4.85h6.032V50.49h-7.385Z" fill="#6d6e70"/>
        <path id="Path_34" data-name="Path 34" d="M152.657,50.49h-.677v5.934h-6.962V50.49h-1.353V63.969h1.353V57.643h6.962v6.326h1.353V50.49Z" fill="#6d6e70"/>
        <path id="Path_35" data-name="Path 35" d="M138.072,62.275a5.64,5.64,0,0,1-2.737.718,5.51,5.51,0,0,1-4.06-1.668,5.881,5.881,0,0,1,0-8.186,5.651,5.651,0,0,1,6.719-.976,4.826,4.826,0,0,1,1.926,1.787h1.457a6.032,6.032,0,0,0-2.432-2.649,7.065,7.065,0,0,0-8.635.981,6.976,6.976,0,0,0,0,9.9,6.892,6.892,0,0,0,5.025,2.019,7.006,7.006,0,0,0,3.7-1.064,6.081,6.081,0,0,0,2.479-2.7h-1.462a4.944,4.944,0,0,1-1.977,1.838" fill="#6d6e70"/>
        <path id="Path_36" data-name="Path 36" d="M110.049,51.1v.6h3.084V63.969h1.353V51.708h3.088V50.49h-7.525Z" fill="#6d6e70"/>
        <path id="Path_37" data-name="Path 37" d="M112.048,5.881a.136.136,0,0,1,.1.048l.293.317a1.859,1.859,0,0,1-.68.515,2.336,2.336,0,0,1-.964.181,2.268,2.268,0,0,1-.9-.171,1.969,1.969,0,0,1-.685-.479,2.106,2.106,0,0,1-.436-.732,2.741,2.741,0,0,1-.153-.935,2.613,2.613,0,0,1,.162-.936,2.136,2.136,0,0,1,.457-.734,2.036,2.036,0,0,1,.705-.477,2.353,2.353,0,0,1,.9-.17,2.209,2.209,0,0,1,.867.159,2.154,2.154,0,0,1,.654.423l-.243.344a.244.244,0,0,1-.06.06.161.161,0,0,1-.094.025.253.253,0,0,1-.143-.059,2.237,2.237,0,0,0-.2-.129,1.5,1.5,0,0,0-.779-.187,1.538,1.538,0,0,0-.6.113,1.286,1.286,0,0,0-.466.331,1.533,1.533,0,0,0-.3.529,2.131,2.131,0,0,0-.109.708,2.079,2.079,0,0,0,.114.713,1.529,1.529,0,0,0,.312.529,1.32,1.32,0,0,0,.465.329,1.476,1.476,0,0,0,.576.113,2.633,2.633,0,0,0,.339-.02,1.384,1.384,0,0,0,.275-.066,1.277,1.277,0,0,0,.238-.115,1.459,1.459,0,0,0,.222-.17.189.189,0,0,1,.126-.057" fill="#231917"/>
        <path id="Path_38" data-name="Path 38" d="M110.537,9.25a4.625,4.625,0,1,1,4.624-4.624,4.629,4.629,0,0,1-4.624,4.624m0-8.655a4.03,4.03,0,1,0,4.029,4.031A4.035,4.035,0,0,0,110.537.6" fill="#231917"/>
      </g>
    </g>
  </g>
</svg>
