<?xml version="1.0" encoding="utf-8"?>
<!-- Generator: Adobe Illustrator 26.3.0, SVG Export Plug-In . SVG Version: 6.00 Build 0)  -->
<svg version="1.1" id="Layer_1" xmlns="http://www.w3.org/2000/svg" xmlns:xlink="http://www.w3.org/1999/xlink" x="0px" y="0px"
	 viewBox="0 0 329.2 329.2" style="enable-background:new 0 0 329.2 329.2;" xml:space="preserve">
<style type="text/css">
	.st0{fill:#010101;}
</style>
<g>
	<g id="g1363">
		<g id="g1369" transform="translate(174.4404,512)">
			<g id="path1371">
				<rect x="3439.2" y="-491.5" class="st0" width="16" height="273.2"/>
			</g>
		</g>
		<g id="g1373" transform="translate(113.1455)">
			<g id="path1375">
				<rect x="3467.8" y="20.5" class="st0" width="16" height="273.2"/>
			</g>
		</g>
		<g id="g1377" transform="translate(398.8545,512)">
			<g id="path1379">
				<rect x="3334.5" y="-491.5" class="st0" width="16" height="273.2"/>
			</g>
		</g>
		<g id="g1381" transform="translate(337.5596)">
			<g id="path1383">
				<rect x="3363.1" y="20.5" class="st0" width="16" height="273.2"/>
			</g>
		</g>
		<g id="g1385" transform="translate(174.4404,466.519)">
			<g id="path1387">
				<rect x="3447.2" y="-429.8" class="st0" width="87" height="16"/>
			</g>
		</g>
	</g>
	<g id="g1389" transform="translate(174.4404,396.3462)">
		<g id="path1391">
			<rect x="3447.2" y="-322.2" class="st0" width="87" height="16"/>
		</g>
	</g>
	<g id="g1393" transform="translate(174.4404,326.1729)">
		<g id="path1395">
			<rect x="3447.2" y="-214.5" class="st0" width="87" height="16"/>
		</g>
	</g>
	<g id="g1397" transform="translate(174.4404,256)">
		<g id="path1399">
			<rect x="3447.2" y="-106.9" class="st0" width="87" height="16"/>
		</g>
	</g>
	<g id="g1401" transform="translate(174.4404,185.8271)">
		<g id="path1403">
			<rect x="3447.2" y="0.7" class="st0" width="87" height="16"/>
		</g>
	</g>
	<g id="g1405" transform="translate(174.4404,115.6538)">
		<g id="path1407">
			<rect x="3447.2" y="108.3" class="st0" width="87" height="16"/>
		</g>
	</g>
	<g id="g1417" transform="translate(174.4404,45.481)">
		<g id="path1419">
			<rect x="3447.2" y="215.9" class="st0" width="87" height="16"/>
		</g>
	</g>
	<g id="g1421" transform="translate(398.8545,466.519)">
		<g id="path1423">
			<rect x="3342.5" y="-429.8" class="st0" width="24.9" height="16"/>
		</g>
	</g>
	<g id="g1425" transform="translate(398.8545,396.3462)">
		<g id="path1427">
			<rect x="3342.5" y="-322.2" class="st0" width="24.9" height="16"/>
		</g>
	</g>
	<g id="g1429" transform="translate(398.8545,326.1729)">
		<g id="path1431">
			<rect x="3342.5" y="-214.5" class="st0" width="24.9" height="16"/>
		</g>
	</g>
	<g id="g1433" transform="translate(398.8545,256)">
		<g id="path1435">
			<rect x="3342.5" y="-106.9" class="st0" width="24.9" height="16"/>
		</g>
	</g>
	<g id="g1437" transform="translate(398.8545,185.8271)">
		<g id="path1439">
			<rect x="3342.5" y="0.7" class="st0" width="24.9" height="16"/>
		</g>
	</g>
	<g id="g1441" transform="translate(398.8545,115.6538)">
		<g id="path1443">
			<rect x="3342.5" y="108.3" class="st0" width="24.9" height="16"/>
		</g>
	</g>
	<g id="g1447">
		<g id="g1453" transform="translate(398.8545,45.481)">
			<g id="path1455">
				<rect x="3342.5" y="215.9" class="st0" width="24.9" height="16"/>
			</g>
		</g>
		<g id="g1457" transform="translate(66.4033,466.519)">
			<g id="path1459">
				<rect x="3497.6" y="-429.8" class="st0" width="24.9" height="16"/>
			</g>
		</g>
	</g>
	<g id="g1461" transform="translate(66.4033,396.3462)">
		<g id="path1463">
			<rect x="3497.6" y="-322.2" class="st0" width="24.9" height="16"/>
		</g>
	</g>
	<g id="g1465" transform="translate(66.4033,326.1729)">
		<g id="path1467">
			<rect x="3497.6" y="-214.5" class="st0" width="24.9" height="16"/>
		</g>
	</g>
	<g id="g1469" transform="translate(66.4033,256)">
		<g id="path1471">
			<rect x="3497.6" y="-106.9" class="st0" width="24.9" height="16"/>
		</g>
	</g>
	<g id="g1473" transform="translate(66.4033,185.8271)">
		<g id="path1475">
			<rect x="3497.6" y="0.7" class="st0" width="24.9" height="16"/>
		</g>
	</g>
	<g id="g1477" transform="translate(66.4033,115.6538)">
		<g id="path1479">
			<rect x="3497.6" y="108.3" class="st0" width="24.9" height="16"/>
		</g>
	</g>
	<g id="g1483">
		<g id="g1489" transform="translate(66.4033,45.481)">
			<g id="path1491">
				<rect x="3497.6" y="215.9" class="st0" width="24.9" height="16"/>
			</g>
		</g>
	</g>
</g>
<g>
	<g id="g257_00000116197981869173538010000009278703297802865295_" transform="translate(429.2178,418.7583)">
		<g id="path259_00000036973238325257088480000003646322703433602697_">
			<path class="st0" d="M2494.1-302.8h-20c-2.1,0-3.8-1.7-3.8-3.8v-37.3c0-2.1,1.7-3.8,3.8-3.8s3.8,1.7,3.8,3.8v33.5h12.5v-44
				c0-2.1,1.7-3.8,3.8-3.8s3.8,1.7,3.8,3.8v47.7C2497.9-304.5,2496.2-302.8,2494.1-302.8z"/>
		</g>
	</g>
	<g id="g269_00000014636493203061564320000012833600129256331675_" transform="translate(485.7393,311.8311)">
		<g id="path271_00000021083295845993653080000006443051177435506075_">
			<path class="st0" d="M2446.1-179.1h-37c-2.1,0-3.8-1.7-3.8-3.8v-10.6c0-5.5,4.5-9.9,9.9-9.9h24.7c5.5,0,9.9,4.5,9.9,9.9v10.6
				C2449.9-180.8,2448.2-179.1,2446.1-179.1z M2412.8-186.7h29.5v-6.8c0-1.3-1.1-2.4-2.4-2.4h-24.7c-1.3,0-2.4,1.1-2.4,2.4V-186.7z"
				/>
		</g>
	</g>
	<g id="g273_00000147211745028077900190000010573617716485830330_" transform="translate(324.8965,334.0029)">
		<g id="path275_00000072278886086931257620000010328289433609753020_">
			<path class="st0" d="M2545.8-160.4h-20c-2.1,0-3.8-1.7-3.8-3.8v-52.1c0-2.1,1.7-3.8,3.8-3.8s3.8,1.7,3.8,3.8v48.3h12.5v-68.5
				c0-2.1,1.7-3.8,3.8-3.8s3.8,1.7,3.8,3.8v72.2C2549.5-162.1,2547.8-160.4,2545.8-160.4z"/>
		</g>
	</g>
	<g id="g277_00000034790255141708962120000015236056325182783142_" transform="translate(381.418,196.8042)">
		<g id="path279_00000049901427524855678590000010849447384223923376_">
			<path class="st0" d="M2497.7-6h-37c-2.1,0-3.8-1.7-3.8-3.8v-10.9c0-5.5,4.5-10,10-10h24.6c5.5,0,10,4.5,10,10v10.9
				C2501.5-7.7,2499.8-6,2497.7-6z M2464.5-13.6h29.5v-7.2c0-1.3-1.1-2.4-2.4-2.4h-24.6c-1.3,0-2.4,1.1-2.4,2.4V-13.6z"/>
		</g>
	</g>
	<g id="g289_00000109729255617501172570000008250508982042913956_" transform="translate(427.4033,457.9946)">
		<g id="path291_00000101792213977772852020000000815245501135015555_">
			<path class="st0" d="M2345.7-192.1c-1.4,0-2.7-0.8-3.4-2.1c-1.5-3-2.9-6.2-4.1-9.7c-0.7-2,0.3-4.1,2.3-4.9c2-0.7,4.1,0.3,4.9,2.3
				c1.2,3.2,2.4,6.2,3.8,8.9c0.9,1.9,0.2,4.1-1.7,5.1C2346.9-192.2,2346.3-192.1,2345.7-192.1z M2336.5-220.8c-1.8,0-3.3-1.2-3.7-3
				c-0.3-1.4-0.6-2.8-0.8-4.3c-0.3-2-0.7-3.9-0.9-5.9c-0.3-2.1,1.1-4,3.2-4.3c2.1-0.3,4,1.1,4.3,3.2c0.3,1.9,0.6,3.7,0.9,5.6
				c0.2,1.4,0.5,2.8,0.8,4.1c0.4,2.1-0.9,4-3,4.5C2337-220.8,2336.7-220.8,2336.5-220.8z M2333.2-250.9c-2.1,0-3.8-1.7-3.8-3.8
				c0-0.3,0-0.6,0-0.9c0-2.6,0.1-5.2,0.2-7.7c0-0.6,0.1-1.2,0.1-1.8c0.1-2.1,2-3.7,4-3.5c2.1,0.1,3.7,2,3.5,4c0,0.6-0.1,1.1-0.1,1.7
				c-0.1,2.4-0.2,4.8-0.2,7.3c0,0.3,0,0.6,0,0.8C2337-252.6,2335.3-250.9,2333.2-250.9C2333.2-250.9,2333.2-250.9,2333.2-250.9z
				 M2336.3-281c-0.3,0-0.5,0-0.8-0.1c-2-0.4-3.3-2.4-2.9-4.5c0.7-3.4,1.6-6.8,2.5-10.1c0.6-2,2.7-3.2,4.7-2.6
				c2,0.6,3.2,2.7,2.6,4.7c-0.9,3.1-1.7,6.3-2.4,9.5C2339.7-282.2,2338.1-281,2336.3-281z M2346-309.6c-0.5,0-1.1-0.1-1.6-0.4
				c-1.9-0.9-2.7-3.2-1.8-5.1c1.5-3.1,3.2-6.2,4.9-9.2c1.1-1.8,3.4-2.4,5.2-1.3c1.8,1.1,2.4,3.4,1.3,5.2c-1.6,2.8-3.2,5.7-4.6,8.6
				C2348.8-310.4,2347.4-309.6,2346-309.6z M2362.5-334.9c-0.9,0-1.7-0.3-2.4-0.9c-1.6-1.4-1.8-3.7-0.4-5.3c2.2-2.6,4.6-5.2,7-7.6
				c1.5-1.5,3.9-1.5,5.4,0c1.5,1.5,1.5,3.9,0,5.4c-2.3,2.3-4.6,4.8-6.6,7.2C2364.6-335.4,2363.6-334.9,2362.5-334.9z M2384.5-355.7
				c-1.1,0-2.3-0.5-3-1.5c-1.3-1.7-1-4,0.7-5.3c0.9-0.7,1.7-1.3,2.6-2c1.9-1.4,3.8-2.7,5.7-4.1c1.7-1.2,4.1-0.8,5.3,1
				c1.2,1.7,0.8,4.1-1,5.3c-1.9,1.3-3.7,2.6-5.5,3.9c-0.8,0.6-1.7,1.3-2.5,1.9C2386.1-355.9,2385.3-355.7,2384.5-355.7z
				 M2409.8-372.3c-1.3,0-2.6-0.7-3.3-1.9c-1-1.8-0.4-4.1,1.4-5.2c2.9-1.7,6-3.4,9-4.9c1.9-1,4.1-0.3,5.1,1.6c1,1.9,0.3,4.1-1.6,5.1
				c-2.9,1.5-5.9,3.2-8.7,4.8C2411.1-372.5,2410.4-372.3,2409.8-372.3z M2436.8-385.9c-1.5,0-2.9-0.9-3.5-2.3c-0.8-1.9,0-4.1,2-5
				c3.1-1.4,6.3-2.7,9.5-3.9c1.9-0.8,4.1,0.2,4.9,2.1c0.8,1.9-0.2,4.1-2.1,4.9c-3.1,1.2-6.2,2.5-9.2,3.8
				C2437.8-386,2437.3-385.9,2436.8-385.9z M2465.2-396.4c-1.6,0-3.1-1.1-3.6-2.7c-0.6-2,0.5-4.1,2.5-4.7c3.3-1,6.6-1.9,9.9-2.7
				c2-0.5,4.1,0.7,4.6,2.7c0.5,2-0.7,4.1-2.7,4.6c-3.2,0.8-6.4,1.7-9.6,2.7C2466-396.5,2465.6-396.4,2465.2-396.4z"/>
		</g>
	</g>
	<g>
		<path class="st0" d="M2943.6,28.8c-0.8-0.7-1.9-1.1-3-0.9c-52.8,6.4-95.5,15.7-127,27.7l-0.4,0.1c0,0-0.1,0-0.1,0.1l-16.3,6.7
			c-35.5,15.6-61.2,34.5-81,59.4c-18.1,22.9-28.1,51.2-28.9,81.8c-0.7,28.8,6.4,51,17.2,75.4c0.6,1.3,0.7,1.7,0.8,2.1
			c0.3,0.7,0.5,1.3,1.3,3.1c0.6,1.3,2,2.1,3.4,2.1h171.6c1.6,0,3.1-1,3.6-2.6c0.5-1.5,0-3.3-1.3-4.2c-16.9-12.6-32.5-32.9-42.8-55.6
			l-6.1-16.1c-9.5-31.8-2.8-61.7,19.9-88.8c19.3-23.1,49.8-43.5,88.1-58.9c1.4-0.6,2.4-2,2.4-3.5v-25
			C2944.9,30.5,2944.4,29.5,2943.6,28.8z M2937.3,54.1c-27.3,11.3-64,30.6-88.7,60.1c-11.5,13.8-19.3,28.5-23.1,43.8
			c-4.1,16.7-3.5,34.2,1.8,52l6.5,17c9.1,20.1,22.3,38.4,36.9,51.7H2712c0,0,0,0,0,0c-0.2-0.5-0.4-1.2-1.1-2.7
			c-10.7-24.2-17.2-44.7-16.5-72.2c0.7-29,10.1-55.7,27.3-77.3c19-23.9,43.8-42.1,78.1-57.2l16.5-6.7c30.1-11.4,70.8-20.4,121-26.7
			V54.1z"/>
		<path d="M2881.2,288.3h-171.6c-2.2,0-4.2-1.3-5.2-3.3c-0.9-1.8-1.1-2.5-1.4-3.3c-0.1-0.4-0.2-0.7-0.8-1.9
			c-10.9-24.7-18.1-47.1-17.4-76.3c0.8-31.1,10.9-59.8,29.3-83c20-25.2,46-44.3,81.8-60l16.3-6.7c0.1,0,0.2-0.1,0.2-0.1l0.4-0.1
			c31.7-12,74.6-21.4,127.5-27.8c1.7-0.2,3.3,0.3,4.5,1.4l0,0c1.2,1.1,2,2.7,2,4.3v25c0,2.4-1.4,4.5-3.6,5.4
			c-38,15.3-68.2,35.5-87.3,58.3c-22.2,26.5-28.8,55.8-19.5,86.9l6,15.9c10.2,22.4,25.6,42.3,42.2,54.8c2,1.5,2.8,4.1,2,6.5
			C2885.9,286.8,2883.7,288.3,2881.2,288.3z M2814,57.5c-0.1,0-0.1,0.1-0.2,0.1l-16.4,6.7c-35.1,15.4-60.7,34.1-80.2,58.8
			c-17.9,22.5-27.7,50.4-28.5,80.6c-0.7,28.5,6.3,50.4,17,74.6c0.6,1.3,0.8,1.8,0.9,2.3c0.2,0.7,0.4,1.2,1.2,2.8
			c0.3,0.6,0.9,1,1.6,1h171.6c0.8,0,1.5-0.5,1.7-1.2c0.2-0.7,0-1.5-0.6-2c-17.2-12.8-33-33.4-43.5-56.4l0-0.1l-6.1-16.2
			c-9.7-32.5-2.9-63,20.3-90.6c19.5-23.3,50.3-43.9,88.9-59.5c0.7-0.3,1.1-0.9,1.1-1.7v-25c0-0.5-0.2-1-0.6-1.3l0,0
			c-0.4-0.3-0.9-0.5-1.4-0.4c-52.6,6.4-95.2,15.7-126.6,27.6L2814,57.5z M2875.8,280.8h-165.1l-0.5-1.4c-0.2-0.5-0.4-1.1-1-2.6
			c-10.8-24.4-17.4-45.2-16.7-73.1c0.7-29.4,10.3-56.5,27.7-78.5c19.2-24.2,44.3-42.6,78.9-57.8l16.5-6.8
			c30.3-11.5,71.2-20.5,121.5-26.8l2.2-0.3v21.8l-1.2,0.5c-26.6,10.9-63.4,30.2-88,59.5c-11.3,13.6-19,28-22.7,43
			c-4,16.3-3.5,33.4,1.7,50.8l6.4,16.9c9,19.7,21.9,37.8,36.4,51L2875.8,280.8z M2713.4,276.8h152.2c-13.4-13.2-25.3-30.3-33.7-48.9
			l0-0.1l-6.5-17.2c-5.4-18.1-6-36-1.8-53c3.9-15.6,11.8-30.6,23.5-44.6c24.7-29.6,61.4-49,88.3-60.2V38.2
			c-49,6.3-88.8,15.1-118.3,26.3l-16.4,6.7c-34,14.9-58.6,32.9-77.3,56.6c-16.8,21.2-26.1,47.5-26.8,76.1
			c-0.7,27.1,5.8,47.4,16.4,71.3C2713.1,275.9,2713.3,276.4,2713.4,276.8z"/>
	</g>
</g>
<g>
	<path d="M1873,128.1c-3.2,0-5.8,2.6-5.8,5.8s2.6,5.8,5.8,5.8h52.3v5.8c0,3.2,2.6,5.8,5.8,5.8h34.8c3.2,0,5.8-2.6,5.8-5.8V52.6
		c0-3.2-2.6-5.8-5.8-5.8h-34.8c-3.2,0-5.8,2.6-5.8,5.8v5.8H1873c-3.2,0-5.8,2.6-5.8,5.8c0,3.2,2.6,5.8,5.8,5.8h52.3v58.1H1873z
		 M1936.9,58.4h23.2v81.3h-23.2V58.4z"/>
	<path d="M1861.4,209.3c20.3,0,29.6-3.8,37.7-7.1c6.2-2.5,11-4.5,20.3-4.5c10.5,0,17,2.6,24,5.4c7.6,3.1,15.5,6.2,28.3,6.2
		c28.2,0,46.5-16,46.5-40.6c0-34.8,0-52.3-29-52.3c-3.2,0-5.8,2.6-5.8,5.8s2.6,5.8,5.8,5.8c16.1,0,17.4,3,17.4,40.6
		c0,26.2-24.4,29-34.8,29c-10.5,0-17-2.6-24-5.4c-7.6-3.1-15.5-6.2-28.3-6.2c-11.6,0-18.3,2.7-24.7,5.4c-7.5,3.1-15.3,6.3-33.4,6.3
		c-3.2,0-5.8,2.6-5.8,5.8C1855.6,206.7,1858.2,209.3,1861.4,209.3z"/>
	<path d="M1989.2,81.6c30.2,0,63.9,31,63.9,75.5v23.2c0,17.4,11.7,29,29,29c3.2,0,5.8-2.6,5.8-5.8c0-3.2-2.6-5.8-5.8-5.8
		c-11.1,0-17.4-6.4-17.4-17.4v-23.2c0-52.1-39-87.1-75.5-87.1c-3.2,0-5.8,2.6-5.8,5.8C1983.4,79,1985.9,81.6,1989.2,81.6z"/>
	<path d="M2082.1,226.8c-10.7,0-18.7-2.7-27.2-5.5c-9-3-18.3-6.1-30.9-6.1c-12.7,0-20.5,3.1-28.1,6.2c-6.9,2.8-13.5,5.4-24.2,5.4
		c-10.5,0-17-2.6-24-5.4c-7.6-3.1-15.5-6.2-28.3-6.2c-11.6,0-18.3,2.7-24.7,5.4c-7.5,3.1-15.3,6.3-33.4,6.3c-3.2,0-5.8,2.6-5.8,5.8
		c0,3.2,2.6,5.8,5.8,5.8c20.3,0,29.6-3.8,37.7-7.1c6.2-2.5,11-4.5,20.3-4.5c10.5,0,17,2.6,24,5.4c7.6,3.1,15.5,6.2,28.3,6.2
		c13,0,21.2-3.3,28.5-6.3c6.8-2.8,13.3-5.4,23.7-5.4c10.7,0,18.7,2.7,27.2,5.5c9,3,18.3,6.1,30.9,6.1c3.2,0,5.8-2.6,5.8-5.8
		C2087.9,229.4,2085.3,226.8,2082.1,226.8z"/>
	<path d="M2082.1,255.8c-10.7,0-18.7-2.7-27.2-5.5c-9-3-18.3-6.1-30.9-6.1c-12.7,0-20.5,3.1-28.1,6.2c-6.9,2.8-13.5,5.4-24.2,5.4
		c-10.5,0-17-2.6-24-5.4c-7.6-3.1-15.5-6.2-28.3-6.2c-11.6,0-18.3,2.7-24.7,5.4c-7.5,3.1-15.3,6.3-33.4,6.3c-3.2,0-5.8,2.6-5.8,5.8
		s2.6,5.8,5.8,5.8c20.3,0,29.6-3.8,37.7-7.1c6.2-2.5,11-4.5,20.3-4.5c10.5,0,17,2.6,24,5.4c7.6,3.1,15.5,6.2,28.3,6.2
		c13,0,21.2-3.3,28.5-6.3c6.8-2.8,13.3-5.4,23.7-5.4c10.7,0,18.7,2.7,27.2,5.5c9,3,18.3,6.1,30.9,6.1c3.2,0,5.8-2.6,5.8-5.8
		S2085.3,255.8,2082.1,255.8z"/>
</g>
<g>
	<path class="st0" d="M1193.3,86.2V64.2h8.3c3.9,0,7-3.1,7-7v-0.4h22c1.9,0,3.6-0.6,5-1.6c0.2-0.2,0.5-0.4,0.7-0.6
		c0,0,0.1-0.1,0.1-0.2c1.2-1.2,2-2.9,2-4.7V26.5c0-3.9-3.5-7-7.8-7h-22V19c0-3.9-3.1-7-7-7h-54c-3.9,0-7,3.1-7,7v0.4h-8h-50.8
		c0,0,0,0,0,0h-60.8c-4.3,0-7.8,3.2-7.8,7v23.4c0,3.9,3.5,7,7.8,7h20.2v14.6l-15.7,16.7h-3.9c-3.7,0-6.7,3-6.7,6.7v19.9
		c0,3.7,3,6.8,6.7,6.8h47.7c3.7,0,6.8-3,6.8-6.8V94.9c0-3.7-3-6.7-6.8-6.7h-3.9l-15.7-16.7V56.9h32.1c0,0,0,0,0,0c0,0,0,0,0,0h50.8
		h8v0.4c0,3.9,3.1,7,7,7h8.3v21.9c0,0,0,0,0,0c0,0,0,0,0,0v50.7v50.7V234h-13.3c-5.9,0-10.7,4.8-10.7,10.7v27.7h-4.7
		c-8.2,0-14.9,6.7-14.9,14.9v7.7c0,3.9,3.2,7.1,7.1,7.1h111.7c3.9,0,7.1-3.2,7.1-7.1v-7.7c0-8.2-6.7-14.9-14.9-14.9h-4.7v-27.7
		c0-5.9-4.8-10.7-10.7-10.7h-14.6v-46.5v-50.7c0,0,0,0,0,0c0,0,0,0,0,0V86.2z M1067.5,113.1h-44.2V96.7h4c0,0,0,0,0,0c0,0,0,0,0,0
		h36.3c0,0,0,0,0,0c0,0,0,0,0,0h4V113.1z M1037.1,88.2l8.3-8.8l8.3,8.8H1037.1z M1184.9,136.9
		C1184.9,136.9,1184.9,136.9,1184.9,136.9v1.8l-18.8-19.3l18.8-19.3V136.9C1184.9,136.9,1184.9,136.9,1184.9,136.9z M1184.9,187.6
		v10.5l-18.8-19.3l18.8-19.3V187.6z M1164.4,86.2C1164.4,86.2,1164.4,86.2,1164.4,86.2V70.4l18.8,19.3l-18.8,19.3V86.2
		C1164.4,86.2,1164.4,86.2,1164.4,86.2z M1164.4,136.9v-7l18.8,19.3l-18.8,19.3V136.9z M1164.4,189.3l18.8,19.3l-18.8,19.3V189.3z
		 M1184.9,79.3l-14.7-15h14.7V79.3z M1208.6,33.7l15.1,14.6h-15.1V33.7z M1229.9,42.5l-15.1-14.6l15.1,0V42.5z M1081.7,48.4
		C1081.7,48.4,1081.7,48.4,1081.7,48.4C1081.7,48.4,1081.7,48.4,1081.7,48.4l-15.8,0l19.3-18.8l19.3,18.8H1081.7z M1055.5,46.7
		l-19.3-18.8h38.6L1055.5,46.7z M1095.7,27.9h36.8h1.8L1115,46.7L1095.7,27.9z M1021.6,27.9h2.4l21,20.4l-23.4,0V27.9z M1132.5,48.4
		h-7l15.1-14.6v14.6H1132.5z M1149.1,20.5h51.1v35.2h-11h-29h-11V20.5z M1229.7,287.3v6.3h-108.9v-6.3c0-3.5,2.9-6.4,6.4-6.4h96.2
		C1226.9,280.9,1229.7,283.8,1229.7,287.3z M1210.2,244.7v27.7h-69.8v-27.7c0-1.2,1-2.2,2.2-2.2h17.6c0,0,0,0,0,0c0,0,0,0,0,0h29
		h18.9C1209.2,242.5,1210.2,243.5,1210.2,244.7z M1170.2,234l14.7-15v15H1170.2z"/>
	<path class="st0" d="M969.1,217.2v17.3c0,3.5,2.9,6.4,6.4,6.4h52.2c3.5,0,6.3-2.8,6.3-6.4v-17.3c0-3.5-2.8-6.4-6.3-6.4h-52.2
		C972,210.9,969.1,213.7,969.1,217.2z M1025.5,232.4h-19.7v-13h19.7V232.4z M977.6,219.4h19.7v13h-19.7V219.4z"/>
	<path class="st0" d="M1027.7,253.6h-52.2c-3.5,0-6.4,2.8-6.4,6.4v17.3c0,3.5,2.9,6.4,6.4,6.4h52.2c3.5,0,6.3-2.8,6.3-6.4V260
		C1034,256.5,1031.2,253.6,1027.7,253.6z M977.6,262.1h19.7v13h-19.7V262.1z M1025.5,275.1h-19.7v-13h19.7V275.1z"/>
	<path class="st0" d="M1047,189.7h-41.2v-79.3c0-3.1-2.4-5.6-5.5-5.6h-43.6c-3.5,0-6.3,3-6.3,6.9v183.5c0,3.9,2.7,6.9,6.3,6.9h89.7
		c3.5,0,6.3-3.1,6.3-6.9v-100C1052.7,191.8,1049.7,189.7,1047,189.7z M1044.2,293.6H959V113.3h38.4V124H983c-2.3,0-4.2,1.9-4.2,4.2
		c0,2.3,1.9,4.2,4.2,4.2h14.4v15.4h-12.9c-2.3,0-4.2,1.9-4.2,4.2c0,2.3,1.9,4.2,4.2,4.2h12.9v37.5c0,2.3,1.9,4.2,4.2,4.2h42.6V293.6
		z"/>
</g>
<path class="st0" d="M318,299.6h-72.4l-45.5-93v-13.4h78.4v9.6h-4.8c-2.7,0-4.8,2.2-4.8,4.8c0,2.7,2.2,4.8,4.8,4.8h4.8v9.6h-4.8
	c-2.7,0-4.8,2.2-4.8,4.8c0,2.7,2.2,4.8,4.8,4.8h19.3c2.7,0,4.8-2.2,4.8-4.8c0-2.7-2.2-4.8-4.8-4.8h-4.8v-9.6h4.8
	c2.7,0,4.8-2.2,4.8-4.8c0-2.7-2.2-4.8-4.8-4.8h-4.8c0-5.2,0-17.5,0-22.7c0-7.9-4.6-15.3-11.7-18.8l-76.3-37.3v-11.5h24.1h4.3H251
	h27.4v9.6h-4.8c-2.7,0-4.8,2.2-4.8,4.8c0,2.7,2.2,4.8,4.8,4.8h19.3c2.7,0,4.8-2.2,4.8-4.8c0-2.7-2.2-4.8-4.8-4.8h-4.8v-14.5
	c0,0,0,0,0,0v-8.2c0-7.9-4.6-15.3-11.7-18.8L198.9,43L183.5,9.6l31,0c0.9,0,1.6,0.7,1.6,1.6l0,8.1h-4.8c-2.7,0-4.8,2.2-4.8,4.8
	c0,2.7,2.2,4.8,4.8,4.8h19.3c2.7,0,4.8-2.2,4.8-4.8c0-2.7-2.2-4.8-4.8-4.8h-4.8l0-8.1C225.7,5,220.6,0,214.4,0l-99.7,0
	c-6.2,0-11.3,5-11.3,11.3v8h-4.8c-2.7,0-4.8,2.2-4.8,4.8c0,2.7,2.2,4.8,4.8,4.8H118c2.7,0,4.8-2.2,4.8-4.8c0-2.7-2.2-4.8-4.8-4.8
	h-4.8v-8c0-0.9,0.7-1.6,1.6-1.6l31,0L130.3,43l-31,15.2l-20.2,9.9L52.9,80.9c-7.1,3.5-11.7,10.9-11.7,18.8v8.2v0v14.5h-4.8
	c-2.7,0-4.8,2.2-4.8,4.8c0,2.7,2.2,4.8,4.8,4.8h19.3c2.7,0,4.8-2.2,4.8-4.8c0-2.7-2.2-4.8-4.8-4.8h-4.8v-9.6h78.4v11.5l-76.3,37.3
	c-7.1,3.5-11.7,10.9-11.7,18.8v22.7h-4.8c-2.7,0-4.8,2.2-4.8,4.8c0,2.7,2.2,4.8,4.8,4.8h4.8v9.6h-4.8c-2.7,0-4.8,2.2-4.8,4.8
	c0,2.7,2.2,4.8,4.8,4.8h19.3c2.7,0,4.8-2.2,4.8-4.8c0-2.7-2.2-4.8-4.8-4.8h-4.8v-9.6h4.8c2.7,0,4.8-2.2,4.8-4.8
	c0-2.7-2.2-4.8-4.8-4.8h-4.8v-9.6h28h6.8h22.6h20.9v13.4l-45.5,93H11.3c-6.2,0-11.3,5-11.3,11.3v7.1c0,6.2,5,11.3,11.3,11.3H318
	c6.2,0,11.3-5,11.3-11.3v-7.1C329.2,304.7,324.2,299.6,318,299.6z M200.1,54.3l72.1,35.2c3.8,1.9,6.3,5.8,6.3,10.1v3.4h-22.7H251
	h-22.5H228h-27.9V54.3z M200.1,134.9l72.1,35.2c3.8,1.9,6.3,5.8,6.3,10.1v3.4h-78.4V134.9z M129.2,103H50.8v-3.4
	c0-4.3,2.5-8.2,6.3-10.1l26.2-12.8l20.2-9.9l25.6-12.5V103z M234.8,299.6h-11.1l-19-21l-15.1-16.7l-18.4-20.3l22.9-25.3L234.8,299.6
	z M182.4,268.4l15.1,16.7l13.2,14.5h-92.1l46.1-50.9L182.4,268.4z M144.9,212.6h39.5l-19.8,21.8L144.9,212.6z M183.6,183.6h-38v0
	l19-19L183.6,183.6z M145.6,132h38l-19,19L145.6,132z M171.4,157.8l19-19v38L171.4,157.8z M190.4,96.2l-19-19l19-19V96.2z
	 M183.6,103h-38l19-19L183.6,103z M145.6,51.4h38l-19,19L145.6,51.4z M156.4,9.6l16.5,0l14.8,32.1h-46.2L156.4,9.6z M138.8,58.3
	l19,19l-19,19V58.3z M138.8,112.7h51.6v9.7h-51.6V112.7z M138.8,138.8l19,19l-19,19V138.8z M138.8,193.3h51.6v9.7h-51.6V193.3z
	 M108.2,183.6H85.6H50.8v-3.4c0-4.3,2.5-8.2,6.3-10.1l72-35.2v48.7H108.2z M135.2,216.3l22.9,25.3l-52.6,58.1H94.4L135.2,216.3z
	 M319.6,318c0,0.9-0.7,1.6-1.6,1.6H11.3c-0.9,0-1.6-0.7-1.6-1.6v-7.1c0-0.9,0.7-1.6,1.6-1.6H318c0.9,0,1.6,0.7,1.6,1.6V318z"/>
<g>
</g>
<g>
</g>
<g>
</g>
<g>
</g>
<g>
</g>
<g>
</g>
</svg>
