<?xml version="1.0" encoding="UTF-8"?><svg id="Layer_1" xmlns="http://www.w3.org/2000/svg" xmlns:xlink="http://www.w3.org/1999/xlink" viewBox="0 0 511 478.13"><defs><style>.cls-1{clip-path:url(#clippath);}.cls-2{fill:none;}</style><clipPath id="clippath"><rect class="cls-2" x="0" width="511" height="478.13"/></clipPath></defs><g class="cls-1"><path d="M246.88,177.87c3.33,3.16,8.86,2.52,11.4-1.29l49.82-75.19c2.29-3.45,1.34-8.09-2.11-10.38-3.44-2.28-8.09-1.34-10.37,2.11l-44.9,67.76-24.95-23.69c-3-2.85-7.74-2.72-10.58,.28-2.85,3-2.72,7.74,.28,10.58,0,0,31.39,29.8,31.42,29.83"/><path d="M251.98,292.05c1.43,.65,3.01,1,4.59,1h.06c1.6,0,3.21-.37,4.64-1.06,113.82-54.13,133.12-170.93,136.31-205.43,.73-7.88-3.7-15.22-11.04-18.26-22.66-9.41-38.06-30.45-40.2-54.9C345.69,5.87,339.26,0,331.68,0h-.09L178.24,.9c-7.73,.04-14.01,5.92-14.6,13.66-1.89,24.46-17.06,45.65-39.61,55.3-7.26,3.1-11.59,10.48-10.76,18.36,3.6,34.47,24.26,151.03,138.71,203.83M129.92,83.63c27.64-11.82,46.27-37.77,48.63-67.76l152.91-.9c2.72,29.92,21.61,55.63,49.35,67.15,1.24,.52,1.99,1.74,1.87,3.05-3,32.34-20.96,141.38-126.14,192.48-105.78-49.86-125-158.69-128.39-190.99-.14-1.31,.57-2.53,1.76-3.04"/><path d="M148.61,125.12c.9,3.33,5.13,6.38,9.19,5.26,3.98-1.1,6.34-5.2,5.26-9.18-1.91-7.02-3.51-14.15-4.77-21.2,20.34-13.25,35.43-33.03,42.83-56.13l108.1-.63c7.67,23.01,22.99,42.61,43.49,55.62-1.17,7.08-2.69,14.22-4.52,21.27-1.04,4,1.37,8.09,5.37,9.13,4.01,1.04,8.09-1.37,9.13-5.37,2.14-8.28,3.89-16.69,5.19-24.98,.72-4.64-1.4-9.19-5.4-11.61-19.09-11.53-33.2-29.61-39.73-50.92-1.47-4.79-5.99-8.12-11-8.12h-.07l-113.18,.66c-5.04,.03-9.56,3.43-10.98,8.25-6.28,21.38-20.18,39.63-39.13,51.39-3.97,2.46-6.04,7.04-5.26,11.67,1.4,8.28,3.24,16.65,5.48,24.9"/><path d="M347.55,147.32c-3.82-1.58-8.2,.24-9.77,4.06-17.3,41.93-44.68,73.8-81.42,94.78-37.02-20.57-64.8-52.18-82.58-93.97-1.62-3.8-6.02-5.57-9.82-3.95-3.81,1.62-5.58,6.02-3.96,9.82,19.41,45.61,49.99,79.99,90.89,102.18,1.72,.94,3.61,1.4,5.49,1.4s3.86-.49,5.61-1.47c40.59-22.65,70.74-57.33,89.62-103.08,1.58-3.82-.24-8.2-4.07-9.77"/><path d="M48.03,383.02c-14.6,0-26.48,11.88-26.48,26.48s11.88,26.48,26.48,26.48,26.49-11.88,26.49-26.48-11.88-26.48-26.49-26.48m0,38c-6.35,0-11.51-5.16-11.51-11.51s5.17-11.51,11.51-11.51,11.52,5.16,11.52,11.51-5.17,11.51-11.52,11.51"/><path d="M505.63,309.74c-9.6-14.1-28.91-17.83-43.06-8.33l-97.86,65.49-20.89-1.17-.53-5.35c-2.08-20.95-18.09-37.64-38.93-40.58-.13-.02-.26-.04-.39-.05l-105.44-9.24c-3.57-.56-14.99-3.84-46.36-21.83-16.31-9.35-34.68-14.63-53.35-15.35v-19.58c0-9.83-7.99-17.82-17.82-17.82H17.82c-9.83,0-17.82,8-17.82,17.82v192.87c0,9.82,8,17.82,17.82,17.82h63.17c9.83,0,17.82-8,17.82-17.82v-5.31l92.17,34.9c.2,.08,7.69,2.88,21.45,1.58,.04,0,153.15-22.08,153.15-22.08,.04,0,.07-.01,.11-.02,13.08-2.09,25.42-7.62,35.69-15.99,.09-.08,.18-.16,.27-.23l98.91-88.96c11.66-10.35,13.84-27.88,5.06-40.76m-15.04,29.6l-98.81,88.87c-8.18,6.63-18,11.02-28.4,12.69l-153.04,22.06s-.08,.01-.13,.02c-.02,0-.05,0-.07,.01-4.58,.72-9.35,.42-14.18-.9l-97.16-36.79v-85.49c0-4.14-3.35-7.49-7.49-7.49s-7.49,3.35-7.49,7.49v106.81c0,1.57-1.28,2.85-2.85,2.85H17.82c-1.57,0-2.85-1.28-2.85-2.85V253.75c0-1.57,1.28-2.85,2.85-2.85h63.17c1.57,0,2.85,1.28,2.85,2.85v52.25c0,4.14,3.35,7.49,7.49,7.49s7.49-3.35,7.49-7.49v-17.68c16.06,.71,31.86,5.29,45.9,13.35,37.84,21.7,48.41,23.2,51.89,23.69,.13,.02,.26,.03,.39,.05l105.45,9.24c13.9,2.05,24.56,13.22,25.95,27.22l.4,3.99-141.18,8.72-.28-.02c-4.58-.41-8.71-2.58-11.65-6.09-2.65-3.18-7.37-3.61-10.54-.95-3.18,2.65-3.61,7.37-.95,10.54,5.49,6.59,13.24,10.53,21.81,11.42,4.62,.48,151.03-9.12,151.03-9.12l29.35,1.65c1.62,.09,3.23-.35,4.58-1.25l99.95-66.89c7.34-4.93,17.36-3,22.34,4.32,4.55,6.69,3.42,15.78-2.66,21.18"/></g></svg>