<?xml version="1.0" encoding="UTF-8"?><svg id="Layer_1" xmlns="http://www.w3.org/2000/svg" xmlns:xlink="http://www.w3.org/1999/xlink" viewBox="0 0 512 512"><defs><style>.cls-1{clip-path:url(#clippath);}.cls-2{fill:none;}</style><clipPath id="clippath"><rect class="cls-2" width="512" height="512"/></clipPath></defs><g class="cls-1"><path d="M145.07,170.67c-47.13,0-85.33,38.21-85.33,85.33s38.21,85.33,85.33,85.33,85.33-38.21,85.33-85.33c-.05-47.11-38.23-85.28-85.33-85.33m0,153.6c-37.7,0-68.27-30.56-68.27-68.27s30.56-68.27,68.27-68.27,68.27,30.56,68.27,68.27c-.04,37.68-30.58,68.23-68.27,68.27"/><path d="M145.07,204.8c-28.28,0-51.2,22.92-51.2,51.2s22.92,51.2,51.2,51.2,51.2-22.92,51.2-51.2c-.03-28.27-22.93-51.17-51.2-51.2m0,85.33c-18.85,0-34.13-15.28-34.13-34.13s15.28-34.13,34.13-34.13,34.13,15.28,34.13,34.13-15.28,34.13-34.13,34.13"/><path d="M486.4,0h-102.4c-14.14,0-25.6,11.46-25.6,25.6v42.67h-17.07c-14.14,0-25.6,11.46-25.6,25.6V247.47h-25.98c-.08-1.3-.05-2.62-.16-3.91-.58-6.17-4.58-11.48-10.35-13.74l-18.04-7.21c-2.51-8.73-6-17.15-10.41-25.1l7.68-17.92c2.5-5.69,1.57-12.29-2.41-17.07-2.64-3.16-5.46-6.23-8.4-9.17s-6.02-5.76-9.19-8.42c-4.77-3.94-11.35-4.87-17.02-2.39l-17.92,7.68c-7.94-4.41-16.36-7.9-25.1-10.41l-7.22-18.06c-2.26-5.76-7.57-9.75-13.72-10.33-8.28-.74-16.61-.74-24.89,0-6.17,.58-11.48,4.58-13.74,10.35l-7.21,18.04c-8.73,2.51-17.15,6-25.1,10.41l-17.92-7.68c-5.68-2.51-12.3-1.58-17.07,2.41-3.16,2.65-6.23,5.46-9.17,8.41s-5.76,6.02-8.42,9.19c-3.94,4.77-4.87,11.35-2.39,17.02l7.68,17.92c-4.41,7.94-7.9,16.36-10.41,25.1l-18.06,7.22c-5.74,2.29-9.71,7.6-10.27,13.76C.17,247.66,0,251.84,0,256s.17,8.34,.54,12.44c.58,6.17,4.58,11.48,10.35,13.74l18.04,7.21c2.51,8.73,6,17.15,10.41,25.1l-7.68,17.92c-2.5,5.68-1.57,12.29,2.41,17.07,2.65,3.16,5.46,6.23,8.4,9.17s6.02,5.76,9.19,8.42c4.77,3.94,11.35,4.87,17.02,2.39l17.92-7.68c7.94,4.41,16.36,7.9,25.1,10.41l7.22,18.06c2.26,5.76,7.57,9.75,13.72,10.33,4.11,.37,8.29,.54,12.45,.54s8.34-.17,12.44-.54c6.17-.58,11.48-4.58,13.74-10.35l7.21-18.04c8.73-2.51,17.15-6,25.1-10.41l17.92,7.68c5.68,2.5,12.29,1.57,17.07-2.41,3.16-2.65,6.23-5.46,9.17-8.41s5.76-5.97,8.42-9.19c3.94-4.77,4.87-11.35,2.39-17.01l-7.68-17.92c4.41-7.94,7.9-16.36,10.41-25.1l18.04-7.21c5.76-2.26,9.75-7.57,10.33-13.72,.11-1.3,.08-2.61,.16-3.92h25.92v153.56c0,14.14,11.46,25.6,25.6,25.6h17.07v42.67c0,14.14,11.46,25.6,25.6,25.6h102.4c14.14,0,25.6-11.46,25.6-25.6v-102.4c0-14.14-11.46-25.6-25.6-25.6h-102.4c-14.14,0-25.6,11.46-25.6,25.6v42.67h-17.07c-4.71,0-8.53-3.82-8.53-8.53v-153.6h25.6v42.67c0,14.14,11.46,25.6,25.6,25.6h102.4c14.14,0,25.6-11.46,25.6-25.6v-102.4c0-14.14-11.46-25.6-25.6-25.6h-102.4c-14.14,0-25.6,11.46-25.6,25.6v42.67h-25.6V93.87c0-4.71,3.82-8.53,8.53-8.53h17.07v42.67c0,14.14,11.46,25.6,25.6,25.6h102.4c14.14,0,25.6-11.46,25.6-25.6V25.6c0-14.14-11.46-25.6-25.6-25.6m-213.77,266.45l-21.75,8.69c-2.55,1.02-4.46,3.2-5.12,5.87-2.49,10.04-6.48,19.65-11.83,28.5-1.42,2.35-1.63,5.25-.55,7.77l9.55,21.18c-2.33,2.77-4.81,5.46-7.4,8.05-2.59,2.58-5.27,5.07-7.42,7.2l-21.81-9.39c-2.53-1.08-5.42-.88-7.77,.55-8.84,5.34-18.44,9.33-28.47,11.83-2.67,.66-4.85,2.57-5.87,5.12l-8.24,21.68c-7.19,.66-15.16,.33-21.23,.32l-8.8-22c-1.02-2.55-3.2-4.46-5.87-5.12-10.04-2.49-19.65-6.48-28.5-11.83-2.35-1.42-5.25-1.63-7.77-.55l-21.18,9.58c-2.77-2.33-5.46-4.81-8.05-7.4s-5.07-5.27-7.2-7.42l9.39-21.81c1.08-2.53,.88-5.42-.55-7.77-5.35-8.85-9.33-18.46-11.83-28.5-.66-2.67-2.57-4.85-5.12-5.87l-21.68-8.24c-.35-3.6-.5-7.25-.5-10.9s.15-7.3,.16-10.33l22.02-8.8c2.55-1.02,4.46-3.2,5.12-5.87,2.49-10.04,6.48-19.65,11.83-28.5,1.42-2.35,1.63-5.25,.55-7.77l-9.58-21.18c2.33-2.77,4.81-5.46,7.4-8.05,2.58-2.59,5.27-5.07,7.42-7.2l21.81,9.39c2.53,1.08,5.42,.88,7.77-.55,8.86-5.35,18.46-9.33,28.5-11.83,2.67-.66,4.85-2.57,5.87-5.12l8.23-21.68c7.19-.66,15.16-.33,21.23-.32l8.8,22c1.02,2.55,3.2,4.46,5.87,5.12,10.04,2.49,19.65,6.48,28.5,11.83,2.35,1.42,5.25,1.63,7.77,.55l21.18-9.55c2.77,2.33,5.46,4.81,8.05,7.4,2.58,2.59,5.07,5.27,7.2,7.42l-9.39,21.81c-1.08,2.53-.88,5.42,.55,7.77,5.34,8.85,9.33,18.44,11.83,28.47,.66,2.67,2.57,4.85,5.12,5.87l21.68,8.23c.32,3.6,.48,7.25,.48,10.9,.02,3.49-.11,6.98-.41,10.45m102.83,117.55c0-4.71,3.82-8.53,8.53-8.53h102.4c4.71,0,8.53,3.82,8.53,8.53v102.4c0,4.71-3.82,8.53-8.53,8.53h-102.4c-4.71,0-8.53-3.82-8.53-8.53v-102.4Zm0-179.2c0-4.71,3.82-8.53,8.53-8.53h102.4c4.71,0,8.53,3.82,8.53,8.53v102.4c0,4.71-3.82,8.53-8.53,8.53h-102.4c-4.71,0-8.53-3.82-8.53-8.53v-102.4Zm119.47-76.8c0,4.71-3.82,8.53-8.53,8.53h-102.4c-4.71,0-8.53-3.82-8.53-8.53V25.6c0-4.71,3.82-8.53,8.53-8.53h102.4c4.71,0,8.53,3.82,8.53,8.53v102.4Z"/><path d="M453.7,46.46l-28.36,42.55-9.71-9.71c-3.39-3.27-8.79-3.18-12.07,.21-3.19,3.31-3.19,8.55,0,11.86l17.07,17.07c1.6,1.6,3.77,2.5,6.03,2.5,.27,0,.56,0,.85-.04,2.54-.25,4.84-1.63,6.26-3.75l34.13-51.2c2.62-3.92,1.56-9.22-2.36-11.84-3.92-2.61-9.22-1.56-11.84,2.36h0Z"/><path d="M420.63,287.63c1.6,1.6,3.77,2.5,6.03,2.5,.27,0,.55,0,.85-.04,2.54-.25,4.84-1.63,6.26-3.76l34.13-51.2c2.61-3.92,1.56-9.22-2.36-11.84-3.92-2.61-9.22-1.56-11.84,2.36l-28.36,42.55-9.71-9.71c-3.39-3.27-8.79-3.18-12.07,.21-3.19,3.31-3.19,8.55,0,11.86l17.06,17.07Z"/></g></svg>