<?xml version="1.0" encoding="UTF-8"?><svg id="Layer_1" xmlns="http://www.w3.org/2000/svg" xmlns:xlink="http://www.w3.org/1999/xlink" viewBox="0 0 496 496"><defs><style>.cls-1{clip-path:url(#clippath);}.cls-2{fill:none;}</style><clipPath id="clippath"><rect class="cls-2" width="496" height="496"/></clipPath></defs><g class="cls-1"><path d="M488,432h-16V232c0-4.42-3.58-8-8-8h-48c-4.42,0-8,3.58-8,8v200h-16v-72c0-4.42-3.58-8-8-8h-48c-4.42,0-8,3.58-8,8v72h-16v-40c0-4.42-3.58-8-8-8h-48c-4.42,0-8,3.58-8,8v40h-32c-4.42,0-8,3.58-8,8v48c0,4.42,3.58,8,8,8H488c4.42,0,8-3.58,8-8v-48c0-4.42-3.58-8-8-8m-64-192h32v192h-32V240Zm-80,128h32v64h-32v-64Zm-80,32h32v32h-32v-32Zm216,80H224v-32H480v32Z"/><path d="M231.76,393.94l7.66-30.62c16.99-4.1,33.22-10.85,48.11-20l27.15,16.28c3.15,1.89,7.18,1.4,9.78-1.2l33.94-33.94c2.6-2.6,3.09-6.63,1.2-9.78l-16.28-27.15c9.15-14.89,15.9-31.12,20-48.11l30.62-7.66c3.56-.89,6.06-4.09,6.06-7.76v-48c0-3.67-2.5-6.87-6.06-7.76l-30.62-7.66c-4.1-16.99-10.85-33.22-20-48.11l16.28-27.15c1.89-3.15,1.4-7.18-1.2-9.78l-33.94-33.94c-2.6-2.6-6.63-3.09-9.78-1.2l-27.15,16.29c-14.89-9.15-31.12-15.9-48.11-20l-7.66-30.62c-.89-3.56-4.09-6.06-7.76-6.06h-48c-3.67,0-6.87,2.5-7.76,6.06l-7.66,30.62c-16.99,4.1-33.22,10.85-48.11,20l-27.15-16.27c-3.15-1.89-7.18-1.4-9.78,1.2l-33.94,33.94c-2.6,2.6-3.09,6.63-1.2,9.78l16.28,27.15c-9.15,14.89-15.9,31.12-20,48.11l-30.62,7.66c-3.56,.89-6.06,4.09-6.06,7.76v48c0,3.67,2.5,6.87,6.06,7.76l30.62,7.66c4.1,16.99,10.85,33.22,20,48.11l-16.27,27.15c-1.89,3.15-1.4,7.18,1.2,9.78l33.94,33.94c2.6,2.6,6.63,3.09,9.78,1.2l27.15-16.28c14.89,9.15,31.12,15.9,48.11,20l7.66,30.62c.89,3.56,4.09,6.06,7.76,6.06h48c3.67,0,6.87-2.5,7.76-6.06m-49.51-9.94l-7.34-29.34c-.75-2.96-3.12-5.23-6.1-5.86-18.48-3.89-36.07-11.22-51.85-21.6-2.57-1.67-5.86-1.74-8.49-.16l-26.02,15.61-25.11-25.1,15.61-26.02c1.58-2.63,1.51-5.92-.16-8.49-10.38-15.78-17.7-33.37-21.58-51.85-.63-3-2.91-5.38-5.89-6.12l-29.31-7.33v-35.5l29.34-7.34c2.96-.75,5.23-3.12,5.86-6.1,3.89-18.48,11.22-36.07,21.6-51.85,1.67-2.57,1.74-5.86,.16-8.49l-15.62-26.02,25.11-25.11,26.02,15.61c2.63,1.58,5.92,1.51,8.49-.16,15.78-10.38,33.37-17.7,51.85-21.58,3-.63,5.38-2.92,6.12-5.89l7.33-29.31h35.5l7.34,29.34c.75,2.96,3.12,5.23,6.1,5.86,18.48,3.89,36.07,11.22,51.85,21.6,2.56,1.69,5.86,1.75,8.49,.16l26.02-15.61,25.11,25.11-15.61,26.02c-1.58,2.63-1.51,5.92,.16,8.49,10.38,15.77,17.7,33.36,21.58,51.83,.63,3,2.92,5.38,5.89,6.12l29.31,7.33v35.5l-29.34,7.34c-2.97,.74-5.26,3.12-5.89,6.12-3.88,18.47-11.2,36.06-21.57,51.83-1.67,2.57-1.74,5.86-.16,8.49l15.61,26.02-25.11,25.11-26.02-15.61c-2.63-1.58-5.92-1.51-8.49,.16-15.77,10.38-33.36,17.7-51.83,21.58-3,.63-5.38,2.92-6.12,5.89l-7.33,29.31h-35.5Z"/><path d="M312,200c0-61.86-50.14-112-112-112s-112,50.14-112,112,50.14,112,112,112c61.83-.07,111.93-50.17,112-112m-112,96c-53.02,0-96-42.98-96-96s42.98-96,96-96,96,42.98,96,96c-.06,53-43,95.94-96,96"/><path d="M200,120c-44.18,0-80,35.82-80,80s35.82,80,80,80,80-35.82,80-80c-.05-44.16-35.84-79.95-80-80m0,144c-35.35,0-64-28.65-64-64s28.65-64,64-64,64,28.65,64,64c-.04,35.33-28.67,63.96-64,64"/><path d="M216,200c-.02-5.69-3.07-10.94-8-13.78v-18.22h-16v18.22c-7.64,4.4-10.26,14.15-5.86,21.78,2.85,4.96,8.14,8.01,13.86,7.99,1.38-.02,2.76-.22,4.09-.6l22.26,22.26,11.31-11.31-22.26-22.26c.38-1.33,.58-2.7,.6-4.09"/><path d="M61.66,362.34c-3.12-3.12-8.19-3.12-11.31,0L2.34,410.34c-3.12,3.12-3.12,8.19,0,11.31,1.5,1.5,3.53,2.34,5.65,2.34H24v64c0,4.42,3.58,8,8,8h48c4.42,0,8-3.58,8-8v-64h16c4.42,0,8-3.58,8-8,0-2.12-.84-4.15-2.34-5.65l-48-48Zm18.34,45.66c-4.42,0-8,3.58-8,8v64H40v-64c0-4.42-3.58-8-8-8h-4.69l28.69-28.69,28.69,28.69h-4.69Z"/><path d="M416,208h48c4.42,0,8-3.58,8-8V64h16c4.42,0,8-3.58,8-8,0-2.12-.84-4.15-2.34-5.65L445.66,2.34c-3.12-3.12-8.19-3.12-11.31,0l-48,48c-3.12,3.12-3.12,8.19,0,11.31,1.5,1.5,3.53,2.34,5.65,2.34h16V200c0,4.42,3.58,8,8,8m24-188.69l28.69,28.69h-4.69c-4.42,0-8,3.58-8,8V192h-32V56c0-4.42-3.58-8-8-8h-4.69l28.69-28.69Z"/></g></svg>