<?xml version="1.0" encoding="UTF-8"?><svg id="Layer_1" xmlns="http://www.w3.org/2000/svg" xmlns:xlink="http://www.w3.org/1999/xlink" viewBox="0 0 365.93 365.93"><defs><style>.cls-1{fill:#fff;}.cls-2{fill:#3b8916;}.cls-3{fill:#16007e;}.cls-4{fill:#f0953e;}.cls-5{clip-path:url(#clippath);}.cls-6{fill:none;}</style><clipPath id="clippath"><rect class="cls-6" y="0" width="365.93" height="365.93"/></clipPath></defs><g class="cls-5"><path class="cls-4" d="M182.97,0C103.34,0,35.61,50.87,10.46,121.88H355.47C330.33,50.87,262.59,0,182.97,0"/><path class="cls-2" d="M10.49,244.12c25.17,70.97,92.88,121.81,172.48,121.81s147.31-50.84,172.48-121.81H10.49Z"/><path class="cls-1" d="M365.93,182.97c0-21.42-3.69-41.98-10.46-61.09H10.46C3.69,140.99,0,161.54,0,182.97s3.7,42.03,10.49,61.16H355.45c6.78-19.12,10.49-39.71,10.49-61.16"/><path class="cls-3" d="M182.97,128.11c-30.3,0-54.9,24.53-54.9,54.82s24.6,54.9,54.9,54.9,54.9-24.6,54.9-54.9c-.04-30.3-24.6-54.82-54.9-54.82m-.04,5.33l-1.39,27.6,1.49,15.7,1.39-15.7-1.39-27.6c1.46,0,2.85,.07,4.24,.22,0,.07-.07,.07-.07,.15,0,1.32,1.02,2.41,2.26,2.41,1.17,0,2.12-.95,2.23-2.04,1.39,.29,2.7,.51,4.05,.95l-8.47,26.28-2.7,15.55,5.47-14.89,5.84-26.94c1.32,.44,2.63,.8,3.94,1.31-.07,.22-.18,.51-.18,.8,0,1.24,1.02,2.26,2.3,2.26,.88,0,1.75-.58,2.08-1.39,1.24,.58,2.45,1.24,3.69,1.97l-15,23.07-6.64,14.45,9.16-12.92,12.59-24.53c1.13,.65,2.3,1.39,3.47,2.12-.33,.44-.51,.88-.51,1.46,0,1.24,1.02,2.26,2.3,2.26,.73,0,1.39-.29,1.79-.95,1.1,.95,2.12,1.9,3.07,2.85l-20.44,18.47-10.11,12.19,12.15-10.07,18.51-20.51c.95,1.02,1.9,1.97,2.77,3.07-.55,.44-.8,1.1-.8,1.75,0,1.24,1.02,2.26,2.23,2.26,.55,0,.95-.15,1.35-.44,.84,1.17,1.57,2.34,2.23,3.5l-24.53,12.56-12.92,9.2,14.35-6.57,23.18-15.11c.77,1.31,1.39,2.7,2.01,3.87-.77,.37-1.39,1.24-1.39,2.19,0,1.24,1.02,2.26,2.23,2.26,.36,0,.62-.07,.87-.22,.44,1.31,.84,2.55,1.17,3.87l-26.97,5.69-14.78,5.48,15.55-2.63,26.28-8.39c.33,1.17,.66,2.63,.91,3.94-1.13,.15-1.97,1.02-1.97,2.26s1.06,2.26,2.3,2.26h.22c.15,1.31,.15,2.77,.15,4.09l-27.52-1.31-15.77,1.39,15.77,1.53,27.52-1.46c0,1.46,0,2.85-.15,4.16h-.22c-1.24,0-2.3,1.1-2.3,2.26s.84,2.04,1.93,2.26c-.26,1.39-.55,2.7-.88,4.01l-9.38-2.99-16.9-5.48-15.55-2.63h0l14.78,5.48,26.97,5.77c-.33,1.31-.73,2.7-1.24,3.87-.07,0-.22-.07-.29-.07h-.51c-1.28,0-2.3,.95-2.3,2.26,0,.36,.07,.58,.22,.88,.11,.37,.33,.66,.62,.88,.07,0,.11,.07,.18,.07,.07,.07,.15,.15,.22,.15,.04,0,.11,.07,.15,.15-.58,1.24-1.24,2.48-1.93,3.65l-23.14-14.97h-.04l-14.35-6.57h.07l7.52,5.26,5.33,3.79,24.53,12.56c-.73,1.24-1.46,2.48-2.26,3.58-.37-.22-.84-.37-1.31-.37-1.28,0-2.26,.95-2.26,2.19,0,.73,.29,1.39,.84,1.75-.91,1.02-1.82,2.04-2.77,2.99l-18.51-20.44-12.12-10.07,10.07,12.19,20.44,18.47c-.95,1.02-1.9,1.82-2.96,2.7-.44-.36-.91-.51-1.42-.51-1.24,0-2.26,1.1-2.26,2.26,0,.44,.07,.73,.18,1.02-1.2,.73-2.45,1.53-3.65,2.34l-12.59-24.53-9.16-12.99,6.61,14.38,15,23.21c-1.2,.66-2.41,1.31-3.65,1.9-.33-.88-1.13-1.39-2.04-1.39-1.28,0-2.3,1.1-2.3,2.26,0,.29,.07,.58,.15,.88-1.31,.44-2.59,.88-3.94,1.17l-5.84-27.01-5.47-14.67v-.07l2.7,15.55,8.47,26.28c-1.35,.36-2.7,.73-4.05,.87-.18-1.02-1.13-1.9-2.23-1.9-1.31,0-2.26,1.02-2.26,2.19v.29c-1.39,.15-2.77,.22-4.16,.22l1.39-27.52-1.46-15.77-1.42,15.77,1.39,27.52c-1.46,0-2.81-.07-4.24-.22v-.29c0-1.17-1.02-2.19-2.3-2.19-1.1,0-2.04,.87-2.23,1.9-1.35-.22-2.66-.51-3.94-.87l8.47-26.28,2.63-15.47-5.47,14.67-5.77,27.01c-1.31-.29-2.63-.73-3.98-1.17,.11-.29,.18-.58,.18-.88,0-1.17-1.02-2.26-2.23-2.26-.95,0-1.75,.58-2.15,1.39-1.21-.59-2.45-1.24-3.65-1.9l15-23.21,6.57-14.38-9.13,12.92-12.56,24.6c-1.2-.8-2.41-1.53-3.54-2.34,.25-.29,.44-.73,.44-1.24,0-1.31-1.02-2.34-2.22-2.34-.77,0-1.39,.37-1.75,.88-1.1-.95-2.12-1.75-3.07-2.77l20.51-18.47,10.08-12.19-12.15,10.07-18.51,20.44c-1.02-.95-1.93-2.04-2.85-2.99,.51-.44,.88-1.1,.88-1.83,0-1.24-1.02-2.19-2.26-2.19-.51,0-.99,.15-1.35,.37-.8-1.1-1.53-2.26-2.23-3.5l24.6-12.63,12.81-8.98-14.35,6.57-23.14,14.97c-.69-1.17-1.24-2.34-1.86-3.65,.87-.29,1.46-1.1,1.46-2.04,0-1.31-.99-2.34-2.3-2.34-.33,0-.66,.07-.95,.22-.44-1.24-.88-2.63-1.28-4.01l27.01-5.77,14.86-5.48-15.62,2.63-26.28,8.47c-.36-1.31-.62-2.63-.91-4.09,1.13-.15,1.97-1.02,1.97-2.19,0-1.24-1.02-2.26-2.26-2.26h-.26c-.07-1.31-.18-2.7-.18-4.16l27.56,1.46,15.73-1.53-15.73-1.39-27.56,1.31c0-1.31,.11-2.77,.18-4.09h.4c1.24,0,2.26-.95,2.26-2.26,0-1.24-.91-2.12-2.12-2.26,.29-1.31,.55-2.77,.91-3.94l26.28,8.39,15.62,2.63-14.86-5.48-27.01-5.76c.4-1.39,.84-2.7,1.28-3.94,.22,.07,.58,.15,.84,.15,1.28,0,2.26-1.02,2.26-2.26,0-.95-.58-1.75-1.35-2.04,.58-1.32,1.21-2.56,1.9-3.8l23.14,15.11,14.42,6.57-12.88-9.2-24.6-12.56c.69-1.17,1.46-2.34,2.26-3.58,.33,.37,.88,.51,1.35,.51,1.21,0,2.26-1.02,2.26-2.26,0-.66-.36-1.31-.84-1.83,.84-1.02,1.75-1.97,2.74-2.99l18.51,20.51,12.19,10.07-10.08-12.19-20.51-18.47c1.02-.95,2.01-1.9,3.07-2.77,.36,.51,1.02,.88,1.75,.88,1.28,0,2.3-1.02,2.3-2.34,0-.51-.22-.95-.47-1.39,1.17-.66,2.3-1.46,3.5-2.12l12.56,24.53,9.13,12.85-6.57-14.38-15-23.07c1.2-.73,2.41-1.39,3.61-1.97,.37,.88,1.17,1.46,2.12,1.46,1.28,0,2.26-1.02,2.26-2.19,0-.37-.07-.73-.15-.95,1.28-.51,2.67-.88,3.98-1.31l5.84,26.94,5.48,14.89-2.66-15.55-8.47-26.28c1.31-.44,2.63-.66,4.01-.95,.15,1.1,1.09,1.97,2.23,1.97,1.28,0,2.3-1.02,2.3-2.34v-.22c1.35-.15,2.74-.15,4.12-.15"/><path class="cls-1" d="M183.04,174.75c4.53,0,8.18,3.72,8.18,8.18s-3.65,8.25-8.18,8.25-8.25-3.72-8.25-8.25,3.65-8.18,8.25-8.18"/><path class="cls-3" d="M183.04,176.65c3.47,0,6.31,2.78,6.31,6.28s-2.85,6.42-6.31,6.42-6.42-2.85-6.42-6.42,2.88-6.28,6.42-6.28"/></g></svg>