<?xml version="1.0" encoding="utf-8"?>
<!-- Generator: Adobe Illustrator 26.3.0, SVG Export Plug-In . SVG Version: 6.00 Build 0)  -->
<svg version="1.1" id="Layer_1" xmlns="http://www.w3.org/2000/svg" xmlns:xlink="http://www.w3.org/1999/xlink" x="0px" y="0px"
	 viewBox="0 0 287.9 290.1" style="enable-background:new 0 0 287.9 290.1;" xml:space="preserve">
<style type="text/css">
	.st0{fill:#010101;}
</style>
<g>
	<g id="g1363">
		<g id="g1369" transform="translate(174.4404,512)">
			<g id="path1371">
				<rect x="2488.7" y="-503.6" class="st0" width="16" height="273.2"/>
			</g>
		</g>
		<g id="g1373" transform="translate(113.1455)">
			<g id="path1375">
				<rect x="2517.3" y="8.4" class="st0" width="16" height="273.2"/>
			</g>
		</g>
		<g id="g1377" transform="translate(398.8545,512)">
			<g id="path1379">
				<rect x="2384.1" y="-503.6" class="st0" width="16" height="273.2"/>
			</g>
		</g>
		<g id="g1381" transform="translate(337.5596)">
			<g id="path1383">
				<rect x="2412.6" y="8.4" class="st0" width="16" height="273.2"/>
			</g>
		</g>
		<g id="g1385" transform="translate(174.4404,466.519)">
			<g id="path1387">
				<rect x="2496.7" y="-441.8" class="st0" width="87" height="16"/>
			</g>
		</g>
	</g>
	<g id="g1389" transform="translate(174.4404,396.3462)">
		<g id="path1391">
			<rect x="2496.7" y="-334.2" class="st0" width="87" height="16"/>
		</g>
	</g>
	<g id="g1393" transform="translate(174.4404,326.1729)">
		<g id="path1395">
			<rect x="2496.7" y="-226.6" class="st0" width="87" height="16"/>
		</g>
	</g>
	<g id="g1397" transform="translate(174.4404,256)">
		<g id="path1399">
			<rect x="2496.7" y="-119" class="st0" width="87" height="16"/>
		</g>
	</g>
	<g id="g1401" transform="translate(174.4404,185.8271)">
		<g id="path1403">
			<rect x="2496.7" y="-11.3" class="st0" width="87" height="16"/>
		</g>
	</g>
	<g id="g1405" transform="translate(174.4404,115.6538)">
		<g id="path1407">
			<rect x="2496.7" y="96.3" class="st0" width="87" height="16"/>
		</g>
	</g>
	<g id="g1417" transform="translate(174.4404,45.481)">
		<g id="path1419">
			<rect x="2496.7" y="203.9" class="st0" width="87" height="16"/>
		</g>
	</g>
	<g id="g1421" transform="translate(398.8545,466.519)">
		<g id="path1423">
			<rect x="2392.1" y="-441.8" class="st0" width="24.9" height="16"/>
		</g>
	</g>
	<g id="g1425" transform="translate(398.8545,396.3462)">
		<g id="path1427">
			<rect x="2392.1" y="-334.2" class="st0" width="24.9" height="16"/>
		</g>
	</g>
	<g id="g1429" transform="translate(398.8545,326.1729)">
		<g id="path1431">
			<rect x="2392.1" y="-226.6" class="st0" width="24.9" height="16"/>
		</g>
	</g>
	<g id="g1433" transform="translate(398.8545,256)">
		<g id="path1435">
			<rect x="2392.1" y="-119" class="st0" width="24.9" height="16"/>
		</g>
	</g>
	<g id="g1437" transform="translate(398.8545,185.8271)">
		<g id="path1439">
			<rect x="2392.1" y="-11.3" class="st0" width="24.9" height="16"/>
		</g>
	</g>
	<g id="g1441" transform="translate(398.8545,115.6538)">
		<g id="path1443">
			<rect x="2392.1" y="96.3" class="st0" width="24.9" height="16"/>
		</g>
	</g>
	<g id="g1447">
		<g id="g1453" transform="translate(398.8545,45.481)">
			<g id="path1455">
				<rect x="2392.1" y="203.9" class="st0" width="24.9" height="16"/>
			</g>
		</g>
		<g id="g1457" transform="translate(66.4033,466.519)">
			<g id="path1459">
				<rect x="2547.1" y="-441.8" class="st0" width="24.9" height="16"/>
			</g>
		</g>
	</g>
	<g id="g1461" transform="translate(66.4033,396.3462)">
		<g id="path1463">
			<rect x="2547.1" y="-334.2" class="st0" width="24.9" height="16"/>
		</g>
	</g>
	<g id="g1465" transform="translate(66.4033,326.1729)">
		<g id="path1467">
			<rect x="2547.1" y="-226.6" class="st0" width="24.9" height="16"/>
		</g>
	</g>
	<g id="g1469" transform="translate(66.4033,256)">
		<g id="path1471">
			<rect x="2547.1" y="-119" class="st0" width="24.9" height="16"/>
		</g>
	</g>
	<g id="g1473" transform="translate(66.4033,185.8271)">
		<g id="path1475">
			<rect x="2547.1" y="-11.3" class="st0" width="24.9" height="16"/>
		</g>
	</g>
	<g id="g1477" transform="translate(66.4033,115.6538)">
		<g id="path1479">
			<rect x="2547.1" y="96.3" class="st0" width="24.9" height="16"/>
		</g>
	</g>
	<g id="g1483">
		<g id="g1489" transform="translate(66.4033,45.481)">
			<g id="path1491">
				<rect x="2547.1" y="203.9" class="st0" width="24.9" height="16"/>
			</g>
		</g>
	</g>
</g>
<g>
	<g id="g257_00000116197981869173538010000009278703297802865295_" transform="translate(429.2178,418.7583)">
		<g id="path259_00000036973238325257088480000003646322703433602697_">
			<path class="st0" d="M1543.6-314.8h-20c-2.1,0-3.8-1.7-3.8-3.8v-37.3c0-2.1,1.7-3.8,3.8-3.8s3.8,1.7,3.8,3.8v33.5h12.5v-44
				c0-2.1,1.7-3.8,3.8-3.8s3.8,1.7,3.8,3.8v47.7C1547.4-316.5,1545.7-314.8,1543.6-314.8z"/>
		</g>
	</g>
	<g id="g269_00000014636493203061564320000012833600129256331675_" transform="translate(485.7393,311.8311)">
		<g id="path271_00000021083295845993653080000006443051177435506075_">
			<path class="st0" d="M1495.6-191.2h-37c-2.1,0-3.8-1.7-3.8-3.8v-10.6c0-5.5,4.5-9.9,9.9-9.9h24.7c5.5,0,9.9,4.5,9.9,9.9v10.6
				C1499.4-192.9,1497.7-191.2,1495.6-191.2z M1462.4-198.8h29.5v-6.8c0-1.3-1.1-2.4-2.4-2.4h-24.7c-1.3,0-2.4,1.1-2.4,2.4V-198.8z"
				/>
		</g>
	</g>
	<g id="g273_00000147211745028077900190000010573617716485830330_" transform="translate(324.8965,334.0029)">
		<g id="path275_00000072278886086931257620000010328289433609753020_">
			<path class="st0" d="M1595.3-172.5h-20c-2.1,0-3.8-1.7-3.8-3.8v-52.1c0-2.1,1.7-3.8,3.8-3.8s3.8,1.7,3.8,3.8v48.3h12.5v-68.5
				c0-2.1,1.7-3.8,3.8-3.8s3.8,1.7,3.8,3.8v72.2C1599.1-174.2,1597.4-172.5,1595.3-172.5z"/>
		</g>
	</g>
	<g id="g277_00000034790255141708962120000015236056325182783142_" transform="translate(381.418,196.8042)">
		<g id="path279_00000049901427524855678590000010849447384223923376_">
			<path class="st0" d="M1547.3-18.1h-37c-2.1,0-3.8-1.7-3.8-3.8v-10.9c0-5.5,4.5-10,10-10h24.6c5.5,0,10,4.5,10,10v10.9
				C1551-19.8,1549.3-18.1,1547.3-18.1z M1514-25.7h29.5v-7.2c0-1.3-1.1-2.4-2.4-2.4h-24.6c-1.3,0-2.4,1.1-2.4,2.4V-25.7z"/>
		</g>
	</g>
	<g id="g289_00000109729255617501172570000008250508982042913956_" transform="translate(427.4033,457.9946)">
		<g id="path291_00000101792213977772852020000000815245501135015555_">
			<path class="st0" d="M1395.3-204.1c-1.4,0-2.7-0.8-3.4-2.1c-1.5-3-2.9-6.2-4.1-9.7c-0.7-2,0.3-4.1,2.3-4.9c2-0.7,4.1,0.3,4.9,2.3
				c1.2,3.2,2.4,6.2,3.8,8.9c0.9,1.9,0.2,4.1-1.7,5.1C1396.4-204.2,1395.8-204.1,1395.3-204.1z M1386-232.9c-1.8,0-3.3-1.2-3.7-3
				c-0.3-1.4-0.6-2.8-0.8-4.3c-0.3-2-0.7-3.9-0.9-5.9c-0.3-2.1,1.1-4,3.2-4.3c2.1-0.3,4,1.1,4.3,3.2c0.3,1.9,0.6,3.7,0.9,5.6
				c0.2,1.4,0.5,2.8,0.8,4.1c0.4,2.1-0.9,4-3,4.5C1386.5-232.9,1386.2-232.9,1386-232.9z M1382.7-262.9c-2.1,0-3.8-1.7-3.8-3.8
				c0-0.3,0-0.6,0-0.9c0-2.6,0.1-5.2,0.2-7.7c0-0.6,0.1-1.2,0.1-1.8c0.1-2.1,2-3.7,4-3.5c2.1,0.1,3.7,2,3.5,4c0,0.6-0.1,1.1-0.1,1.7
				c-0.1,2.4-0.2,4.8-0.2,7.3c0,0.3,0,0.6,0,0.8C1386.5-264.7,1384.9-262.9,1382.7-262.9C1382.8-262.9,1382.8-262.9,1382.7-262.9z
				 M1385.9-293c-0.3,0-0.5,0-0.8-0.1c-2-0.4-3.3-2.4-2.9-4.5c0.7-3.4,1.6-6.8,2.5-10.1c0.6-2,2.7-3.2,4.7-2.6
				c2,0.6,3.2,2.7,2.6,4.7c-0.9,3.1-1.7,6.3-2.4,9.5C1389.2-294.2,1387.6-293,1385.9-293z M1395.5-321.6c-0.5,0-1.1-0.1-1.6-0.4
				c-1.9-0.9-2.7-3.2-1.8-5.1c1.5-3.1,3.2-6.2,4.9-9.2c1.1-1.8,3.4-2.4,5.2-1.3c1.8,1.1,2.4,3.4,1.3,5.2c-1.6,2.8-3.2,5.7-4.6,8.6
				C1398.3-322.4,1397-321.6,1395.5-321.6z M1412-347c-0.9,0-1.7-0.3-2.4-0.9c-1.6-1.4-1.8-3.7-0.4-5.3c2.2-2.6,4.6-5.2,7-7.6
				c1.5-1.5,3.9-1.5,5.4,0c1.5,1.5,1.5,3.9,0,5.4c-2.3,2.3-4.6,4.8-6.6,7.2C1414.2-347.4,1413.1-347,1412-347z M1434-367.7
				c-1.1,0-2.3-0.5-3-1.5c-1.3-1.7-1-4,0.7-5.3c0.9-0.7,1.7-1.3,2.6-2c1.9-1.4,3.8-2.7,5.7-4.1c1.7-1.2,4.1-0.8,5.3,1
				c1.2,1.7,0.8,4.1-1,5.3c-1.9,1.3-3.7,2.6-5.5,3.9c-0.8,0.6-1.7,1.3-2.5,1.9C1435.6-368,1434.8-367.7,1434-367.7z M1459.3-384.4
				c-1.3,0-2.6-0.7-3.3-1.9c-1-1.8-0.4-4.1,1.4-5.2c2.9-1.7,6-3.4,9-4.9c1.9-1,4.1-0.3,5.1,1.6c1,1.9,0.3,4.1-1.6,5.1
				c-2.9,1.5-5.9,3.2-8.7,4.8C1460.6-384.5,1459.9-384.4,1459.3-384.4z M1486.4-398c-1.5,0-2.9-0.9-3.5-2.3c-0.8-1.9,0-4.1,2-5
				c3.1-1.4,6.3-2.7,9.5-3.9c1.9-0.8,4.1,0.2,4.9,2.1c0.8,1.9-0.2,4.1-2.1,4.9c-3.1,1.2-6.2,2.5-9.2,3.8
				C1487.4-398.1,1486.9-398,1486.4-398z M1514.8-408.4c-1.6,0-3.1-1.1-3.6-2.7c-0.6-2,0.5-4.1,2.5-4.7c3.3-1,6.6-1.9,9.9-2.7
				c2-0.5,4.1,0.7,4.6,2.7c0.5,2-0.7,4.1-2.7,4.6c-3.2,0.8-6.4,1.7-9.6,2.7C1515.5-408.5,1515.1-408.4,1514.8-408.4z"/>
		</g>
	</g>
	<g>
		<path class="st0" d="M1993.1,16.7c-0.8-0.7-1.9-1.1-3-0.9c-52.8,6.4-95.5,15.7-127,27.7l-0.4,0.1c0,0-0.1,0-0.1,0.1l-16.3,6.7
			c-35.5,15.6-61.2,34.5-81,59.4c-18.1,22.9-28.1,51.2-28.9,81.8c-0.7,28.8,6.4,51,17.2,75.4c0.6,1.3,0.7,1.7,0.8,2.1
			c0.3,0.7,0.5,1.3,1.3,3.1c0.6,1.3,2,2.1,3.4,2.1h171.6c1.6,0,3.1-1,3.6-2.6c0.5-1.5,0-3.3-1.3-4.2c-16.9-12.6-32.5-32.9-42.8-55.6
			l-6.1-16.1c-9.5-31.8-2.8-61.7,19.9-88.8c19.3-23.1,49.8-43.5,88.1-58.9c1.4-0.6,2.4-2,2.4-3.5v-25
			C1994.4,18.5,1993.9,17.4,1993.1,16.7z M1986.8,42.1c-27.3,11.3-64,30.6-88.7,60.1c-11.5,13.8-19.3,28.5-23.1,43.8
			c-4.1,16.7-3.5,34.2,1.8,52l6.5,17c9.1,20.1,22.3,38.4,36.9,51.7h-158.6c0,0,0,0,0,0c-0.2-0.5-0.4-1.2-1.1-2.7
			c-10.7-24.2-17.2-44.7-16.5-72.2c0.7-29,10.1-55.7,27.3-77.3c19-23.9,43.8-42.1,78.1-57.2l16.5-6.7c30.1-11.4,70.8-20.4,121-26.7
			V42.1z"/>
		<path d="M1930.7,276.3h-171.6c-2.2,0-4.2-1.3-5.2-3.3c-0.9-1.8-1.1-2.5-1.4-3.3c-0.1-0.4-0.2-0.7-0.8-1.9
			c-10.9-24.7-18.1-47.1-17.4-76.3c0.8-31.1,10.9-59.8,29.3-83c20-25.2,46-44.3,81.8-60l16.3-6.7c0.1,0,0.2-0.1,0.2-0.1l0.4-0.1
			c31.7-12,74.6-21.4,127.5-27.8c1.7-0.2,3.3,0.3,4.5,1.4l0,0c1.2,1.1,2,2.7,2,4.3v25c0,2.4-1.4,4.5-3.6,5.4
			c-38,15.3-68.2,35.5-87.3,58.3c-22.2,26.5-28.8,55.8-19.5,86.9l6,15.9c10.2,22.4,25.6,42.3,42.2,54.8c2,1.5,2.8,4.1,2,6.5
			C1935.4,274.7,1933.2,276.3,1930.7,276.3z M1863.6,45.4c-0.1,0-0.1,0.1-0.2,0.1l-16.4,6.7c-35.1,15.4-60.7,34.1-80.2,58.8
			c-17.9,22.5-27.7,50.4-28.5,80.6c-0.7,28.5,6.3,50.4,17,74.6c0.6,1.3,0.8,1.8,0.9,2.3c0.2,0.7,0.4,1.2,1.2,2.8
			c0.3,0.6,0.9,1,1.6,1h171.6c0.8,0,1.5-0.5,1.7-1.2c0.2-0.7,0-1.5-0.6-2c-17.2-12.8-33-33.4-43.5-56.4l0-0.1l-6.1-16.2
			c-9.7-32.5-2.9-63,20.3-90.6c19.5-23.3,50.3-43.9,88.9-59.5c0.7-0.3,1.1-0.9,1.1-1.7v-25c0-0.5-0.2-1-0.6-1.3l0,0
			c-0.4-0.3-0.9-0.5-1.4-0.4c-52.6,6.4-95.2,15.7-126.6,27.6L1863.6,45.4z M1925.3,268.7h-165.1l-0.5-1.4c-0.2-0.5-0.4-1.1-1-2.6
			c-10.8-24.4-17.4-45.2-16.7-73.1c0.7-29.4,10.3-56.5,27.7-78.5c19.2-24.2,44.3-42.6,78.9-57.8l16.5-6.8
			c30.3-11.5,71.2-20.5,121.5-26.8l2.2-0.3v21.8l-1.2,0.5c-26.6,10.9-63.4,30.2-88,59.5c-11.3,13.6-19,28-22.7,43
			c-4,16.3-3.5,33.4,1.7,50.8l6.4,16.9c9,19.7,21.9,37.8,36.4,51L1925.3,268.7z M1763,264.7h152.2c-13.4-13.2-25.3-30.3-33.7-48.9
			l0-0.1l-6.5-17.2c-5.4-18.1-6-36-1.8-53c3.9-15.6,11.8-30.6,23.5-44.6c24.7-29.6,61.4-49,88.3-60.2V26.1
			c-49,6.3-88.8,15.1-118.3,26.3l-16.4,6.7c-34,14.9-58.6,32.9-77.3,56.6c-16.8,21.2-26.1,47.5-26.8,76.1
			c-0.7,27.1,5.8,47.4,16.4,71.3C1762.6,263.8,1762.8,264.3,1763,264.7z"/>
	</g>
</g>
<g>
	<path d="M922.6,116c-3.2,0-5.8,2.6-5.8,5.8c0,3.2,2.6,5.8,5.8,5.8h52.3v5.8c0,3.2,2.6,5.8,5.8,5.8h34.8c3.2,0,5.8-2.6,5.8-5.8V40.5
		c0-3.2-2.6-5.8-5.8-5.8h-34.8c-3.2,0-5.8,2.6-5.8,5.8v5.8h-52.3c-3.2,0-5.8,2.6-5.8,5.8s2.6,5.8,5.8,5.8h52.3V116H922.6z
		 M986.4,46.3h23.2v81.3h-23.2V46.3z"/>
	<path d="M910.9,197.3c20.3,0,29.6-3.8,37.7-7.1c6.2-2.5,11-4.5,20.3-4.5c10.5,0,17,2.6,24,5.4c7.6,3.1,15.5,6.2,28.3,6.2
		c28.2,0,46.5-16,46.5-40.6c0-34.8,0-52.3-29-52.3c-3.2,0-5.8,2.6-5.8,5.8c0,3.2,2.6,5.8,5.8,5.8c16.1,0,17.4,3,17.4,40.6
		c0,26.2-24.4,29-34.8,29c-10.5,0-17-2.6-24-5.4c-7.6-3.1-15.5-6.2-28.3-6.2c-11.6,0-18.3,2.7-24.7,5.4c-7.5,3.1-15.3,6.3-33.4,6.3
		c-3.2,0-5.8,2.6-5.8,5.8C905.1,194.7,907.7,197.3,910.9,197.3z"/>
	<path d="M1038.7,69.6c30.2,0,63.9,31,63.9,75.5v23.2c0,17.4,11.7,29,29,29c3.2,0,5.8-2.6,5.8-5.8c0-3.2-2.6-5.8-5.8-5.8
		c-11.1,0-17.4-6.4-17.4-17.4V145c0-52.1-39-87.1-75.5-87.1c-3.2,0-5.8,2.6-5.8,5.8C1032.9,67,1035.5,69.6,1038.7,69.6z"/>
	<path d="M1131.6,214.7c-10.7,0-18.7-2.7-27.2-5.5c-9-3-18.3-6.1-30.9-6.1c-12.7,0-20.5,3.1-28.1,6.2c-6.9,2.8-13.5,5.4-24.2,5.4
		c-10.5,0-17-2.6-24-5.4c-7.6-3.1-15.5-6.2-28.3-6.2c-11.6,0-18.3,2.7-24.7,5.4c-7.5,3.1-15.3,6.3-33.4,6.3c-3.2,0-5.8,2.6-5.8,5.8
		c0,3.2,2.6,5.8,5.8,5.8c20.3,0,29.6-3.8,37.7-7.1c6.2-2.5,11-4.5,20.3-4.5c10.5,0,17,2.6,24,5.4c7.6,3.1,15.5,6.2,28.3,6.2
		c13,0,21.2-3.3,28.5-6.3c6.8-2.8,13.3-5.4,23.7-5.4c10.7,0,18.7,2.7,27.2,5.5c9,3,18.3,6.1,30.9,6.1c3.2,0,5.8-2.6,5.8-5.8
		C1137.4,217.3,1134.8,214.7,1131.6,214.7z"/>
	<path d="M1131.6,243.8c-10.7,0-18.7-2.7-27.2-5.5c-9-3-18.3-6.1-30.9-6.1c-12.7,0-20.5,3.1-28.1,6.2c-6.9,2.8-13.5,5.4-24.2,5.4
		c-10.5,0-17-2.6-24-5.4c-7.6-3.1-15.5-6.2-28.3-6.2c-11.6,0-18.3,2.7-24.7,5.4c-7.5,3.1-15.3,6.3-33.4,6.3c-3.2,0-5.8,2.6-5.8,5.8
		c0,3.2,2.6,5.8,5.8,5.8c20.3,0,29.6-3.8,37.7-7.1c6.2-2.5,11-4.5,20.3-4.5c10.5,0,17,2.6,24,5.4c7.6,3.1,15.5,6.2,28.3,6.2
		c13,0,21.2-3.3,28.5-6.3c6.8-2.8,13.3-5.4,23.7-5.4c10.7,0,18.7,2.7,27.2,5.5c9,3,18.3,6.1,30.9,6.1c3.2,0,5.8-2.6,5.8-5.8
		C1137.4,246.3,1134.8,243.8,1131.6,243.8z"/>
</g>
<g>
	<path class="st0" d="M242.9,74.1V52.2h8.3c3.9,0,7-3.1,7-7v-0.4h22c1.9,0,3.6-0.6,5-1.6c0.2-0.2,0.5-0.4,0.7-0.6
		c0,0,0.1-0.1,0.1-0.2c1.2-1.2,2-2.9,2-4.7V14.4c0-3.9-3.5-7-7.8-7h-22V7c0-3.9-3.1-7-7-7h-54c-3.9,0-7,3.1-7,7v0.4h-8h-50.8
		c0,0,0,0,0,0H70.4c-4.3,0-7.8,3.2-7.8,7v23.4c0,3.9,3.5,7,7.8,7h20.2v14.6L74.9,76.2H71c-3.7,0-6.7,3-6.7,6.7v19.9
		c0,3.7,3,6.8,6.7,6.8h47.7c3.7,0,6.8-3,6.8-6.8V82.9c0-3.7-3-6.7-6.8-6.7h-3.9L99.1,59.5V44.8h32.1c0,0,0,0,0,0s0,0,0,0h50.8h8v0.4
		c0,3.9,3.1,7,7,7h8.3v21.9c0,0,0,0,0,0c0,0,0,0,0,0v50.7v50.7V222h-13.3c-5.9,0-10.7,4.8-10.7,10.7v27.7h-4.7
		c-8.2,0-14.9,6.7-14.9,14.9v7.7c0,3.9,3.2,7.1,7.1,7.1h111.7c3.9,0,7.1-3.2,7.1-7.1v-7.7c0-8.2-6.7-14.9-14.9-14.9h-4.7v-27.7
		c0-5.9-4.8-10.7-10.7-10.7h-14.6v-46.5v-50.7c0,0,0,0,0,0c0,0,0,0,0,0V74.1z M117,101H72.8V84.7h4c0,0,0,0,0,0c0,0,0,0,0,0H113
		c0,0,0,0,0,0c0,0,0,0,0,0h4V101z M86.6,76.2l8.3-8.8l8.3,8.8H86.6z M234.4,124.8C234.4,124.8,234.4,124.8,234.4,124.8v1.8
		l-18.8-19.3l18.8-19.3V124.8C234.4,124.8,234.4,124.8,234.4,124.8z M234.4,175.5v10.5l-18.8-19.3l18.8-19.3V175.5z M213.9,74.1
		C213.9,74.1,213.9,74.1,213.9,74.1V58.4l18.8,19.3l-18.8,19.3V74.1C213.9,74.1,213.9,74.1,213.9,74.1z M213.9,124.8v-7l18.8,19.3
		l-18.8,19.3V124.8z M213.9,177.3l18.8,19.3l-18.8,19.3V177.3z M234.4,67.2l-14.7-15h14.7V67.2z M258.2,21.7l15.1,14.6h-15.1V21.7z
		 M279.4,30.5l-15.1-14.6l15.1,0V30.5z M131.3,36.3C131.3,36.3,131.3,36.3,131.3,36.3C131.3,36.3,131.3,36.3,131.3,36.3l-15.8,0
		l19.3-18.8l19.3,18.8H131.3z M105,34.6L85.7,15.9h38.6L105,34.6z M145.3,15.9h36.8h1.8l-19.3,18.8L145.3,15.9z M71.1,15.9h2.4
		l21,20.4l-23.4,0V15.9z M182.1,36.3h-7l15.1-14.6v14.6H182.1z M198.6,8.5h51.1v35.2h-11h-29h-11V8.5z M279.2,275.2v6.3H170.3v-6.3
		c0-3.5,2.9-6.4,6.4-6.4h96.2C276.4,268.9,279.2,271.7,279.2,275.2z M259.7,232.7v27.7h-69.8v-27.7c0-1.2,1-2.2,2.2-2.2h17.6
		c0,0,0,0,0,0c0,0,0,0,0,0h29h18.9C258.7,230.5,259.7,231.5,259.7,232.7z M219.7,222l14.7-15v15H219.7z"/>
	<path class="st0" d="M18.7,205.2v17.3c0,3.5,2.9,6.4,6.4,6.4h52.2c3.5,0,6.3-2.8,6.3-6.4v-17.3c0-3.5-2.8-6.4-6.3-6.4H25
		C21.5,198.8,18.7,201.7,18.7,205.2z M75,220.4H55.4v-13H75V220.4z M27.2,207.3h19.7v13H27.2V207.3z"/>
	<path class="st0" d="M77.2,241.6H25c-3.5,0-6.4,2.8-6.4,6.4v17.3c0,3.5,2.9,6.4,6.4,6.4h52.2c3.5,0,6.3-2.8,6.3-6.4v-17.3
		C83.5,244.4,80.7,241.6,77.2,241.6z M27.2,250.1h19.7v13H27.2V250.1z M75,263.1H55.4v-13H75V263.1z"/>
	<path class="st0" d="M96.5,177.6H55.4V98.3c0-3.1-2.4-5.6-5.5-5.6H6.3c-3.5,0-6.3,3-6.3,6.9v183.5c0,3.9,2.7,6.9,6.3,6.9H96
		c3.5,0,6.3-3.1,6.3-6.9v-100C102.2,179.8,99.3,177.6,96.5,177.6z M93.7,281.6H8.5V101.2h38.4v10.7H32.5c-2.3,0-4.2,1.9-4.2,4.2
		c0,2.3,1.9,4.2,4.2,4.2h14.4v15.4H34c-2.3,0-4.2,1.9-4.2,4.2s1.9,4.2,4.2,4.2h12.9v37.5c0,2.3,1.9,4.2,4.2,4.2h42.6V281.6z"/>
</g>
<path class="st0" d="M-632.5,287.6h-72.4l-45.5-93v-13.4h78.4v9.6h-4.8c-2.7,0-4.8,2.2-4.8,4.8c0,2.7,2.2,4.8,4.8,4.8h4.8v9.6h-4.8
	c-2.7,0-4.8,2.2-4.8,4.8c0,2.7,2.2,4.8,4.8,4.8h19.3c2.7,0,4.8-2.2,4.8-4.8c0-2.7-2.2-4.8-4.8-4.8h-4.8v-9.6h4.8
	c2.7,0,4.8-2.2,4.8-4.8c0-2.7-2.2-4.8-4.8-4.8h-4.8c0-5.2,0-17.5,0-22.7c0-7.9-4.6-15.3-11.7-18.8l-76.3-37.3v-11.5h24.1h4.3h22.5
	h27.4v9.6h-4.8c-2.7,0-4.8,2.2-4.8,4.8c0,2.7,2.2,4.8,4.8,4.8h19.3c2.7,0,4.8-2.2,4.8-4.8c0-2.7-2.2-4.8-4.8-4.8h-4.8V95.8
	c0,0,0,0,0,0v-8.2c0-7.9-4.6-15.3-11.7-18.8L-751.6,31L-767-2.4l31,0c0.9,0,1.6,0.7,1.6,1.6l0,8.1h-4.8c-2.7,0-4.8,2.2-4.8,4.8
	c0,2.7,2.2,4.8,4.8,4.8h19.3c2.7,0,4.8-2.2,4.8-4.8c0-2.7-2.2-4.8-4.8-4.8h-4.8l0-8.1c0-6.2-5.1-11.2-11.3-11.2l-99.7,0
	c-6.2,0-11.3,5-11.3,11.3v8h-4.8c-2.7,0-4.8,2.2-4.8,4.8c0,2.7,2.2,4.8,4.8,4.8h19.3c2.7,0,4.8-2.2,4.8-4.8c0-2.7-2.2-4.8-4.8-4.8
	h-4.8v-8c0-0.9,0.7-1.6,1.6-1.6l31,0L-820.1,31l-31,15.2l-20.2,9.9l-26.2,12.8c-7.1,3.5-11.7,10.9-11.7,18.8v8.2v0v14.5h-4.8
	c-2.7,0-4.8,2.2-4.8,4.8c0,2.7,2.2,4.8,4.8,4.8h19.3c2.7,0,4.8-2.2,4.8-4.8c0-2.7-2.2-4.8-4.8-4.8h-4.8v-9.6h78.4v11.5l-76.3,37.3
	c-7.1,3.5-11.7,10.9-11.7,18.8v22.7h-4.8c-2.7,0-4.8,2.2-4.8,4.8c0,2.7,2.2,4.8,4.8,4.8h4.8v9.6h-4.8c-2.7,0-4.8,2.2-4.8,4.8
	c0,2.7,2.2,4.8,4.8,4.8h19.3c2.7,0,4.8-2.2,4.8-4.8c0-2.7-2.2-4.8-4.8-4.8h-4.8v-9.6h4.8c2.7,0,4.8-2.2,4.8-4.8
	c0-2.7-2.2-4.8-4.8-4.8h-4.8v-9.6h28h6.8h22.6h20.9v13.4l-45.5,93h-72.4c-6.2,0-11.3,5-11.3,11.3v7.1c0,6.2,5,11.3,11.3,11.3h306.7
	c6.2,0,11.3-5,11.3-11.3v-7.1C-621.3,292.6-626.3,287.6-632.5,287.6z M-750.4,42.3l72.1,35.2c3.8,1.9,6.3,5.8,6.3,10.1V91h-22.7
	h-4.7H-722h-0.5h-27.9V42.3z M-750.4,122.9l72.1,35.2c3.8,1.9,6.3,5.8,6.3,10.1v3.4h-78.4V122.9z M-821.3,91h-78.4v-3.4
	c0-4.3,2.5-8.2,6.3-10.1l26.2-12.8l20.2-9.9l25.6-12.5V91z M-715.7,287.6h-11.1l-19-21l-15.1-16.7l-18.4-20.3l22.9-25.3
	L-715.7,287.6z M-768.1,256.3l15.1,16.7l13.2,14.5h-92.1l46.1-50.9L-768.1,256.3z M-805.6,200.5h39.5l-19.8,21.8L-805.6,200.5z
	 M-766.9,171.6h-38v0l19-19L-766.9,171.6z M-804.8,120h38l-19,19L-804.8,120z M-779,145.8l19-19v38L-779,145.8z M-760.1,84.2l-19-19
	l19-19V84.2z M-766.9,91h-38l19-19L-766.9,91z M-804.8,39.4h38l-19,19L-804.8,39.4z M-794.1-2.4l16.5,0l14.8,32.1h-46.2L-794.1-2.4z
	 M-811.7,46.2l19,19l-19,19V46.2z M-811.7,100.6h51.6v9.7h-51.6V100.6z M-811.7,126.8l19,19l-19,19V126.8z M-811.7,181.2h51.6v9.7
	h-51.6V181.2z M-842.2,171.6h-22.6h-34.8v-3.4c0-4.3,2.5-8.2,6.3-10.1l72-35.2v48.7H-842.2z M-815.3,204.2l22.9,25.3l-52.6,58.1
	h-11.1L-815.3,204.2z M-630.9,305.9c0,0.9-0.7,1.6-1.6,1.6h-306.7c-0.9,0-1.6-0.7-1.6-1.6v-7.1c0-0.9,0.7-1.6,1.6-1.6h306.7
	c0.9,0,1.6,0.7,1.6,1.6V305.9z"/>
<g>
</g>
<g>
</g>
<g>
</g>
<g>
</g>
<g>
</g>
<g>
</g>
</svg>
