<?xml version="1.0" encoding="utf-8"?>
<!-- Generator: Adobe Illustrator 26.3.0, SVG Export Plug-In . SVG Version: 6.00 Build 0)  -->
<svg version="1.1" id="Layer_1" xmlns="http://www.w3.org/2000/svg" xmlns:xlink="http://www.w3.org/1999/xlink" x="0px" y="0px"
	 viewBox="0 0 365.93 365.93" style="enable-background:new 0 0 365.93 365.93;" xml:space="preserve">
<style type="text/css">
	.st0{display:none;}
	.st1{display:inline;}
	.st2{clip-path:url(#SVGID_00000163033019955933549460000000452189599693447308_);fill:#F0953E;}
	.st3{clip-path:url(#SVGID_00000003069494852977443910000008351572127862734500_);fill:#3B8916;}
	.st4{clip-path:url(#SVGID_00000019673191913083215980000008309996588860874935_);fill:#FFFFFF;}
	.st5{clip-path:url(#SVGID_00000151522950851918141830000015675077143683094963_);fill:#16007E;}
	.st6{clip-path:url(#SVGID_00000081641074523403723980000007557167694084336263_);fill:#FFFFFF;}
	.st7{clip-path:url(#SVGID_00000147912873347627670720000018079436488407873941_);fill:#16007E;}
	.st8{fill:#FDFDFD;}
	
		.st9{clip-path:url(#SVGID_00000132795793431883516010000008387258833661275542_);fill-rule:evenodd;clip-rule:evenodd;fill:#9A2C31;}
</style>
<g class="st0">
	<g class="st1">
		<defs>
			<rect id="SVGID_1_" y="0" width="365.93" height="365.93"/>
		</defs>
		<clipPath id="SVGID_00000067218593184112853280000017593730931077236890_">
			<use xlink:href="#SVGID_1_"  style="overflow:visible;"/>
		</clipPath>
		<path style="clip-path:url(#SVGID_00000067218593184112853280000017593730931077236890_);fill:#F0953E;" d="M182.97,0
			C103.34,0,35.61,50.87,10.46,121.88h345.01C330.33,50.87,262.59,0,182.97,0"/>
	</g>
	<g class="st1">
		<defs>
			<rect id="SVGID_00000049194264349029614850000010917888869914945202_" y="0" width="365.93" height="365.93"/>
		</defs>
		<clipPath id="SVGID_00000178920996897332163030000005763587002037034640_">
			<use xlink:href="#SVGID_00000049194264349029614850000010917888869914945202_"  style="overflow:visible;"/>
		</clipPath>
		<path style="clip-path:url(#SVGID_00000178920996897332163030000005763587002037034640_);fill:#3B8916;" d="M10.49,244.12
			c25.17,70.97,92.88,121.81,172.48,121.81s147.31-50.84,172.48-121.81H10.49z"/>
	</g>
	<g class="st1">
		<defs>
			<rect id="SVGID_00000116226362275503204600000007376133395028423564_" y="0" width="365.93" height="365.93"/>
		</defs>
		<clipPath id="SVGID_00000085973011714226455220000007175889178483349651_">
			<use xlink:href="#SVGID_00000116226362275503204600000007376133395028423564_"  style="overflow:visible;"/>
		</clipPath>
		<path style="clip-path:url(#SVGID_00000085973011714226455220000007175889178483349651_);fill:#FFFFFF;" d="M365.93,182.97
			c0-21.42-3.69-41.98-10.46-61.09H10.46C3.69,140.98,0,161.54,0,182.97c0,21.45,3.7,42.03,10.49,61.16h344.96
			C362.23,225,365.93,204.42,365.93,182.97"/>
	</g>
	<g class="st1">
		<defs>
			<rect id="SVGID_00000165232082585003474540000016430423002626145183_" y="0" width="365.93" height="365.93"/>
		</defs>
		<clipPath id="SVGID_00000140016885283158118410000006501479876911264929_">
			<use xlink:href="#SVGID_00000165232082585003474540000016430423002626145183_"  style="overflow:visible;"/>
		</clipPath>
		<path style="clip-path:url(#SVGID_00000140016885283158118410000006501479876911264929_);fill:#16007E;" d="M182.97,128.11
			c-30.3,0-54.9,24.53-54.9,54.82s24.6,54.9,54.9,54.9c30.29,0,54.9-24.6,54.9-54.9C237.83,152.63,213.26,128.11,182.97,128.11
			 M182.93,133.43l-1.39,27.6l1.49,15.7l1.39-15.7l-1.39-27.6c1.46,0,2.85,0.07,4.24,0.22c0,0.07-0.07,0.07-0.07,0.15
			c0,1.32,1.02,2.41,2.26,2.41c1.17,0,2.12-0.95,2.23-2.04c1.39,0.29,2.7,0.51,4.05,0.95l-8.47,26.28l-2.7,15.55l5.47-14.89
			l5.84-26.94c1.32,0.44,2.63,0.8,3.94,1.31c-0.07,0.22-0.18,0.51-0.18,0.8c0,1.24,1.02,2.26,2.3,2.26c0.88,0,1.75-0.58,2.08-1.39
			c1.24,0.58,2.45,1.24,3.69,1.97l-15,23.07l-6.64,14.45l9.16-12.92l12.59-24.53c1.13,0.65,2.3,1.39,3.47,2.12
			c-0.33,0.44-0.51,0.88-0.51,1.46c0,1.24,1.02,2.26,2.3,2.26c0.73,0,1.39-0.29,1.79-0.95c1.1,0.95,2.12,1.9,3.07,2.85l-20.44,18.47
			l-10.11,12.19l12.15-10.07l18.51-20.51c0.95,1.02,1.9,1.97,2.77,3.07c-0.55,0.44-0.8,1.1-0.8,1.75c0,1.24,1.02,2.26,2.23,2.26
			c0.55,0,0.95-0.15,1.35-0.44c0.84,1.17,1.57,2.34,2.23,3.5l-24.53,12.56l-12.92,9.2l14.35-6.57l23.18-15.11
			c0.77,1.31,1.39,2.7,2.01,3.87c-0.77,0.37-1.39,1.24-1.39,2.19c0,1.24,1.02,2.26,2.23,2.26c0.36,0,0.62-0.07,0.87-0.22
			c0.44,1.31,0.84,2.55,1.17,3.87l-26.97,5.69l-14.78,5.48l15.55-2.63l26.28-8.39c0.33,1.17,0.66,2.63,0.91,3.94
			c-1.13,0.15-1.97,1.02-1.97,2.26c0,1.24,1.06,2.26,2.3,2.26h0.22c0.15,1.31,0.15,2.77,0.15,4.09l-27.52-1.31l-15.77,1.39
			l15.77,1.53l27.52-1.46c0,1.46,0,2.85-0.15,4.16h-0.22c-1.24,0-2.3,1.1-2.3,2.26s0.84,2.04,1.93,2.26
			c-0.26,1.39-0.55,2.7-0.88,4.01l-9.38-2.99l-16.9-5.48l-15.55-2.63h0.07h-0.07l14.78,5.48l26.97,5.77
			c-0.33,1.31-0.73,2.7-1.24,3.87c-0.07,0-0.22-0.07-0.29-0.07h-0.51c-1.28,0-2.3,0.95-2.3,2.26c0,0.36,0.07,0.58,0.22,0.88
			c0.11,0.37,0.33,0.66,0.62,0.88c0.07,0,0.11,0.07,0.18,0.07c0.07,0.07,0.15,0.15,0.22,0.15c0.04,0,0.11,0.07,0.15,0.15
			c-0.58,1.24-1.24,2.48-1.93,3.65l-23.14-14.97h-0.04l-14.35-6.57h0.07l7.52,5.26l5.33,3.79l24.53,12.56
			c-0.73,1.24-1.46,2.48-2.26,3.58c-0.37-0.22-0.84-0.37-1.31-0.37c-1.28,0-2.26,0.95-2.26,2.19c0,0.73,0.29,1.39,0.84,1.75
			c-0.91,1.02-1.82,2.04-2.77,2.99l-18.51-20.44l-12.12-10.07l10.07,12.19l20.44,18.47c-0.95,1.02-1.9,1.82-2.96,2.7
			c-0.44-0.36-0.91-0.51-1.42-0.51c-1.24,0-2.26,1.1-2.26,2.26c0,0.44,0.07,0.73,0.18,1.02c-1.2,0.73-2.45,1.53-3.65,2.34
			l-12.59-24.53l-9.16-12.99l6.61,14.38l15,23.21c-1.2,0.66-2.41,1.31-3.65,1.9c-0.33-0.88-1.13-1.39-2.04-1.39
			c-1.28,0-2.3,1.1-2.3,2.26c0,0.29,0.07,0.58,0.15,0.88c-1.31,0.44-2.59,0.88-3.94,1.17l-5.84-27.01l-5.47-14.67v-0.07l2.7,15.55
			l8.47,26.28c-1.35,0.36-2.7,0.73-4.05,0.87c-0.18-1.02-1.13-1.9-2.23-1.9c-1.31,0-2.26,1.02-2.26,2.19v0.29
			c-1.39,0.15-2.77,0.22-4.16,0.22l1.39-27.52l-1.46-15.77l-1.42,15.77l1.39,27.52c-1.46,0-2.81-0.07-4.24-0.22v-0.29
			c0-1.17-1.02-2.19-2.3-2.19c-1.1,0-2.04,0.87-2.23,1.9c-1.35-0.22-2.66-0.51-3.94-0.87l8.47-26.28l2.63-15.47l-5.47,14.67
			l-5.77,27.01c-1.31-0.29-2.63-0.73-3.98-1.17c0.11-0.29,0.18-0.58,0.18-0.88c0-1.17-1.02-2.26-2.23-2.26
			c-0.95,0-1.75,0.58-2.15,1.39c-1.21-0.59-2.45-1.24-3.65-1.9l15-23.21l6.57-14.38l-9.13,12.92l-12.56,24.6
			c-1.2-0.8-2.41-1.53-3.54-2.34c0.25-0.29,0.44-0.73,0.44-1.24c0-1.31-1.02-2.34-2.22-2.34c-0.77,0-1.39,0.37-1.75,0.88
			c-1.1-0.95-2.12-1.75-3.07-2.77l20.51-18.47l10.08-12.19l-12.15,10.07l-18.51,20.44c-1.02-0.95-1.93-2.04-2.85-2.99
			c0.51-0.44,0.88-1.1,0.88-1.83c0-1.24-1.02-2.19-2.26-2.19c-0.51,0-0.99,0.15-1.35,0.37c-0.8-1.1-1.53-2.26-2.23-3.5l24.6-12.63
			l12.81-8.98l-14.35,6.57l-23.14,14.97c-0.69-1.17-1.24-2.34-1.86-3.65c0.87-0.29,1.46-1.1,1.46-2.04c0-1.31-0.99-2.34-2.3-2.34
			c-0.33,0-0.66,0.07-0.95,0.22c-0.44-1.24-0.88-2.63-1.28-4.01l27.01-5.77l14.86-5.48l-15.62,2.63l-26.28,8.47
			c-0.36-1.31-0.62-2.63-0.91-4.09c1.13-0.15,1.97-1.02,1.97-2.19c0-1.24-1.02-2.26-2.26-2.26h-0.26c-0.07-1.31-0.18-2.7-0.18-4.16
			l27.56,1.46l15.73-1.53l-15.73-1.39l-27.56,1.31c0-1.31,0.11-2.77,0.18-4.09h0.4c1.24,0,2.26-0.95,2.26-2.26
			c0-1.24-0.91-2.12-2.12-2.26c0.29-1.31,0.55-2.77,0.91-3.94l26.28,8.39l15.62,2.63l-14.86-5.48l-27.01-5.76
			c0.4-1.39,0.84-2.7,1.28-3.94c0.22,0.07,0.58,0.15,0.84,0.15c1.28,0,2.26-1.02,2.26-2.26c0-0.95-0.58-1.75-1.35-2.04
			c0.58-1.32,1.21-2.56,1.9-3.8l23.14,15.11l14.42,6.57l-12.88-9.2l-24.6-12.56c0.69-1.17,1.46-2.34,2.26-3.58
			c0.33,0.37,0.88,0.51,1.35,0.51c1.21,0,2.26-1.02,2.26-2.26c0-0.66-0.36-1.31-0.84-1.83c0.84-1.02,1.75-1.97,2.74-2.99
			l18.51,20.51l12.19,10.07l-10.08-12.19L148,147.89c1.02-0.95,2.01-1.9,3.07-2.77c0.36,0.51,1.02,0.88,1.75,0.88
			c1.28,0,2.3-1.02,2.3-2.34c0-0.51-0.22-0.95-0.47-1.39c1.17-0.66,2.3-1.46,3.5-2.12l12.56,24.53l9.13,12.85l-6.57-14.38l-15-23.07
			c1.2-0.73,2.41-1.39,3.61-1.97c0.37,0.88,1.17,1.46,2.12,1.46c1.28,0,2.26-1.02,2.26-2.19c0-0.37-0.07-0.73-0.15-0.95
			c1.28-0.51,2.67-0.88,3.98-1.31l5.84,26.94l5.48,14.89l-2.66-15.55l-8.47-26.28c1.31-0.44,2.63-0.66,4.01-0.95
			c0.15,1.1,1.09,1.97,2.23,1.97c1.28,0,2.3-1.02,2.3-2.34v-0.22C180.16,133.43,181.54,133.43,182.93,133.43"/>
	</g>
	<g class="st1">
		<defs>
			<rect id="SVGID_00000048494479312499090000000011703480817773400733_" y="0" width="365.93" height="365.93"/>
		</defs>
		<clipPath id="SVGID_00000008854763821368048480000016558754984036965505_">
			<use xlink:href="#SVGID_00000048494479312499090000000011703480817773400733_"  style="overflow:visible;"/>
		</clipPath>
		<path style="clip-path:url(#SVGID_00000008854763821368048480000016558754984036965505_);fill:#FFFFFF;" d="M183.04,174.75
			c4.53,0,8.18,3.72,8.18,8.18c0,4.52-3.65,8.25-8.18,8.25c-4.6,0-8.25-3.72-8.25-8.25C174.79,178.48,178.44,174.75,183.04,174.75"
			/>
	</g>
	<g class="st1">
		<defs>
			<rect id="SVGID_00000063594248082581987550000017894672273075649709_" y="0" width="365.93" height="365.93"/>
		</defs>
		<clipPath id="SVGID_00000114069630322322271610000007113400538356639678_">
			<use xlink:href="#SVGID_00000063594248082581987550000017894672273075649709_"  style="overflow:visible;"/>
		</clipPath>
		<path style="clip-path:url(#SVGID_00000114069630322322271610000007113400538356639678_);fill:#16007E;" d="M183.04,176.65
			c3.47,0,6.31,2.78,6.31,6.28c0,3.58-2.85,6.42-6.31,6.42c-3.54,0-6.42-2.85-6.42-6.42C176.62,179.43,179.5,176.65,183.04,176.65"
			/>
	</g>
</g>
<rect x="-1" y="0" class="st8" width="365.93" height="365.93"/>
<g>
	<g>
		<defs>
			<rect id="SVGID_00000175291312519050244880000005876071118107903422_" x="-168.01" y="-27.76" width="701.95" height="421.44"/>
		</defs>
		<clipPath id="SVGID_00000145039963021133826730000013137611206881893256_">
			<use xlink:href="#SVGID_00000175291312519050244880000005876071118107903422_"  style="overflow:visible;"/>
		</clipPath>
		
			<path style="clip-path:url(#SVGID_00000145039963021133826730000013137611206881893256_);fill-rule:evenodd;clip-rule:evenodd;fill:#9A2C31;" d="
			M182.91,57.25c67.9,0,122.92,56.29,122.92,125.71c0,69.43-55.02,125.71-122.92,125.71c-67.79,0-122.81-56.29-122.81-125.71
			C60.1,113.54,115.12,57.25,182.91,57.25"/>
	</g>
</g>
</svg>
