<?xml version="1.0" encoding="UTF-8"?><svg id="Layer_1" xmlns="http://www.w3.org/2000/svg" xmlns:xlink="http://www.w3.org/1999/xlink" viewBox="0 0 483.41 480"><defs><style>.cls-1{clip-path:url(#clippath);}.cls-2{fill:none;}</style><clipPath id="clippath"><rect class="cls-2" width="483.41" height="480"/></clipPath></defs><path d="M212.34,49.71l6.11-33.71h46.5l6.11,33.71,60.07,19.31,24.99-23.72,37.56,27-15.08,30.81,37.21,50.64,33.88-4.62,14.32,43.57-30.18,15.97v62.67l30.18,15.97-14.32,43.57-33.88-4.62-37.21,50.64,15.08,30.81-37.56,27-24.99-23.72-60.07,19.31-6.11,33.71h-46.5l-6.11-33.71-60.06-19.31-24.99,23.72-37.56-27,15.08-30.81-37.21-50.64-33.88,4.62-14.32-43.57,30.18-15.97v-62.67l-30.18-15.97,14.32-43.57,33.88,4.62,37.21-50.64-15.08-30.8,37.56-27,24.99,23.72,60.07-19.31ZM205.1,0l-6.79,37.41-41.9,13.47-27.71-26.3-59.28,42.62,16.77,34.24-25.84,35.17-37.66-5.14L0,200.52l33.59,17.78v43.4L0,279.48l22.69,69.05,37.66-5.14,25.84,35.17-16.77,34.24,59.28,42.62,27.71-26.3,41.9,13.47,6.79,37.41h73.22l6.79-37.41,41.9-13.47,27.71,26.3,59.28-42.62-16.76-34.24,25.84-35.17,37.66,5.14,22.69-69.05-33.59-17.78v-43.4l33.59-17.78-22.69-69.05-37.66,5.14-25.84-35.17,16.76-34.24-59.28-42.62-27.71,26.3-41.9-13.47L278.32,0h-73.22Z"/><g class="cls-1"><path d="M241.71,72c-92.64,0-168,75.36-168,168s75.36,168,168,168,168-75.36,168-168S334.34,72,241.71,72M89.71,240c0-10.76,1.14-21.48,3.4-32h61.97c6.37,.02,12.48-2.51,16.97-7.03l14.63-14.63c1.5-1.51,3.53-2.35,5.66-2.34h30.06l-22.34,22.34c-9.75,9.75-9.75,25.56,0,35.31,9.75,9.75,25.56,9.75,35.31,0l5.37-5.37c9.37-9.37,24.57-9.37,33.94,0h0l39.99,39.99c-1.18,.82-2.29,1.74-3.3,2.76l-13.66,13.66-42.34-42.34-11.31,11.31,34.34,34.34h-33.37l-21.66-21.66-11.31,11.31,10.34,10.34h-30.06c-2.12,0-4.16-.84-5.66-2.34l-14.63-14.63c-4.49-4.52-10.6-7.05-16.97-7.03h-61.97c-2.26-10.52-3.4-21.24-3.4-32m152,152c-67.05,0-124.09-43.64-144.23-104h57.6c2.12,0,4.16,.84,5.66,2.34l14.63,14.63c4.49,4.52,10.6,7.05,16.97,7.03h98.75c6.37,.02,12.48-2.51,16.97-7.03l14.63-14.63c1.5-1.51,3.53-2.35,5.66-2.34h57.6c-20.14,60.36-77.18,104-144.23,104m152-152c0,10.76-1.14,21.48-3.4,32h-57.29l-47.03-47.03c-15.62-15.62-40.95-15.62-56.57,0l-5.37,5.37c-3.5,3.5-9.18,3.5-12.69,0-3.5-3.5-3.5-9.18,0-12.69l33.66-33.66h46.06c2.12,0,4.16,.84,5.66,2.34l14.63,14.63c4.49,4.52,10.6,7.05,16.97,7.03h61.97c2.26,10.52,3.4,21.24,3.4,32m-65.37-48c-2.12,0-4.16-.84-5.66-2.34l-14.63-14.63c-4.49-4.52-10.6-7.05-16.97-7.03h-98.75c-6.37-.02-12.48,2.51-16.97,7.03l-14.63,14.63c-1.5,1.51-3.53,2.35-5.66,2.34h-57.6c20.14-60.36,77.18-104,144.23-104s124.09,43.64,144.23,104h-57.6Z"/><path d="M241.71,360c-42.86-.09-82.44-22.94-103.95-60l-13.85,8.01c37.58,65.03,120.74,87.32,185.81,49.79l-8.01-13.85c-18.24,10.52-38.93,16.06-59.99,16.05"/><path d="M316.7,333.68l10.01,12.48c4.87-3.9,9.46-8.14,13.76-12.67l-11.62-11c-3.79,4-7.85,7.74-12.15,11.18"/><path d="M241.71,104c-20.62-.06-40.98,4.62-59.51,13.68l7.01,14.38c16.35-7.98,34.3-12.11,52.5-12.06,42.86,.09,82.44,22.94,103.95,60.01l13.85-8.01c-24.38-42.01-69.24-67.9-117.8-67.99"/><path d="M148.21,141.24l11,11.62c4.67-4.42,9.69-8.47,15-12.09l-9.01-13.22c-6.02,4.11-11.7,8.69-17,13.7"/></g></svg>