<?xml version="1.0" encoding="utf-8"?>
<!-- Generator: Adobe Illustrator 26.3.0, SVG Export Plug-In . SVG Version: 6.00 Build 0)  -->
<svg version="1.1" id="Layer_1" xmlns="http://www.w3.org/2000/svg" xmlns:xlink="http://www.w3.org/1999/xlink" x="0px" y="0px"
	 viewBox="0 0 262.1 262.5" style="enable-background:new 0 0 262.1 262.5;" xml:space="preserve">
<style type="text/css">
	.st0{fill:#010101;}
</style>
<g>
	<g id="g1363">
		<g id="g1369" transform="translate(174.4404,512)">
			<g id="path1371">
				<rect x="754.4" y="-517.4" class="st0" width="16" height="273.2"/>
			</g>
		</g>
		<g id="g1373" transform="translate(113.1455)">
			<g id="path1375">
				<rect x="783" y="-5.4" class="st0" width="16" height="273.2"/>
			</g>
		</g>
		<g id="g1377" transform="translate(398.8545,512)">
			<g id="path1379">
				<rect x="649.8" y="-517.4" class="st0" width="16" height="273.2"/>
			</g>
		</g>
		<g id="g1381" transform="translate(337.5596)">
			<g id="path1383">
				<rect x="678.3" y="-5.4" class="st0" width="16" height="273.2"/>
			</g>
		</g>
		<g id="g1385" transform="translate(174.4404,466.519)">
			<g id="path1387">
				<rect x="762.4" y="-455.6" class="st0" width="87" height="16"/>
			</g>
		</g>
	</g>
	<g id="g1389" transform="translate(174.4404,396.3462)">
		<g id="path1391">
			<rect x="762.4" y="-348" class="st0" width="87" height="16"/>
		</g>
	</g>
	<g id="g1393" transform="translate(174.4404,326.1729)">
		<g id="path1395">
			<rect x="762.4" y="-240.4" class="st0" width="87" height="16"/>
		</g>
	</g>
	<g id="g1397" transform="translate(174.4404,256)">
		<g id="path1399">
			<rect x="762.4" y="-132.7" class="st0" width="87" height="16"/>
		</g>
	</g>
	<g id="g1401" transform="translate(174.4404,185.8271)">
		<g id="path1403">
			<rect x="762.4" y="-25.1" class="st0" width="87" height="16"/>
		</g>
	</g>
	<g id="g1405" transform="translate(174.4404,115.6538)">
		<g id="path1407">
			<rect x="762.4" y="82.5" class="st0" width="87" height="16"/>
		</g>
	</g>
	<g id="g1417" transform="translate(174.4404,45.481)">
		<g id="path1419">
			<rect x="762.4" y="190.1" class="st0" width="87" height="16"/>
		</g>
	</g>
	<g id="g1421" transform="translate(398.8545,466.519)">
		<g id="path1423">
			<rect x="657.8" y="-455.6" class="st0" width="24.9" height="16"/>
		</g>
	</g>
	<g id="g1425" transform="translate(398.8545,396.3462)">
		<g id="path1427">
			<rect x="657.8" y="-348" class="st0" width="24.9" height="16"/>
		</g>
	</g>
	<g id="g1429" transform="translate(398.8545,326.1729)">
		<g id="path1431">
			<rect x="657.8" y="-240.4" class="st0" width="24.9" height="16"/>
		</g>
	</g>
	<g id="g1433" transform="translate(398.8545,256)">
		<g id="path1435">
			<rect x="657.8" y="-132.7" class="st0" width="24.9" height="16"/>
		</g>
	</g>
	<g id="g1437" transform="translate(398.8545,185.8271)">
		<g id="path1439">
			<rect x="657.8" y="-25.1" class="st0" width="24.9" height="16"/>
		</g>
	</g>
	<g id="g1441" transform="translate(398.8545,115.6538)">
		<g id="path1443">
			<rect x="657.8" y="82.5" class="st0" width="24.9" height="16"/>
		</g>
	</g>
	<g id="g1447">
		<g id="g1453" transform="translate(398.8545,45.481)">
			<g id="path1455">
				<rect x="657.8" y="190.1" class="st0" width="24.9" height="16"/>
			</g>
		</g>
		<g id="g1457" transform="translate(66.4033,466.519)">
			<g id="path1459">
				<rect x="812.8" y="-455.6" class="st0" width="24.9" height="16"/>
			</g>
		</g>
	</g>
	<g id="g1461" transform="translate(66.4033,396.3462)">
		<g id="path1463">
			<rect x="812.8" y="-348" class="st0" width="24.9" height="16"/>
		</g>
	</g>
	<g id="g1465" transform="translate(66.4033,326.1729)">
		<g id="path1467">
			<rect x="812.8" y="-240.4" class="st0" width="24.9" height="16"/>
		</g>
	</g>
	<g id="g1469" transform="translate(66.4033,256)">
		<g id="path1471">
			<rect x="812.8" y="-132.7" class="st0" width="24.9" height="16"/>
		</g>
	</g>
	<g id="g1473" transform="translate(66.4033,185.8271)">
		<g id="path1475">
			<rect x="812.8" y="-25.1" class="st0" width="24.9" height="16"/>
		</g>
	</g>
	<g id="g1477" transform="translate(66.4033,115.6538)">
		<g id="path1479">
			<rect x="812.8" y="82.5" class="st0" width="24.9" height="16"/>
		</g>
	</g>
	<g id="g1483">
		<g id="g1489" transform="translate(66.4033,45.481)">
			<g id="path1491">
				<rect x="812.8" y="190.1" class="st0" width="24.9" height="16"/>
			</g>
		</g>
	</g>
</g>
<g>
	<g id="g257_00000116197981869173538010000009278703297802865295_" transform="translate(429.2178,418.7583)">
		<g id="path259_00000036973238325257088480000003646322703433602697_">
			<path class="st0" d="M-190.7-328.6h-20c-2.1,0-3.8-1.7-3.8-3.8v-37.3c0-2.1,1.7-3.8,3.8-3.8c2.1,0,3.8,1.7,3.8,3.8v33.5h12.5v-44
				c0-2.1,1.7-3.8,3.8-3.8c2.1,0,3.8,1.7,3.8,3.8v47.7C-186.9-330.3-188.6-328.6-190.7-328.6z"/>
		</g>
	</g>
	<g id="g269_00000014636493203061564320000012833600129256331675_" transform="translate(485.7393,311.8311)">
		<g id="path271_00000021083295845993653080000006443051177435506075_">
			<path class="st0" d="M-238.7-205h-37c-2.1,0-3.8-1.7-3.8-3.8v-10.6c0-5.5,4.5-9.9,9.9-9.9h24.7c5.5,0,9.9,4.5,9.9,9.9v10.6
				C-234.9-206.7-236.6-205-238.7-205z M-272-212.5h29.5v-6.8c0-1.3-1.1-2.4-2.4-2.4h-24.7c-1.3,0-2.4,1.1-2.4,2.4V-212.5z"/>
		</g>
	</g>
	<g id="g273_00000147211745028077900190000010573617716485830330_" transform="translate(324.8965,334.0029)">
		<g id="path275_00000072278886086931257620000010328289433609753020_">
			<path class="st0" d="M-139-186.2h-20c-2.1,0-3.8-1.7-3.8-3.8v-52.1c0-2.1,1.7-3.8,3.8-3.8s3.8,1.7,3.8,3.8v48.3h12.5v-68.5
				c0-2.1,1.7-3.8,3.8-3.8s3.8,1.7,3.8,3.8v72.2C-135.2-187.9-136.9-186.2-139-186.2z"/>
		</g>
	</g>
	<g id="g277_00000034790255141708962120000015236056325182783142_" transform="translate(381.418,196.8042)">
		<g id="path279_00000049901427524855678590000010849447384223923376_">
			<path class="st0" d="M-187.1-31.9h-37c-2.1,0-3.8-1.7-3.8-3.8v-10.9c0-5.5,4.5-10,10-10h24.6c5.5,0,10,4.5,10,10v10.9
				C-183.3-33.6-185-31.9-187.1-31.9z M-220.3-39.4h29.5v-7.2c0-1.3-1.1-2.4-2.4-2.4h-24.6c-1.3,0-2.4,1.1-2.4,2.4V-39.4z"/>
		</g>
	</g>
	<g id="g289_00000109729255617501172570000008250508982042913956_" transform="translate(427.4033,457.9946)">
		<g id="path291_00000101792213977772852020000000815245501135015555_">
			<path class="st0" d="M-339.1-217.9c-1.4,0-2.7-0.8-3.4-2.1c-1.5-3-2.9-6.2-4.1-9.7c-0.7-2,0.3-4.1,2.3-4.9c2-0.7,4.1,0.3,4.9,2.3
				c1.2,3.2,2.4,6.2,3.8,8.9c0.9,1.9,0.2,4.1-1.7,5.1C-337.9-218-338.5-217.9-339.1-217.9z M-348.3-246.6c-1.8,0-3.3-1.2-3.7-3
				c-0.3-1.4-0.6-2.8-0.8-4.3c-0.3-2-0.7-3.9-0.9-5.9c-0.3-2.1,1.1-4,3.2-4.3c2.1-0.3,4,1.1,4.3,3.2c0.3,1.9,0.6,3.7,0.9,5.6
				c0.2,1.4,0.5,2.8,0.8,4.1c0.4,2.1-0.9,4-3,4.5C-347.8-246.7-348.1-246.6-348.3-246.6z M-351.6-276.7c-2.1,0-3.8-1.7-3.8-3.8
				c0-0.3,0-0.6,0-0.9c0-2.6,0.1-5.2,0.2-7.7c0-0.6,0.1-1.2,0.1-1.8c0.1-2.1,2-3.7,4-3.5c2.1,0.1,3.7,2,3.5,4c0,0.6-0.1,1.1-0.1,1.7
				c-0.1,2.4-0.2,4.8-0.2,7.3c0,0.3,0,0.6,0,0.8C-347.8-278.4-349.4-276.7-351.6-276.7C-351.5-276.7-351.6-276.7-351.6-276.7z
				 M-348.4-306.8c-0.3,0-0.5,0-0.8-0.1c-2-0.4-3.3-2.4-2.9-4.5c0.7-3.4,1.6-6.8,2.5-10.1c0.6-2,2.7-3.2,4.7-2.6
				c2,0.6,3.2,2.7,2.6,4.7c-0.9,3.1-1.7,6.3-2.4,9.5C-345.1-308-346.7-306.8-348.4-306.8z M-338.8-335.4c-0.5,0-1.1-0.1-1.6-0.4
				c-1.9-0.9-2.7-3.2-1.8-5.1c1.5-3.1,3.2-6.2,4.9-9.2c1.1-1.8,3.4-2.4,5.2-1.3c1.8,1.1,2.4,3.4,1.3,5.2c-1.6,2.8-3.2,5.7-4.6,8.6
				C-336-336.2-337.4-335.4-338.8-335.4z M-322.3-360.7c-0.9,0-1.7-0.3-2.4-0.9c-1.6-1.4-1.8-3.7-0.4-5.3c2.2-2.6,4.6-5.2,7-7.6
				c1.5-1.5,3.9-1.5,5.4,0c1.5,1.5,1.5,3.9,0,5.4c-2.3,2.3-4.6,4.8-6.6,7.2C-320.1-361.2-321.2-360.7-322.3-360.7z M-300.3-381.5
				c-1.1,0-2.3-0.5-3-1.5c-1.3-1.7-1-4,0.7-5.3c0.9-0.7,1.7-1.3,2.6-2c1.9-1.4,3.8-2.7,5.7-4.1c1.7-1.2,4.1-0.8,5.3,1
				c1.2,1.7,0.8,4.1-1,5.3c-1.9,1.3-3.7,2.6-5.5,3.9c-0.8,0.6-1.7,1.3-2.5,1.9C-298.7-381.7-299.5-381.5-300.3-381.5z M-275-398.2
				c-1.3,0-2.6-0.7-3.3-1.9c-1-1.8-0.4-4.1,1.4-5.2c2.9-1.7,6-3.4,9-4.9c1.9-1,4.1-0.3,5.1,1.6c1,1.9,0.3,4.1-1.6,5.1
				c-2.9,1.5-5.9,3.2-8.7,4.8C-273.7-398.3-274.4-398.2-275-398.2z M-248-411.8c-1.5,0-2.9-0.9-3.5-2.3c-0.8-1.9,0-4.1,2-5
				c3.1-1.4,6.3-2.7,9.5-3.9c1.9-0.8,4.1,0.2,4.9,2.1c0.8,1.9-0.2,4.1-2.1,4.9c-3.1,1.2-6.2,2.5-9.2,3.8
				C-246.9-411.9-247.5-411.8-248-411.8z M-219.5-422.2c-1.6,0-3.1-1.1-3.6-2.7c-0.6-2,0.5-4.1,2.5-4.7c3.3-1,6.6-1.9,9.9-2.7
				c2-0.5,4.1,0.7,4.6,2.7c0.5,2-0.7,4.1-2.7,4.6c-3.2,0.8-6.4,1.7-9.6,2.7C-218.8-422.3-219.2-422.2-219.5-422.2z"/>
		</g>
	</g>
	<g>
		<path class="st0" d="M258.8,3c-0.8-0.7-1.9-1.1-3-0.9c-52.8,6.4-95.5,15.7-127,27.7l-0.4,0.1c0,0-0.1,0-0.1,0.1L112,36.6
			C76.5,52.2,50.7,71.1,30.9,96C12.8,118.9,2.8,147.2,2,177.8c-0.7,28.8,6.4,51,17.2,75.4c0.6,1.3,0.7,1.7,0.8,2.1
			c0.3,0.7,0.5,1.3,1.3,3.1c0.6,1.3,2,2.1,3.4,2.1h171.6c1.6,0,3.1-1,3.6-2.6c0.5-1.5,0-3.3-1.3-4.2c-16.9-12.6-32.5-32.9-42.8-55.6
			l-6.1-16.1c-9.5-31.8-2.8-61.7,19.9-88.8c19.3-23.1,49.8-43.5,88.1-58.9c1.4-0.6,2.4-2,2.4-3.5v-25C260.1,4.7,259.6,3.7,258.8,3z
			 M252.5,28.3c-27.3,11.3-64,30.6-88.7,60.1c-11.5,13.8-19.3,28.5-23.1,43.8c-4.1,16.7-3.5,34.2,1.8,52l6.5,17
			c9.1,20.1,22.3,38.4,36.9,51.7H27.3c0,0,0,0,0,0c-0.2-0.5-0.4-1.2-1.1-2.7C15.4,226,8.9,205.5,9.6,178c0.7-29,10.1-55.7,27.3-77.3
			c19-23.9,43.8-42.1,78.1-57.2l16.5-6.7c30.1-11.4,70.8-20.4,121-26.7V28.3z"/>
		<path d="M196.4,262.5H24.8c-2.2,0-4.2-1.3-5.2-3.3c-0.9-1.8-1.1-2.5-1.4-3.3c-0.1-0.4-0.2-0.7-0.8-1.9C6.5,229.4-0.7,207,0,177.7
			c0.8-31.1,10.9-59.8,29.3-83c20-25.2,46-44.3,81.8-60l16.3-6.7c0.1,0,0.2-0.1,0.2-0.1l0.4-0.1c31.7-12,74.6-21.4,127.5-27.8
			c1.7-0.2,3.3,0.3,4.5,1.4l0,0c1.2,1.1,2,2.7,2,4.3v25c0,2.4-1.4,4.5-3.6,5.4c-38,15.3-68.2,35.5-87.3,58.3
			c-22.2,26.5-28.8,55.8-19.5,86.9l6,15.9c10.2,22.4,25.6,42.3,42.2,54.8c2,1.5,2.8,4.1,2,6.5C201.1,260.9,198.9,262.5,196.4,262.5z
			 M129.2,31.7c-0.1,0-0.1,0.1-0.2,0.1l-16.4,6.7C77.6,53.9,52.1,72.6,32.5,97.2C14.6,119.8,4.8,147.7,4,177.8
			c-0.7,28.5,6.3,50.4,17,74.6c0.6,1.3,0.8,1.8,0.9,2.3c0.2,0.7,0.4,1.2,1.2,2.8c0.3,0.6,0.9,1,1.6,1h171.6c0.8,0,1.5-0.5,1.7-1.2
			c0.2-0.7,0-1.5-0.6-2c-17.2-12.8-33-33.4-43.5-56.4l0-0.1l-6.1-16.2c-9.7-32.5-2.9-63,20.3-90.6c19.5-23.3,50.3-43.9,88.9-59.5
			c0.7-0.3,1.1-0.9,1.1-1.7v-25c0-0.5-0.2-1-0.6-1.3l0,0c-0.4-0.3-0.9-0.5-1.4-0.4c-52.6,6.4-95.2,15.7-126.6,27.6L129.2,31.7z
			 M191,255H25.9l-0.5-1.4c-0.2-0.5-0.4-1.1-1-2.6c-10.8-24.4-17.4-45.2-16.7-73.1c0.7-29.4,10.3-56.5,27.7-78.5
			c19.2-24.2,44.3-42.6,78.9-57.8l16.5-6.8C161,23.4,201.9,14.4,252.3,8.1l2.2-0.3v21.8l-1.2,0.5c-26.6,10.9-63.4,30.2-88,59.5
			c-11.3,13.6-19,28-22.7,43c-4,16.3-3.5,33.4,1.7,50.8l6.4,16.9c9,19.7,21.9,37.8,36.4,51L191,255z M28.7,251h152.2
			c-13.4-13.2-25.3-30.3-33.7-48.9l0-0.1l-6.5-17.2c-5.4-18.1-6-36-1.8-53c3.9-15.6,11.8-30.6,23.5-44.6
			c24.7-29.6,61.4-49,88.3-60.2V12.3c-49,6.3-88.8,15.1-118.3,26.3l-16.4,6.7c-34,14.9-58.6,32.9-77.3,56.6
			c-16.8,21.2-26.1,47.5-26.8,76.1c-0.7,27.1,5.8,47.4,16.4,71.3C28.3,250,28.5,250.5,28.7,251z"/>
	</g>
</g>
<g>
	<path d="M-811.8,102.2c-3.2,0-5.8,2.6-5.8,5.8c0,3.2,2.6,5.8,5.8,5.8h52.3v5.8c0,3.2,2.6,5.8,5.8,5.8h34.8c3.2,0,5.8-2.6,5.8-5.8
		V26.7c0-3.2-2.6-5.8-5.8-5.8h-34.8c-3.2,0-5.8,2.6-5.8,5.8v5.8h-52.3c-3.2,0-5.8,2.6-5.8,5.8c0,3.2,2.6,5.8,5.8,5.8h52.3v58.1
		H-811.8z M-747.9,32.6h23.2v81.3h-23.2V32.6z"/>
	<path d="M-823.4,183.5c20.3,0,29.6-3.8,37.7-7.1c6.2-2.5,11-4.5,20.3-4.5c10.5,0,17,2.6,24,5.4c7.6,3.1,15.5,6.2,28.3,6.2
		c28.2,0,46.5-16,46.5-40.6c0-34.8,0-52.3-29-52.3c-3.2,0-5.8,2.6-5.8,5.8c0,3.2,2.6,5.8,5.8,5.8c16.1,0,17.4,3,17.4,40.6
		c0,26.2-24.4,29-34.8,29c-10.5,0-17-2.6-24-5.4c-7.6-3.1-15.5-6.2-28.3-6.2c-11.6,0-18.3,2.7-24.7,5.4c-7.5,3.1-15.3,6.3-33.4,6.3
		c-3.2,0-5.8,2.6-5.8,5.8S-826.6,183.5-823.4,183.5z"/>
	<path d="M-695.6,55.8c30.2,0,63.9,31,63.9,75.5v23.2c0,17.4,11.7,29,29,29c3.2,0,5.8-2.6,5.8-5.8s-2.6-5.8-5.8-5.8
		c-11.1,0-17.4-6.4-17.4-17.4v-23.2c0-52.1-39-87.1-75.5-87.1c-3.2,0-5.8,2.6-5.8,5.8C-701.4,53.2-698.8,55.8-695.6,55.8z"/>
	<path d="M-602.7,200.9c-10.7,0-18.7-2.7-27.2-5.5c-9-3-18.3-6.1-30.9-6.1c-12.7,0-20.5,3.1-28.1,6.2c-6.9,2.8-13.5,5.4-24.2,5.4
		c-10.5,0-17-2.6-24-5.4c-7.6-3.1-15.5-6.2-28.3-6.2c-11.6,0-18.3,2.7-24.7,5.4c-7.5,3.1-15.3,6.3-33.4,6.3c-3.2,0-5.8,2.6-5.8,5.8
		c0,3.2,2.6,5.8,5.8,5.8c20.3,0,29.6-3.8,37.7-7.1c6.2-2.5,11-4.5,20.3-4.5c10.5,0,17,2.6,24,5.4c7.6,3.1,15.5,6.2,28.3,6.2
		c13,0,21.2-3.3,28.5-6.3c6.8-2.8,13.3-5.4,23.7-5.4c10.7,0,18.7,2.7,27.2,5.5c9,3,18.3,6.1,30.9,6.1c3.2,0,5.8-2.6,5.8-5.8
		C-596.9,203.5-599.5,200.9-602.7,200.9z"/>
	<path d="M-602.7,230c-10.7,0-18.7-2.7-27.2-5.5c-9-3-18.3-6.1-30.9-6.1c-12.7,0-20.5,3.1-28.1,6.2c-6.9,2.8-13.5,5.4-24.2,5.4
		c-10.5,0-17-2.6-24-5.4c-7.6-3.1-15.5-6.2-28.3-6.2c-11.6,0-18.3,2.7-24.7,5.4c-7.5,3.1-15.3,6.3-33.4,6.3c-3.2,0-5.8,2.6-5.8,5.8
		c0,3.2,2.6,5.8,5.8,5.8c20.3,0,29.6-3.8,37.7-7.1c6.2-2.5,11-4.5,20.3-4.5c10.5,0,17,2.6,24,5.4c7.6,3.1,15.5,6.2,28.3,6.2
		c13,0,21.2-3.3,28.5-6.3c6.8-2.8,13.3-5.4,23.7-5.4c10.7,0,18.7,2.7,27.2,5.5c9,3,18.3,6.1,30.9,6.1c3.2,0,5.8-2.6,5.8-5.8
		C-596.9,232.6-599.5,230-602.7,230z"/>
</g>
<g>
	<path class="st0" d="M-1491.4,60.4V38.4h8.3c3.9,0,7-3.1,7-7V31h22c1.9,0,3.6-0.6,5-1.6c0.2-0.2,0.5-0.4,0.7-0.6
		c0,0,0.1-0.1,0.1-0.2c1.2-1.2,2-2.9,2-4.7V0.6c0-3.9-3.5-7-7.8-7h-22v-0.4c0-3.9-3.1-7-7-7h-54c-3.9,0-7,3.1-7,7v0.4h-8h-50.8
		c0,0,0,0,0,0h-60.8c-4.3,0-7.8,3.2-7.8,7V24c0,3.9,3.5,7,7.8,7h20.2v14.6l-15.7,16.7h-3.9c-3.7,0-6.7,3-6.7,6.7V89
		c0,3.7,3,6.8,6.7,6.8h47.7c3.7,0,6.8-3,6.8-6.8V69.1c0-3.7-3-6.7-6.8-6.7h-3.9l-15.7-16.7V31h32.1c0,0,0,0,0,0c0,0,0,0,0,0h50.8h8
		v0.4c0,3.9,3.1,7,7,7h8.3v21.9c0,0,0,0,0,0s0,0,0,0v50.7v50.7v46.5h-13.3c-5.9,0-10.7,4.8-10.7,10.7v27.7h-4.7
		c-8.2,0-14.9,6.7-14.9,14.9v7.7c0,3.9,3.2,7.1,7.1,7.1h111.7c3.9,0,7.1-3.2,7.1-7.1v-7.7c0-8.2-6.7-14.9-14.9-14.9h-4.7v-27.7
		c0-5.9-4.8-10.7-10.7-10.7h-14.6v-46.5v-50.7c0,0,0,0,0,0c0,0,0,0,0,0V60.4z M-1617.3,87.3h-44.2V70.9h4c0,0,0,0,0,0c0,0,0,0,0,0
		h36.3c0,0,0,0,0,0c0,0,0,0,0,0h4V87.3z M-1647.7,62.4l8.3-8.8l8.3,8.8H-1647.7z M-1499.9,111.1
		C-1499.9,111.1-1499.9,111.1-1499.9,111.1v1.8l-18.8-19.3l18.8-19.3V111.1C-1499.9,111.1-1499.9,111.1-1499.9,111.1z
		 M-1499.9,161.8v10.5l-18.8-19.3l18.8-19.3V161.8z M-1520.4,60.4C-1520.4,60.4-1520.4,60.4-1520.4,60.4V44.6l18.8,19.3l-18.8,19.3
		V60.4C-1520.4,60.4-1520.4,60.4-1520.4,60.4z M-1520.4,111.1v-7l18.8,19.3l-18.8,19.3V111.1z M-1520.4,163.5l18.8,19.3l-18.8,19.3
		V163.5z M-1499.9,53.4l-14.7-15h14.7V53.4z M-1476.2,7.9l15.1,14.6h-15.1V7.9z M-1454.9,16.7l-15.1-14.6l15.1,0V16.7z M-1603,22.5
		C-1603.1,22.5-1603.1,22.5-1603,22.5C-1603.1,22.5-1603.1,22.5-1603,22.5l-15.8,0l19.3-18.8l19.3,18.8H-1603z M-1629.3,20.9
		l-19.3-18.8h38.6L-1629.3,20.9z M-1589,2.1h36.8h1.8l-19.3,18.8L-1589,2.1z M-1663.2,2.1h2.4l21,20.4l-23.4,0V2.1z M-1552.2,22.5
		h-7l15.1-14.6v14.6H-1552.2z M-1535.7-5.3h51.1v35.2h-11h-29h-11V-5.3z M-1455.1,261.5v6.3H-1564v-6.3c0-3.5,2.9-6.4,6.4-6.4h96.2
		C-1457.9,255.1-1455.1,258-1455.1,261.5z M-1474.6,218.9v27.7h-69.8v-27.7c0-1.2,1-2.2,2.2-2.2h17.6c0,0,0,0,0,0c0,0,0,0,0,0h29
		h18.9C-1475.6,216.7-1474.6,217.7-1474.6,218.9z M-1514.6,208.2l14.7-15v15H-1514.6z"/>
	<path class="st0" d="M-1715.6,191.4v17.3c0,3.5,2.9,6.4,6.4,6.4h52.2c3.5,0,6.3-2.8,6.3-6.4v-17.3c0-3.5-2.8-6.4-6.3-6.4h-52.2
		C-1712.8,185.1-1715.6,187.9-1715.6,191.4z M-1659.3,206.6h-19.7v-13h19.7V206.6z M-1707.1,193.6h19.7v13h-19.7V193.6z"/>
	<path class="st0" d="M-1657.1,227.8h-52.2c-3.5,0-6.4,2.8-6.4,6.4v17.3c0,3.5,2.9,6.4,6.4,6.4h52.2c3.5,0,6.3-2.8,6.3-6.4v-17.3
		C-1650.8,230.6-1653.6,227.8-1657.1,227.8z M-1707.1,236.3h19.7v13h-19.7V236.3z M-1659.3,249.3h-19.7v-13h19.7V249.3z"/>
	<path class="st0" d="M-1637.8,163.9h-41.2V84.5c0-3.1-2.4-5.6-5.5-5.6h-43.6c-3.5,0-6.3,3-6.3,6.9v183.5c0,3.9,2.7,6.9,6.3,6.9
		h89.7c3.5,0,6.3-3.1,6.3-6.9v-100C-1632.1,166-1635,163.9-1637.8,163.9z M-1640.6,267.8h-85.2V87.4h38.4v10.7h-14.4
		c-2.3,0-4.2,1.9-4.2,4.2c0,2.3,1.9,4.2,4.2,4.2h14.4v15.4h-12.9c-2.3,0-4.2,1.9-4.2,4.2c0,2.3,1.9,4.2,4.2,4.2h12.9v37.5
		c0,2.3,1.9,4.2,4.2,4.2h42.6V267.8z"/>
</g>
<path class="st0" d="M-2366.8,273.8h-72.4l-45.5-93v-13.4h78.4v9.6h-4.8c-2.7,0-4.8,2.2-4.8,4.8c0,2.7,2.2,4.8,4.8,4.8h4.8v9.6h-4.8
	c-2.7,0-4.8,2.2-4.8,4.8c0,2.7,2.2,4.8,4.8,4.8h19.3c2.7,0,4.8-2.2,4.8-4.8c0-2.7-2.2-4.8-4.8-4.8h-4.8v-9.6h4.8
	c2.7,0,4.8-2.2,4.8-4.8c0-2.7-2.2-4.8-4.8-4.8h-4.8c0-5.2,0-17.5,0-22.7c0-7.9-4.6-15.3-11.7-18.8l-76.3-37.3V86.9h24.1h4.3h22.5
	h27.4v9.6h-4.8c-2.7,0-4.8,2.2-4.8,4.8c0,2.7,2.2,4.8,4.8,4.8h19.3c2.7,0,4.8-2.2,4.8-4.8c0-2.7-2.2-4.8-4.8-4.8h-4.8V82
	c0,0,0,0,0,0v-8.2c0-7.9-4.6-15.3-11.7-18.8l-77.4-37.8l-15.4-33.4l31,0c0.9,0,1.6,0.7,1.6,1.6l0,8.1h-4.8c-2.7,0-4.8,2.2-4.8,4.8
	c0,2.7,2.2,4.8,4.8,4.8h19.3c2.7,0,4.8-2.2,4.8-4.8c0-2.7-2.2-4.8-4.8-4.8h-4.8l0-8.1c0-6.2-5.1-11.2-11.3-11.2l-99.7,0
	c-6.2,0-11.3,5-11.3,11.3v8h-4.8c-2.7,0-4.8,2.2-4.8,4.8c0,2.7,2.2,4.8,4.8,4.8h19.3c2.7,0,4.8-2.2,4.8-4.8c0-2.7-2.2-4.8-4.8-4.8
	h-4.8v-8c0-0.9,0.7-1.6,1.6-1.6l31,0l-15.4,33.4l-31,15.2l-20.2,9.9l-26.2,12.8c-7.1,3.5-11.7,10.9-11.7,18.8V82v0v14.5h-4.8
	c-2.7,0-4.8,2.2-4.8,4.8c0,2.7,2.2,4.8,4.8,4.8h19.3c2.7,0,4.8-2.2,4.8-4.8c0-2.7-2.2-4.8-4.8-4.8h-4.8v-9.6h78.4v11.5l-76.3,37.3
	c-7.1,3.5-11.7,10.9-11.7,18.8v22.7h-4.8c-2.7,0-4.8,2.2-4.8,4.8c0,2.7,2.2,4.8,4.8,4.8h4.8v9.6h-4.8c-2.7,0-4.8,2.2-4.8,4.8
	c0,2.7,2.2,4.8,4.8,4.8h19.3c2.7,0,4.8-2.2,4.8-4.8c0-2.7-2.2-4.8-4.8-4.8h-4.8v-9.6h4.8c2.7,0,4.8-2.2,4.8-4.8
	c0-2.7-2.2-4.8-4.8-4.8h-4.8v-9.6h28h6.8h22.6h20.9v13.4l-45.5,93h-72.4c-6.2,0-11.3,5-11.3,11.3v7.1c0,6.2,5,11.3,11.3,11.3h306.7
	c6.2,0,11.3-5,11.3-11.3v-7.1C-2355.6,278.9-2360.6,273.8-2366.8,273.8z M-2484.7,28.5l72.1,35.2c3.8,1.9,6.3,5.8,6.3,10.1v3.4
	h-22.7h-4.7h-22.5h-0.5h-27.9V28.5z M-2484.7,109.1l72.1,35.2c3.8,1.9,6.3,5.8,6.3,10.1v3.4h-78.4V109.1z M-2555.6,77.2h-78.4v-3.4
	c0-4.3,2.5-8.2,6.3-10.1l26.2-12.8l20.2-9.9l25.6-12.5V77.2z M-2450,273.8h-11.1l-19-21l-15.1-16.7l-18.4-20.3l22.9-25.3
	L-2450,273.8z M-2502.4,242.6l15.1,16.7l13.2,14.5h-92.1l46.1-50.9L-2502.4,242.6z M-2539.9,186.7h39.5l-19.8,21.8L-2539.9,186.7z
	 M-2501.2,157.8h-38v0l19-19L-2501.2,157.8z M-2539.1,106.2h38l-19,19L-2539.1,106.2z M-2513.4,132l19-19v38L-2513.4,132z
	 M-2494.4,70.4l-19-19l19-19V70.4z M-2501.2,77.2h-38l19-19L-2501.2,77.2z M-2539.2,25.6h38l-19,19L-2539.2,25.6z M-2528.4-16.2
	l16.5,0l14.8,32.1h-46.2L-2528.4-16.2z M-2546,32.4l19,19l-19,19V32.4z M-2546,86.9h51.6v9.7h-51.6V86.9z M-2546,113l19,19l-19,19
	V113z M-2546,167.4h51.6v9.7h-51.6V167.4z M-2576.6,157.8h-22.6h-34.8v-3.4c0-4.3,2.5-8.2,6.3-10.1l72-35.2v48.7H-2576.6z
	 M-2549.6,190.4l22.9,25.3l-52.6,58.1h-11.1L-2549.6,190.4z M-2365.2,292.1c0,0.9-0.7,1.6-1.6,1.6h-306.7c-0.9,0-1.6-0.7-1.6-1.6
	v-7.1c0-0.9,0.7-1.6,1.6-1.6h306.7c0.9,0,1.6,0.7,1.6,1.6V292.1z"/>
<g>
</g>
<g>
</g>
<g>
</g>
<g>
</g>
<g>
</g>
<g>
</g>
</svg>
