<?xml version="1.0" encoding="utf-8"?>
<!-- Generator: Adobe Illustrator 26.3.0, SVG Export Plug-In . SVG Version: 6.00 Build 0)  -->
<svg version="1.1" xmlns="http://www.w3.org/2000/svg" xmlns:xlink="http://www.w3.org/1999/xlink" x="0px" y="0px"
	 viewBox="0 0 116.2 98.8" style="enable-background:new 0 0 116.2 98.8;" xml:space="preserve">
<style type="text/css">
	.st0{opacity:0.3;}
	.st1{fill:#D8D1C7;}
	.st2{fill:#A39C95;}
	.st3{fill:#B5AFA7;}
	.st4{fill:#827C77;}
	.st5{fill:#F7EDD4;}
	.st6{fill:#EFCFA3;}
	.st7{fill:#C7AE87;}
	.st8{fill:#E6E1DD;}
	.st9{fill:#E3DCD1;}
	.st10{fill:#EBE6E1;}
	.st11{fill:#CCC5BC;}
	.st12{fill:#DBD7D3;}
	.st13{opacity:0.67;fill:#AFB1B4;}
	.st14{fill:#009AC9;}
	.st15{fill:#00AEEF;}
	.st16{fill:#006F89;}
	.st17{fill:#575757;}
	.st18{fill:#00CFFF;}
	.st19{fill:#574943;}
	.st20{fill:#BFB9B0;}
	.st21{fill:#D9BE93;}
	.st22{display:none;}
	.st23{display:inline;fill:url(#SVGID_1_);}
	.st24{display:inline;fill:#00AEEF;}
	.st25{display:inline;fill:#006F89;}
	.st26{display:inline;fill:#009AC9;}
	.st27{display:inline;fill:#00CFFF;}
</style>
<g id="Layer_1">
	<g>
		<g>
			<path class="st0" d="M67.7,26.1l-1.9,1.1l0.6,0.3l-2.2,1.3l-0.6-0.3l-1.9,1.1l30,17.3l1.9-1.1l-0.6-0.3l2.2-1.3l0.6,0.3l1.9-1.1
				L67.7,26.1z"/>
			<polygon class="st1" points="95.8,44.2 95.1,43.9 95,35.1 96,35.8 			"/>
			<polygon class="st2" points="95.1,43.9 92.4,45.5 92.4,37.1 95.1,35.5 			"/>
			<polygon class="st3" points="93,45.8 91.6,46.6 90.8,37.8 93,37.4 			"/>
			<polygon class="st1" points="91.6,46.6 62.2,29.6 62.2,21.2 83.8,32.4 91.6,38.2 			"/>
			<polygon class="st1" points="66.9,21.3 66.3,20.9 66.3,18.9 67.2,19 			"/>
			<polygon class="st4" points="67.7,18 66.3,18.9 66.9,19.2 64.2,20.8 63.6,20.4 62.2,21.2 91.6,38.2 93,37.4 92.4,37.1 95.1,35.5 
				95.8,35.9 97.2,35 			"/>
			<g>
				<polygon class="st0" points="69.7,23.2 70.9,22.4 70.8,22.4 69.5,23.1 				"/>
				<polygon class="st1" points="69.5,23.1 69.7,23.2 69.7,22.4 70.1,21.6 70.3,21.5 70.6,21.7 70.6,22.5 70.7,22.5 70.8,22.2 
					70.8,21.7 70.5,21.4 70.4,21.3 69.9,21.6 69.5,22.2 				"/>
				<polygon class="st2" points="69.7,23.2 69.8,23.1 69.8,22.3 70.1,21.8 70.5,21.6 70.7,21.7 70.7,22.5 70.9,22.4 70.9,21.6 
					70.5,21.4 70,21.6 69.7,22.3 				"/>
			</g>
			<g>
				<polygon class="st0" points="88.4,34 89.7,33.3 89.5,33.2 88.3,33.9 				"/>
				<polygon class="st1" points="88.3,33.9 88.4,34 88.5,33.2 88.9,32.5 89.1,32.4 89.4,32.5 89.4,33.3 89.5,33.4 89.6,33.1 
					89.5,32.5 89.3,32.2 89.2,32.1 88.7,32.4 88.3,33 				"/>
				<polygon class="st2" points="88.4,34 88.6,33.9 88.6,33.1 88.9,32.6 89.2,32.4 89.5,32.6 89.5,33.4 89.7,33.3 89.7,32.4 
					89.3,32.2 88.8,32.5 88.4,33.1 				"/>
			</g>
			<polygon class="st3" points="97.2,43.4 95.8,44.2 95.8,35.9 97.2,35 			"/>
		</g>
		<g>
			<g>
				<polygon class="st5" points="85.8,35.2 84.4,34.4 91.6,30.2 93,31 				"/>
				<polygon class="st6" points="85.8,35.9 84.4,35 84.4,34.4 85.8,35.2 85.8,35.3 				"/>
				<polygon class="st7" points="93,31.7 86.9,35.2 85.8,35.9 85.8,35.2 93,31 				"/>
			</g>
			<g>
				<polygon class="st5" points="67.5,24.7 66.1,23.9 73.3,19.7 74.8,20.5 				"/>
				<polygon class="st6" points="67.5,25.3 66.1,24.5 66.1,23.9 67.5,24.7 67.6,24.8 				"/>
				<polygon class="st7" points="74.8,21.1 67.5,25.3 67.5,24.7 74.8,20.5 				"/>
			</g>
		</g>
		<g>
			<polygon class="st1" points="95.8,35.2 95.1,34.9 95,26.1 96,26.8 			"/>
			<polygon class="st2" points="95.1,34.9 92.4,36.5 92.4,28.1 95.1,26.5 			"/>
			<polygon class="st3" points="93,36.8 91.6,37.6 90.8,28.8 93,28.4 			"/>
			<polygon class="st1" points="91.6,37.6 62.2,20.6 62.2,12.2 83.8,23.4 91.6,29.2 			"/>
			<polygon class="st1" points="66.9,12.3 66.3,11.9 66.3,9.8 67.2,10 			"/>
			<polygon class="st4" points="67.7,9 66.3,9.8 66.9,10.2 64.2,11.8 63.6,11.4 62.2,12.2 91.6,29.2 93,28.4 92.4,28.1 95.1,26.5 
				95.8,26.8 97.2,26 			"/>
			<g>
				<polygon class="st0" points="69.7,14.1 70.9,13.4 70.8,13.3 69.5,14.1 				"/>
				<polygon class="st1" points="69.5,14.1 69.7,14.1 69.7,13.3 70.1,12.6 70.3,12.5 70.6,12.6 70.6,13.4 70.7,13.5 70.8,13.2 
					70.8,12.6 70.5,12.3 70.4,12.2 69.9,12.5 69.5,13.2 				"/>
				<polygon class="st2" points="69.7,14.1 69.8,14 69.8,13.2 70.1,12.8 70.5,12.6 70.7,12.7 70.7,13.5 70.9,13.4 70.9,12.5 
					70.5,12.3 70,12.6 69.7,13.3 				"/>
			</g>
			<g>
				<polygon class="st0" points="88.4,25 89.7,24.3 89.5,24.2 88.3,24.9 				"/>
				<polygon class="st1" points="88.3,24.9 88.4,25 88.5,24.2 88.9,23.5 89.1,23.3 89.4,23.5 89.4,24.3 89.5,24.4 89.6,24 
					89.5,23.5 89.3,23.2 89.2,23.1 88.7,23.4 88.3,24 				"/>
				<polygon class="st2" points="88.4,25 88.6,24.9 88.6,24.1 88.9,23.6 89.2,23.4 89.5,23.6 89.5,24.4 89.7,24.3 89.7,23.4 
					89.3,23.2 88.8,23.5 88.4,24.1 				"/>
			</g>
			<polygon class="st3" points="97.2,34.4 95.8,35.2 95.8,26.8 97.2,26 			"/>
		</g>
		<g>
			<g>
				<polygon class="st5" points="85.8,26.2 84.4,25.4 91.6,21.2 93,22 				"/>
				<polygon class="st6" points="85.8,26.8 84.4,26 84.4,25.4 85.8,26.2 85.8,26.3 				"/>
				<polygon class="st7" points="93,22.7 86.9,26.2 85.8,26.8 85.8,26.2 93,22 				"/>
			</g>
			<g>
				<polygon class="st5" points="67.5,15.7 66.1,14.8 73.3,10.6 74.8,11.5 				"/>
				<polygon class="st6" points="67.5,16.3 66.1,15.5 66.1,14.8 67.5,15.7 67.6,15.7 				"/>
				<polygon class="st7" points="74.8,12.1 67.5,16.3 67.5,15.7 74.8,11.5 				"/>
			</g>
		</g>
		<g>
			<polygon class="st1" points="95.8,26.2 95.1,25.9 95,17.1 96,17.8 			"/>
			<polygon class="st2" points="95.1,25.9 92.4,27.4 92.4,19 95.1,17.5 			"/>
			<polygon class="st3" points="93,27.8 91.6,28.6 90.8,19.7 93,19.4 			"/>
			<polygon class="st1" points="91.6,28.6 62.2,11.6 62.2,3.2 83.8,14.4 91.6,20.2 			"/>
			<polygon class="st1" points="66.9,3.3 66.3,2.9 66.3,0.8 67.2,1 			"/>
			<polygon class="st8" points="67.7,0 66.3,0.8 66.9,1.2 64.2,2.7 63.6,2.4 62.2,3.2 91.6,20.2 93,19.4 92.4,19 95.1,17.5 
				95.8,17.8 97.2,17 			"/>
			<g>
				<polygon class="st0" points="69.7,5.1 70.9,4.4 70.8,4.3 69.5,5 				"/>
				<polygon class="st1" points="69.5,5 69.7,5.1 69.7,4.3 70.1,3.6 70.3,3.5 70.6,3.6 70.6,4.4 70.7,4.5 70.8,4.2 70.8,3.6 
					70.5,3.3 70.4,3.2 69.9,3.5 69.5,4.1 				"/>
				<polygon class="st2" points="69.7,5.1 69.8,5 69.8,4.2 70.1,3.8 70.5,3.5 70.7,3.7 70.7,4.5 70.9,4.4 70.9,3.5 70.5,3.3 70,3.6 
					69.7,4.2 				"/>
			</g>
			<g>
				<polygon class="st0" points="88.4,16 89.7,15.2 89.5,15.2 88.3,15.9 				"/>
				<polygon class="st1" points="88.3,15.9 88.4,16 88.5,15.2 88.9,14.5 89.1,14.3 89.4,14.5 89.4,15.3 89.5,15.3 89.6,15 
					89.5,14.5 89.3,14.2 89.2,14.1 88.7,14.4 88.3,15 				"/>
				<polygon class="st2" points="88.4,16 88.6,15.9 88.6,15.1 88.9,14.6 89.2,14.4 89.5,14.5 89.5,15.3 89.7,15.2 89.7,14.4 
					89.3,14.2 88.8,14.5 88.4,15.1 				"/>
			</g>
			<polygon class="st3" points="97.2,25.4 95.8,26.2 95.8,17.8 97.2,17 			"/>
		</g>
	</g>
	<g>
		<g>
			<polygon class="st0" points="85.2,52 52.4,33.1 56,31 88.8,49.9 			"/>
			<polygon class="st9" points="54.1,33.8 52.9,31.2 52.9,29.5 57.2,28.4 			"/>
			<polygon class="st10" points="54.1,30.2 52.9,29.5 54.4,28.7 57.2,28.4 55.6,29.7 			"/>
			<polygon class="st1" points="83.9,51 54.1,33.8 54.1,30.2 87,45.6 			"/>
			<polygon class="st8" points="87,45.6 86.4,46.9 83.9,47.4 54.1,30.2 57.2,28.4 			"/>
			<g>
				<polygon class="st0" points="59.6,32.3 60.8,31.6 60.7,31.5 59.5,32.2 				"/>
				<polygon class="st1" points="59.5,32.2 59.6,32.3 59.7,31.5 60,30.9 60.3,30.8 60.5,30.9 60.5,31.6 60.6,31.7 60.7,31.4 
					60.7,30.9 60.4,30.6 60.3,30.5 59.8,30.8 59.5,31.4 				"/>
				<polygon class="st2" points="59.6,32.3 59.8,32.2 59.8,31.5 60,31 60.4,30.8 60.6,31 60.6,31.7 60.8,31.6 60.8,30.8 60.4,30.6 
					60,30.9 59.6,31.5 				"/>
			</g>
			<g>
				<polygon class="st0" points="80.5,44.3 81.6,43.6 81.5,43.6 80.3,44.2 				"/>
				<polygon class="st1" points="80.3,44.2 80.5,44.3 80.5,43.6 80.9,42.9 81.1,42.8 81.3,42.9 81.3,43.7 81.5,43.7 81.5,43.4 
					81.5,42.9 81.3,42.6 81.2,42.6 80.7,42.8 80.3,43.4 				"/>
				<polygon class="st2" points="80.5,44.3 80.6,44.2 80.6,43.5 80.9,43.1 81.2,42.9 81.5,43 81.5,43.7 81.6,43.6 81.6,42.8 
					81.3,42.6 80.8,42.9 80.5,43.5 				"/>
			</g>
			<polygon class="st11" points="86.8,50.8 83.9,51 83.9,47.4 88.2,48.2 			"/>
			<polygon class="st12" points="88.2,48.2 87.7,49.3 86.8,49.1 83.9,47.4 87,45.6 			"/>
			<polygon class="st2" points="88.2,49.9 86.8,50.8 86.8,49.1 88.2,48.2 			"/>
		</g>
		<g>
			<polygon class="st0" points="81,54.4 48.3,35.5 51.8,33.4 84.6,52.3 			"/>
			<polygon class="st9" points="49.9,36.2 48.7,33.6 48.7,31.9 53.1,30.8 			"/>
			<polygon class="st10" points="49.9,32.6 48.7,31.9 50.2,31.1 53.1,30.8 51.5,32.1 			"/>
			<polygon class="st1" points="79.7,53.4 49.9,36.2 49.9,32.6 82.9,48 			"/>
			<polygon class="st8" points="82.9,48 82.2,49.3 79.7,49.8 49.9,32.6 53.1,30.8 			"/>
			<g>
				<polygon class="st0" points="55.5,34.7 56.6,34 56.5,34 55.3,34.6 				"/>
				<polygon class="st1" points="55.3,34.6 55.5,34.7 55.5,34 55.9,33.3 56.1,33.2 56.3,33.3 56.3,34 56.5,34.1 56.5,33.8 
					56.5,33.3 56.3,33 56.2,32.9 55.7,33.2 55.3,33.8 				"/>
				<polygon class="st2" points="55.5,34.7 55.6,34.6 55.6,33.9 55.9,33.4 56.2,33.2 56.5,33.4 56.5,34.1 56.6,34 56.6,33.2 
					56.3,33 55.8,33.3 55.5,33.9 				"/>
			</g>
			<g>
				<polygon class="st0" points="76.3,46.7 77.4,46.1 77.3,46 76.2,46.6 				"/>
				<polygon class="st1" points="76.2,46.6 76.3,46.7 76.4,46 76.7,45.3 76.9,45.2 77.2,45.3 77.2,46.1 77.3,46.1 77.3,45.8 
					77.3,45.3 77.1,45 77,45 76.5,45.2 76.2,45.8 				"/>
				<polygon class="st2" points="76.3,46.7 76.5,46.6 76.5,45.9 76.7,45.5 77,45.3 77.3,45.4 77.3,46.1 77.4,46.1 77.4,45.2 
					77.1,45 76.6,45.3 76.3,45.9 				"/>
			</g>
			<polygon class="st11" points="82.6,53.2 79.7,53.4 79.7,49.8 84.1,50.7 			"/>
			<polygon class="st12" points="84.1,50.7 83.5,51.7 82.6,51.5 79.7,49.8 82.9,48 			"/>
			<polygon class="st2" points="84.1,52.3 82.6,53.2 82.6,51.5 84.1,50.7 			"/>
		</g>
		<g>
			<polygon class="st0" points="76.9,56.8 44.1,37.9 47.7,35.8 80.4,54.8 			"/>
			<polygon class="st9" points="45.8,38.6 44.6,36 44.6,34.3 48.9,33.2 			"/>
			<polygon class="st10" points="45.8,35 44.6,34.3 46,33.5 48.9,33.2 47.3,34.5 			"/>
			<polygon class="st1" points="75.6,55.8 45.8,38.6 45.8,35 78.7,50.4 			"/>
			<polygon class="st4" points="78.7,50.4 78,51.7 75.6,52.2 45.8,35 48.9,33.2 			"/>
			<g>
				<polygon class="st0" points="51.3,37.1 52.5,36.4 52.3,36.4 51.2,37 				"/>
				<polygon class="st1" points="51.2,37 51.3,37.1 51.4,36.4 51.7,35.7 51.9,35.6 52.2,35.7 52.2,36.4 52.3,36.5 52.4,36.2 
					52.3,35.7 52.1,35.4 52,35.3 51.5,35.6 51.2,36.2 				"/>
				<polygon class="st2" points="51.3,37.1 51.5,37 51.5,36.3 51.7,35.8 52.1,35.6 52.3,35.8 52.3,36.5 52.5,36.4 52.5,35.6 
					52.1,35.4 51.6,35.7 51.3,36.3 				"/>
			</g>
			<g>
				<polygon class="st0" points="72.1,49.1 73.3,48.5 73.2,48.4 72,49 				"/>
				<polygon class="st1" points="72,49 72.1,49.1 72.2,48.4 72.5,47.7 72.8,47.6 73,47.7 73,48.5 73.1,48.5 73.2,48.2 73.2,47.7 
					73,47.4 72.8,47.4 72.3,47.6 72,48.2 				"/>
				<polygon class="st2" points="72.1,49.1 72.3,49 72.3,48.3 72.5,47.9 72.9,47.7 73.1,47.8 73.1,48.5 73.3,48.5 73.3,47.6 
					73,47.4 72.5,47.7 72.1,48.3 				"/>
			</g>
			<polygon class="st11" points="78.5,55.6 75.6,55.8 75.6,52.2 79.9,53.1 			"/>
			<polygon class="st12" points="79.9,53.1 79.3,54.1 78.5,53.9 75.6,52.2 78.7,50.4 			"/>
			<polygon class="st2" points="79.9,54.7 78.5,55.6 78.5,53.9 79.9,53.1 			"/>
		</g>
		<g>
			<g>
				<polygon class="st5" points="68.5,49.6 67.1,48.8 81.8,40.3 83.2,41.1 				"/>
				<polygon class="st6" points="68.5,50.2 67.1,49.4 67.1,48.8 68.5,49.6 68.5,49.7 				"/>
				<polygon class="st7" points="83.2,41.7 69.6,49.6 68.5,50.2 68.5,49.6 83.2,41.1 				"/>
			</g>
			<g>
				<polygon class="st5" points="50.2,39.1 48.8,38.2 63.5,29.7 64.9,30.6 				"/>
				<polygon class="st6" points="50.2,39.7 48.8,38.9 48.8,38.2 50.2,39.1 50.3,39.1 				"/>
				<polygon class="st7" points="64.9,31.2 50.2,39.7 50.2,39.1 64.9,30.6 				"/>
			</g>
		</g>
		<g>
			<polygon class="st9" points="54.1,29.6 52.9,27 52.9,25.3 57.2,24.2 			"/>
			<polygon class="st10" points="54.1,26 52.9,25.3 54.4,24.5 57.2,24.2 55.6,25.5 			"/>
			<polygon class="st1" points="83.9,46.8 54.1,29.6 54.1,26 87,41.4 			"/>
			<polygon class="st8" points="87,41.4 86.4,42.7 83.9,43.2 54.1,26 57.2,24.2 			"/>
			<g>
				<polygon class="st0" points="59.6,28.1 60.8,27.4 60.7,27.3 59.5,28 				"/>
				<polygon class="st1" points="59.5,28 59.6,28.1 59.7,27.3 60,26.7 60.3,26.5 60.5,26.7 60.5,27.4 60.6,27.5 60.7,27.2 
					60.7,26.7 60.4,26.4 60.3,26.3 59.8,26.6 59.5,27.2 				"/>
				<polygon class="st2" points="59.6,28.1 59.8,28 59.8,27.2 60,26.8 60.4,26.6 60.6,26.7 60.6,27.5 60.8,27.4 60.8,26.6 
					60.4,26.4 60,26.7 59.6,27.2 				"/>
			</g>
			<g>
				<polygon class="st0" points="80.5,40.1 81.6,39.4 81.5,39.4 80.3,40 				"/>
				<polygon class="st1" points="80.3,40 80.5,40.1 80.5,39.4 80.9,38.7 81.1,38.6 81.3,38.7 81.3,39.4 81.5,39.5 81.5,39.2 
					81.5,38.7 81.3,38.4 81.2,38.3 80.7,38.6 80.3,39.2 				"/>
				<polygon class="st2" points="80.5,40.1 80.6,40 80.6,39.3 80.9,38.8 81.2,38.6 81.5,38.8 81.5,39.5 81.6,39.4 81.6,38.6 
					81.3,38.4 80.8,38.7 80.5,39.3 				"/>
			</g>
			<polygon class="st11" points="86.8,46.5 83.9,46.8 83.9,43.2 88.2,44 			"/>
			<polygon class="st12" points="88.2,44 87.7,45.1 86.8,44.9 83.9,43.2 87,41.4 			"/>
			<polygon class="st2" points="88.2,45.7 86.8,46.5 86.8,44.9 88.2,44 			"/>
		</g>
		<g>
			<polygon class="st9" points="49.9,32 48.7,29.4 48.7,27.7 53.1,26.6 			"/>
			<polygon class="st10" points="49.9,28.4 48.7,27.7 50.2,26.9 53.1,26.6 51.5,27.9 			"/>
			<polygon class="st1" points="79.7,49.2 49.9,32 49.9,28.4 82.9,43.8 			"/>
			<polygon class="st8" points="82.9,43.8 82.2,45.1 79.7,45.6 49.9,28.4 53.1,26.6 			"/>
			<g>
				<polygon class="st0" points="55.5,30.5 56.6,29.8 56.5,29.7 55.3,30.4 				"/>
				<polygon class="st1" points="55.3,30.4 55.5,30.5 55.5,29.7 55.9,29.1 56.1,28.9 56.3,29.1 56.3,29.8 56.5,29.9 56.5,29.6 
					56.5,29.1 56.3,28.8 56.2,28.7 55.7,29 55.3,29.6 				"/>
				<polygon class="st2" points="55.5,30.5 55.6,30.4 55.6,29.6 55.9,29.2 56.2,29 56.5,29.2 56.5,29.9 56.6,29.8 56.6,29 
					56.3,28.8 55.8,29.1 55.5,29.7 				"/>
			</g>
			<g>
				<polygon class="st0" points="76.3,42.5 77.4,41.8 77.3,41.8 76.2,42.4 				"/>
				<polygon class="st1" points="76.2,42.4 76.3,42.5 76.4,41.8 76.7,41.1 76.9,41 77.2,41.1 77.2,41.8 77.3,41.9 77.3,41.6 
					77.3,41.1 77.1,40.8 77,40.7 76.5,41 76.2,41.6 				"/>
				<polygon class="st2" points="76.3,42.5 76.5,42.4 76.5,41.7 76.7,41.2 77,41 77.3,41.2 77.3,41.9 77.4,41.8 77.4,41 77.1,40.8 
					76.6,41.1 76.3,41.7 				"/>
			</g>
			<polygon class="st11" points="82.6,49 79.7,49.2 79.7,45.6 84.1,46.4 			"/>
			<polygon class="st12" points="84.1,46.4 83.5,47.5 82.6,47.3 79.7,45.6 82.9,43.8 			"/>
			<polygon class="st2" points="84.1,48.1 82.6,49 82.6,47.3 84.1,46.4 			"/>
		</g>
		<g>
			<polygon class="st9" points="45.8,34.4 44.6,31.8 44.6,30.1 48.9,29 			"/>
			<polygon class="st10" points="45.8,30.8 44.6,30.1 46,29.3 48.9,29 47.3,30.3 			"/>
			<polygon class="st1" points="75.6,51.6 45.8,34.4 45.8,30.8 78.7,46.2 			"/>
			<polygon class="st4" points="78.7,46.2 78,47.5 75.6,48 45.8,30.8 48.9,29 			"/>
			<g>
				<polygon class="st0" points="51.3,32.9 52.5,32.2 52.3,32.1 51.2,32.8 				"/>
				<polygon class="st1" points="51.2,32.8 51.3,32.9 51.4,32.1 51.7,31.5 51.9,31.3 52.2,31.5 52.2,32.2 52.3,32.3 52.4,32 
					52.3,31.5 52.1,31.2 52,31.1 51.5,31.4 51.2,32 				"/>
				<polygon class="st2" points="51.3,32.9 51.5,32.8 51.5,32 51.7,31.6 52.1,31.4 52.3,31.6 52.3,32.3 52.5,32.2 52.5,31.4 
					52.1,31.2 51.6,31.5 51.3,32.1 				"/>
			</g>
			<g>
				<polygon class="st0" points="72.1,44.9 73.3,44.2 73.2,44.2 72,44.8 				"/>
				<polygon class="st1" points="72,44.8 72.1,44.9 72.2,44.2 72.5,43.5 72.8,43.4 73,43.5 73,44.2 73.1,44.3 73.2,44 73.2,43.5 
					73,43.2 72.8,43.1 72.3,43.4 72,44 				"/>
				<polygon class="st2" points="72.1,44.9 72.3,44.8 72.3,44.1 72.5,43.6 72.9,43.4 73.1,43.6 73.1,44.3 73.3,44.2 73.3,43.4 
					73,43.2 72.5,43.5 72.1,44.1 				"/>
			</g>
			<polygon class="st11" points="78.5,51.4 75.6,51.6 75.6,48 79.9,48.8 			"/>
			<polygon class="st12" points="79.9,48.8 79.3,49.9 78.5,49.7 75.6,48 78.7,46.2 			"/>
			<polygon class="st2" points="79.9,50.5 78.5,51.4 78.5,49.7 79.9,48.8 			"/>
		</g>
		<g>
			<g>
				<polygon class="st5" points="68.5,45.4 67.1,44.5 81.8,36 83.2,36.9 				"/>
				<polygon class="st6" points="68.5,46 67.1,45.2 67.1,44.5 68.5,45.4 68.5,45.4 				"/>
				<polygon class="st7" points="83.2,37.5 69.6,45.4 68.5,46 68.5,45.4 83.2,36.9 				"/>
			</g>
			<g>
				<polygon class="st5" points="50.2,34.8 48.8,34 63.5,25.5 64.9,26.3 				"/>
				<polygon class="st6" points="50.2,35.5 48.8,34.6 48.8,34 50.2,34.8 50.3,34.9 				"/>
				<polygon class="st7" points="64.9,27 50.2,35.5 50.2,34.8 64.9,26.3 				"/>
			</g>
		</g>
		<g>
			<polygon class="st9" points="54.1,25.4 52.9,22.8 52.9,21.1 57.2,20 			"/>
			<polygon class="st10" points="54.1,21.8 52.9,21.1 54.4,20.2 57.2,20 55.6,21.3 			"/>
			<polygon class="st1" points="83.9,42.6 54.1,25.4 54.1,21.8 87,37.2 			"/>
			<polygon class="st8" points="87,37.2 86.4,38.4 83.9,39 54.1,21.8 57.2,20 			"/>
			<g>
				<polygon class="st0" points="59.6,23.8 60.8,23.2 60.7,23.1 59.5,23.8 				"/>
				<polygon class="st1" points="59.5,23.8 59.6,23.8 59.7,23.1 60,22.4 60.3,22.3 60.5,22.4 60.5,23.2 60.6,23.3 60.7,23 
					60.7,22.5 60.4,22.2 60.3,22.1 59.8,22.4 59.5,22.9 				"/>
				<polygon class="st2" points="59.6,23.8 59.8,23.8 59.8,23 60,22.6 60.4,22.4 60.6,22.5 60.6,23.3 60.8,23.2 60.8,22.4 
					60.4,22.2 60,22.4 59.6,23 				"/>
			</g>
			<g>
				<polygon class="st0" points="80.5,35.9 81.6,35.2 81.5,35.1 80.3,35.8 				"/>
				<polygon class="st1" points="80.3,35.8 80.5,35.9 80.5,35.1 80.9,34.5 81.1,34.3 81.3,34.5 81.3,35.2 81.5,35.3 81.5,35 
					81.5,34.5 81.3,34.2 81.2,34.1 80.7,34.4 80.3,35 				"/>
				<polygon class="st2" points="80.5,35.9 80.6,35.8 80.6,35 80.9,34.6 81.2,34.4 81.5,34.6 81.5,35.3 81.6,35.2 81.6,34.4 
					81.3,34.2 80.8,34.5 80.5,35.1 				"/>
			</g>
			<polygon class="st11" points="86.8,42.3 83.9,42.6 83.9,39 88.2,39.8 			"/>
			<polygon class="st12" points="88.2,39.8 87.7,40.9 86.8,40.6 83.9,39 87,37.2 			"/>
			<polygon class="st2" points="88.2,41.5 86.8,42.3 86.8,40.6 88.2,39.8 			"/>
		</g>
		<g>
			<polygon class="st9" points="49.9,27.8 48.7,25.2 48.7,23.5 53.1,22.4 			"/>
			<polygon class="st10" points="49.9,24.2 48.7,23.5 50.2,22.6 53.1,22.4 51.5,23.7 			"/>
			<polygon class="st1" points="79.7,45 49.9,27.8 49.9,24.2 82.9,39.6 			"/>
			<polygon class="st8" points="82.9,39.6 82.2,40.8 79.7,41.4 49.9,24.2 53.1,22.4 			"/>
			<g>
				<polygon class="st0" points="55.5,26.2 56.6,25.6 56.5,25.5 55.3,26.2 				"/>
				<polygon class="st1" points="55.3,26.2 55.5,26.2 55.5,25.5 55.9,24.8 56.1,24.7 56.3,24.9 56.3,25.6 56.5,25.7 56.5,25.4 
					56.5,24.9 56.3,24.6 56.2,24.5 55.7,24.8 55.3,25.4 				"/>
				<polygon class="st2" points="55.5,26.2 55.6,26.2 55.6,25.4 55.9,25 56.2,24.8 56.5,24.9 56.5,25.7 56.6,25.6 56.6,24.8 
					56.3,24.6 55.8,24.8 55.5,25.4 				"/>
			</g>
			<g>
				<polygon class="st0" points="76.3,38.3 77.4,37.6 77.3,37.5 76.2,38.2 				"/>
				<polygon class="st1" points="76.2,38.2 76.3,38.3 76.4,37.5 76.7,36.9 76.9,36.7 77.2,36.9 77.2,37.6 77.3,37.7 77.3,37.4 
					77.3,36.9 77.1,36.6 77,36.5 76.5,36.8 76.2,37.4 				"/>
				<polygon class="st2" points="76.3,38.3 76.5,38.2 76.5,37.4 76.7,37 77,36.8 77.3,37 77.3,37.7 77.4,37.6 77.4,36.8 77.1,36.6 
					76.6,36.9 76.3,37.5 				"/>
			</g>
			<polygon class="st11" points="82.6,44.7 79.7,45 79.7,41.4 84.1,42.2 			"/>
			<polygon class="st12" points="84.1,42.2 83.5,43.3 82.6,43.1 79.7,41.4 82.9,39.6 			"/>
			<polygon class="st2" points="84.1,43.9 82.6,44.7 82.6,43.1 84.1,42.2 			"/>
		</g>
		<g>
			<polygon class="st9" points="45.8,30.2 44.6,27.6 44.6,25.9 48.9,24.8 			"/>
			<polygon class="st10" points="45.8,26.6 44.6,25.9 46,25 48.9,24.8 47.3,26.1 			"/>
			<polygon class="st1" points="75.6,47.4 45.8,30.2 45.8,26.6 78.7,42 			"/>
			<polygon class="st4" points="78.7,42 78,43.2 75.6,43.8 45.8,26.6 48.9,24.8 			"/>
			<g>
				<polygon class="st0" points="51.3,28.7 52.5,28 52.3,27.9 51.2,28.6 				"/>
				<polygon class="st1" points="51.2,28.6 51.3,28.7 51.4,27.9 51.7,27.2 51.9,27.1 52.2,27.3 52.2,28 52.3,28.1 52.4,27.8 
					52.3,27.3 52.1,27 52,26.9 51.5,27.2 51.2,27.8 				"/>
				<polygon class="st2" points="51.3,28.7 51.5,28.6 51.5,27.8 51.7,27.4 52.1,27.2 52.3,27.3 52.3,28.1 52.5,28 52.5,27.2 
					52.1,27 51.6,27.2 51.3,27.8 				"/>
			</g>
			<g>
				<polygon class="st0" points="72.1,40.7 73.3,40 73.2,39.9 72,40.6 				"/>
				<polygon class="st1" points="72,40.6 72.1,40.7 72.2,39.9 72.5,39.3 72.8,39.1 73,39.3 73,40 73.1,40.1 73.2,39.8 73.2,39.3 
					73,39 72.8,38.9 72.3,39.2 72,39.8 				"/>
				<polygon class="st2" points="72.1,40.7 72.3,40.6 72.3,39.8 72.5,39.4 72.9,39.2 73.1,39.4 73.1,40.1 73.3,40 73.3,39.2 73,39 
					72.5,39.3 72.1,39.9 				"/>
			</g>
			<polygon class="st11" points="78.5,47.1 75.6,47.4 75.6,43.8 79.9,44.6 			"/>
			<polygon class="st12" points="79.9,44.6 79.3,45.7 78.5,45.5 75.6,43.8 78.7,42 			"/>
			<polygon class="st2" points="79.9,46.3 78.5,47.1 78.5,45.5 79.9,44.6 			"/>
		</g>
		<g>
			<g>
				<polygon class="st5" points="68.5,41.2 67.1,40.3 81.8,31.8 83.2,32.7 				"/>
				<polygon class="st6" points="68.5,41.8 67.1,40.9 67.1,40.3 68.5,41.2 68.5,41.2 				"/>
				<polygon class="st7" points="83.2,33.3 69.6,41.1 68.5,41.8 68.5,41.2 83.2,32.7 				"/>
			</g>
			<g>
				<polygon class="st5" points="50.2,30.6 48.8,29.8 63.5,21.3 64.9,22.1 				"/>
				<polygon class="st6" points="50.2,31.2 48.8,30.4 48.8,29.8 50.2,30.6 50.3,30.7 				"/>
				<polygon class="st7" points="64.9,22.8 50.2,31.2 50.2,30.6 64.9,22.1 				"/>
			</g>
		</g>
		<g>
			<polygon class="st9" points="54.1,21.2 52.9,18.5 52.9,16.9 57.2,15.8 			"/>
			<polygon class="st10" points="54.1,17.6 52.9,16.9 54.4,16 57.2,15.8 55.6,17.1 			"/>
			<polygon class="st1" points="83.9,38.4 54.1,21.2 54.1,17.6 87,33 			"/>
			<polygon class="st8" points="87,33 86.4,34.2 83.9,34.8 54.1,17.6 57.2,15.8 			"/>
			<g>
				<polygon class="st0" points="59.6,19.6 60.8,19 60.7,18.9 59.5,19.5 				"/>
				<polygon class="st1" points="59.5,19.5 59.6,19.6 59.7,18.9 60,18.2 60.3,18.1 60.5,18.2 60.5,19 60.6,19 60.7,18.8 60.7,18.2 
					60.4,17.9 60.3,17.9 59.8,18.1 59.5,18.7 				"/>
				<polygon class="st2" points="59.6,19.6 59.8,19.5 59.8,18.8 60,18.4 60.4,18.2 60.6,18.3 60.6,19 60.8,19 60.8,18.1 60.4,17.9 
					60,18.2 59.6,18.8 				"/>
			</g>
			<g>
				<polygon class="st0" points="80.5,31.6 81.6,31 81.5,30.9 80.3,31.6 				"/>
				<polygon class="st1" points="80.3,31.6 80.5,31.6 80.5,30.9 80.9,30.2 81.1,30.1 81.3,30.3 81.3,31 81.5,31.1 81.5,30.8 
					81.5,30.3 81.3,30 81.2,29.9 80.7,30.2 80.3,30.8 				"/>
				<polygon class="st2" points="80.5,31.6 80.6,31.6 80.6,30.8 80.9,30.4 81.2,30.2 81.5,30.3 81.5,31.1 81.6,31 81.6,30.2 
					81.3,30 80.8,30.2 80.5,30.8 				"/>
			</g>
			<polygon class="st11" points="86.8,38.1 83.9,38.4 83.9,34.8 88.2,35.6 			"/>
			<polygon class="st12" points="88.2,35.6 87.7,36.7 86.8,36.4 83.9,34.8 87,33 			"/>
			<polygon class="st2" points="88.2,37.3 86.8,38.1 86.8,36.4 88.2,35.6 			"/>
		</g>
		<g>
			<polygon class="st9" points="49.9,23.6 48.7,21 48.7,19.3 53.1,18.2 			"/>
			<polygon class="st10" points="49.9,20 48.7,19.3 50.2,18.4 53.1,18.2 51.5,19.5 			"/>
			<polygon class="st1" points="79.7,40.8 49.9,23.6 49.9,20 82.9,35.4 			"/>
			<polygon class="st8" points="82.9,35.4 82.2,36.6 79.7,37.2 49.9,20 53.1,18.2 			"/>
			<g>
				<polygon class="st0" points="55.5,22 56.6,21.4 56.5,21.3 55.3,22 				"/>
				<polygon class="st1" points="55.3,22 55.5,22 55.5,21.3 55.9,20.6 56.1,20.5 56.3,20.6 56.3,21.4 56.5,21.5 56.5,21.2 
					56.5,20.6 56.3,20.4 56.2,20.3 55.7,20.6 55.3,21.1 				"/>
				<polygon class="st2" points="55.5,22 55.6,21.9 55.6,21.2 55.9,20.8 56.2,20.6 56.5,20.7 56.5,21.5 56.6,21.4 56.6,20.5 
					56.3,20.4 55.8,20.6 55.5,21.2 				"/>
			</g>
			<g>
				<polygon class="st0" points="76.3,34.1 77.4,33.4 77.3,33.3 76.2,34 				"/>
				<polygon class="st1" points="76.2,34 76.3,34.1 76.4,33.3 76.7,32.7 76.9,32.5 77.2,32.7 77.2,33.4 77.3,33.5 77.3,33.2 
					77.3,32.7 77.1,32.4 77,32.3 76.5,32.6 76.2,33.2 				"/>
				<polygon class="st2" points="76.3,34.1 76.5,34 76.5,33.2 76.7,32.8 77,32.6 77.3,32.7 77.3,33.5 77.4,33.4 77.4,32.6 
					77.1,32.4 76.6,32.7 76.3,33.2 				"/>
			</g>
			<polygon class="st11" points="82.6,40.5 79.7,40.8 79.7,37.2 84.1,38 			"/>
			<polygon class="st12" points="84.1,38 83.5,39.1 82.6,38.8 79.7,37.2 82.9,35.4 			"/>
			<polygon class="st2" points="84.1,39.7 82.6,40.5 82.6,38.8 84.1,38 			"/>
		</g>
		<g>
			<polygon class="st9" points="45.8,26 44.6,23.4 44.6,21.7 48.9,20.6 			"/>
			<polygon class="st10" points="45.8,22.4 44.6,21.7 46,20.8 48.9,20.6 47.3,21.9 			"/>
			<polygon class="st1" points="75.6,43.2 45.8,26 45.8,22.4 78.7,37.8 			"/>
			<polygon class="st8" points="78.7,37.8 78,39 75.6,39.6 45.8,22.4 48.9,20.6 			"/>
			<g>
				<polygon class="st0" points="51.3,24.4 52.5,23.8 52.3,23.7 51.2,24.4 				"/>
				<polygon class="st1" points="51.2,24.4 51.3,24.4 51.4,23.7 51.7,23 51.9,22.9 52.2,23 52.2,23.8 52.3,23.9 52.4,23.6 52.3,23 
					52.1,22.8 52,22.7 51.5,23 51.2,23.5 				"/>
				<polygon class="st2" points="51.3,24.4 51.5,24.3 51.5,23.6 51.7,23.2 52.1,23 52.3,23.1 52.3,23.9 52.5,23.8 52.5,22.9 
					52.1,22.8 51.6,23 51.3,23.6 				"/>
			</g>
			<g>
				<polygon class="st0" points="72.1,36.5 73.3,35.8 73.2,35.7 72,36.4 				"/>
				<polygon class="st1" points="72,36.4 72.1,36.5 72.2,35.7 72.5,35.1 72.8,34.9 73,35.1 73,35.8 73.1,35.9 73.2,35.6 73.2,35.1 
					73,34.8 72.8,34.7 72.3,35 72,35.6 				"/>
				<polygon class="st2" points="72.1,36.5 72.3,36.4 72.3,35.6 72.5,35.2 72.9,35 73.1,35.1 73.1,35.9 73.3,35.8 73.3,35 73,34.8 
					72.5,35.1 72.1,35.6 				"/>
			</g>
			<polygon class="st11" points="78.5,42.9 75.6,43.2 75.6,39.6 79.9,40.4 			"/>
			<polygon class="st12" points="79.9,40.4 79.3,41.5 78.5,41.2 75.6,39.6 78.7,37.8 			"/>
			<polygon class="st2" points="79.9,42.1 78.5,42.9 78.5,41.2 79.9,40.4 			"/>
		</g>
	</g>
	<g>
		<polygon class="st0" points="51.9,67 21.8,49.6 40.1,39.1 70.1,56.4 		"/>
		<g>
			<polygon class="st1" points="68.9,57.2 38.8,39.8 38.8,32.4 69.4,48.8 			"/>
			<polygon class="st1" points="51.9,67 21.8,49.6 21.8,40.8 52.7,57.7 			"/>
			<polygon class="st8" points="51.9,58.2 21.8,40.8 40.1,30.3 70.1,47.7 64,52 			"/>
			<polygon class="st2" points="51.9,58.2 51.9,67 53.2,66.3 53.2,58.9 68.9,49.8 68.9,57.2 70.1,56.4 70.1,47.7 			"/>
		</g>
		<g>
			<polygon class="st0" points="47.6,54.5 46.2,53.7 46.3,53.6 47.7,54.4 			"/>
			<polygon class="st2" points="47.7,54.4 47.6,54.5 47.5,53.6 47.1,52.8 46.8,52.6 46.5,52.8 46.5,53.7 46.4,53.8 46.3,53.4 
				46.3,52.8 46.6,52.5 46.7,52.4 47.3,52.7 47.7,53.4 			"/>
			<polygon class="st1" points="47.6,54.5 47.4,54.4 47.4,53.5 47.1,53 46.6,52.7 46.4,52.9 46.4,53.8 46.2,53.7 46.2,52.7 
				46.6,52.5 47.1,52.8 47.6,53.5 			"/>
		</g>
		<g>
			<polygon class="st0" points="28.8,43.7 27.5,42.9 27.6,42.8 29,43.6 			"/>
			<polygon class="st2" points="29,43.6 28.8,43.7 28.8,42.8 28.4,42 28.1,41.8 27.8,42 27.8,42.9 27.6,43 27.6,42.6 27.6,42 
				27.9,41.7 28,41.6 28.6,41.9 29,42.6 			"/>
			<polygon class="st1" points="28.8,43.7 28.7,43.6 28.7,42.7 28.4,42.2 27.9,41.9 27.6,42.1 27.6,43 27.5,42.9 27.5,41.9 
				27.9,41.7 28.4,42 28.8,42.7 			"/>
		</g>
		<g>
			<polygon class="st0" points="45,34.4 43.6,33.6 43.7,33.5 45.1,34.3 			"/>
			<polygon class="st2" points="45.1,34.3 45,34.4 44.9,33.5 44.5,32.7 44.2,32.5 43.9,32.7 43.9,33.6 43.8,33.7 43.7,33.3 
				43.7,32.7 44,32.3 44.1,32.3 44.7,32.6 45.1,33.3 			"/>
			<polygon class="st1" points="45,34.4 44.8,34.3 44.8,33.4 44.5,32.9 44.1,32.6 43.8,32.8 43.8,33.7 43.6,33.6 43.6,32.6 44,32.3 
				44.6,32.7 45,33.4 			"/>
		</g>
		<g>
			<polygon class="st0" points="63.7,45.2 62.3,44.4 62.4,44.3 63.8,45.1 			"/>
			<polygon class="st2" points="63.8,45.1 63.7,45.2 63.6,44.3 63.2,43.5 62.9,43.3 62.6,43.5 62.6,44.4 62.5,44.5 62.4,44.1 
				62.4,43.5 62.7,43.2 62.9,43.1 63.4,43.4 63.8,44.1 			"/>
			<polygon class="st1" points="63.7,45.2 63.5,45.1 63.5,44.2 63.2,43.7 62.8,43.4 62.5,43.6 62.5,44.5 62.3,44.4 62.3,43.4 
				62.7,43.2 63.3,43.5 63.7,44.2 			"/>
		</g>
	</g>
	<polygon class="st13" points="53.8,55.9 23.7,38.5 36.5,31.1 66.5,48.5 	"/>
	<polygon class="st14" points="65.2,49.2 35.2,31.9 35.2,24.4 65.8,40.8 	"/>
	<polygon class="st14" points="53.8,55.9 23.7,38.5 23.7,29.7 54.6,46.6 	"/>
	<polygon class="st15" points="53.8,47.1 23.7,29.7 36.5,22.4 66.5,39.7 60.4,44 	"/>
	<polygon class="st16" points="53.8,47.1 53.8,55.9 55,55.1 55,47.8 65.2,41.9 65.2,49.2 66.5,48.5 66.5,39.7 	"/>
	<g>
		<polygon class="st0" points="49.4,43.3 48,42.5 48.2,42.5 49.6,43.3 		"/>
		<polygon class="st2" points="49.6,43.3 49.4,43.3 49.4,42.5 49,41.7 48.7,41.5 48.4,41.7 48.4,42.6 48.2,42.7 48.2,42.3 
			48.2,41.7 48.5,41.3 48.6,41.2 49.2,41.6 49.6,42.3 		"/>
		<polygon class="st1" points="49.4,43.3 49.3,43.2 49.3,42.3 49,41.8 48.5,41.6 48.2,41.8 48.2,42.7 48,42.5 48,41.6 48.5,41.3 
			49,41.7 49.4,42.4 		"/>
	</g>
	<g>
		<polygon class="st0" points="30.7,32.5 29.3,31.7 29.5,31.7 30.9,32.5 		"/>
		<polygon class="st2" points="30.9,32.5 30.7,32.5 30.7,31.6 30.2,30.8 30,30.7 29.7,30.9 29.7,31.8 29.5,31.9 29.5,31.5 
			29.5,30.9 29.7,30.5 29.9,30.4 30.5,30.8 30.9,31.5 		"/>
		<polygon class="st1" points="30.7,32.5 30.5,32.4 30.5,31.5 30.2,31 29.8,30.8 29.5,31 29.5,31.9 29.3,31.7 29.3,30.8 29.7,30.5 
			30.3,30.8 30.7,31.6 		"/>
	</g>
	<g>
		<polygon class="st0" points="60,37.2 58.7,36.4 58.8,36.3 60.2,37.1 		"/>
		<polygon class="st2" points="60.2,37.1 60,37.2 60,36.3 59.6,35.5 59.3,35.4 59,35.5 59,36.4 58.8,36.5 58.8,36.2 58.8,35.5 
			59.1,35.2 59.2,35.1 59.8,35.4 60.2,36.1 		"/>
		<polygon class="st1" points="60,37.2 59.9,37.1 59.9,36.2 59.6,35.7 59.1,35.5 58.8,35.6 58.8,36.5 58.7,36.4 58.7,35.4 
			59.1,35.2 59.6,35.5 60,36.2 		"/>
	</g>
	<g>
		<polygon class="st0" points="41.3,26.4 39.9,25.6 40.1,25.5 41.5,26.3 		"/>
		<polygon class="st2" points="41.5,26.3 41.3,26.4 41.3,25.5 40.8,24.7 40.6,24.6 40.3,24.7 40.3,25.6 40.1,25.7 40.1,25.4 
			40.1,24.7 40.4,24.4 40.5,24.3 41.1,24.6 41.5,25.3 		"/>
		<polygon class="st1" points="41.3,26.4 41.1,26.3 41.1,25.4 40.9,24.9 40.4,24.7 40.1,24.8 40.1,25.7 39.9,25.6 39.9,24.6 
			40.4,24.4 40.9,24.7 41.3,25.4 		"/>
	</g>
	<g>
		<g>
			<polygon class="st0" points="30,77.9 0,60.6 18.3,50 48.3,67.4 			"/>
			<g>
				<polygon class="st1" points="47,68.1 17,50.8 17,48.4 47.6,64.8 				"/>
				<polygon class="st1" points="30,77.9 0,60.6 0,56.9 30.9,73.7 				"/>
				<polygon class="st4" points="30,74.2 0,56.9 18.3,46.3 48.3,63.7 42.1,68 				"/>
				<polygon class="st2" points="30,74.2 30,77.9 31.3,77.2 31.3,74.9 47,65.8 47,68.1 48.3,67.4 48.3,63.7 				"/>
			</g>
			<g>
				<polygon class="st0" points="25.7,70.5 24.3,69.7 24.5,69.6 25.9,70.4 				"/>
				<polygon class="st2" points="25.9,70.4 25.7,70.5 25.6,69.6 25.2,68.8 25,68.6 24.7,68.8 24.7,69.7 24.5,69.8 24.5,69.4 
					24.5,68.8 24.7,68.5 24.9,68.4 25.5,68.7 25.9,69.4 				"/>
				<polygon class="st1" points="25.7,70.5 25.5,70.4 25.5,69.5 25.2,69 24.8,68.7 24.5,68.9 24.5,69.8 24.3,69.7 24.3,68.7 
					24.7,68.5 25.3,68.8 25.7,69.5 				"/>
			</g>
			<g>
				<polygon class="st0" points="7,59.7 5.6,58.9 5.8,58.8 7.2,59.6 				"/>
				<polygon class="st2" points="7.2,59.6 7,59.7 6.9,58.8 6.5,58 6.3,57.8 6,58 6,58.9 5.8,59 5.7,58.6 5.8,58 6,57.7 6.2,57.6 
					6.8,57.9 7.2,58.6 				"/>
				<polygon class="st1" points="7,59.7 6.8,59.6 6.8,58.7 6.5,58.2 6.1,57.9 5.8,58.1 5.8,59 5.6,58.9 5.6,57.9 6,57.7 6.6,58 
					7,58.7 				"/>
			</g>
			<g>
				<polygon class="st0" points="23.1,50.4 21.7,49.6 21.9,49.5 23.3,50.3 				"/>
				<polygon class="st2" points="23.3,50.3 23.1,50.4 23.1,49.5 22.6,48.7 22.4,48.5 22.1,48.7 22.1,49.6 21.9,49.7 21.9,49.3 
					21.9,48.7 22.1,48.3 22.3,48.3 22.9,48.6 23.3,49.3 				"/>
				<polygon class="st1" points="23.1,50.4 22.9,50.3 22.9,49.4 22.6,48.9 22.2,48.6 21.9,48.8 21.9,49.7 21.7,49.6 21.7,48.6 
					22.1,48.3 22.7,48.7 23.1,49.4 				"/>
			</g>
			<g>
				<polygon class="st0" points="41.8,61.2 40.5,60.4 40.6,60.3 42,61.1 				"/>
				<polygon class="st2" points="42,61.1 41.8,61.2 41.8,60.3 41.4,59.5 41.1,59.3 40.8,59.5 40.8,60.4 40.6,60.5 40.6,60.1 
					40.6,59.5 40.9,59.2 41,59.1 41.6,59.4 42,60.1 				"/>
				<polygon class="st1" points="41.8,61.2 41.7,61.1 41.7,60.2 41.4,59.7 40.9,59.4 40.6,59.6 40.6,60.5 40.5,60.4 40.5,59.4 
					40.9,59.2 41.4,59.5 41.8,60.2 				"/>
			</g>
		</g>
		<g>
			<g>
				<polygon class="st5" points="20.3,69.8 18.9,69 39.9,56.8 41.3,57.7 				"/>
				<polygon class="st6" points="20.3,70.4 18.9,69.6 18.9,69 20.3,69.8 20.3,69.9 				"/>
				<polygon class="st7" points="41.3,58.3 21.4,69.8 20.3,70.4 20.3,69.8 41.3,57.7 				"/>
			</g>
			<g>
				<polygon class="st5" points="7,62.1 5.5,61.2 26.5,49.1 28,49.9 				"/>
				<polygon class="st6" points="7,62.7 5.5,61.9 5.5,61.2 7,62.1 7,62.2 				"/>
				<polygon class="st7" points="28,50.6 7,62.7 7,62.1 28,49.9 				"/>
			</g>
		</g>
		<g>
			<g>
				<polygon class="st1" points="47,63.7 17,46.4 17,44 47.6,60.4 				"/>
				<polygon class="st1" points="30,73.6 0,56.2 0,52.5 30.9,69.3 				"/>
				<polygon class="st4" points="30,69.8 0,52.5 18.3,41.9 48.3,59.3 42.1,63.6 				"/>
				<polygon class="st2" points="30,69.8 30,73.6 31.3,72.8 31.3,70.6 47,61.5 47,63.7 48.3,63 48.3,59.3 				"/>
			</g>
			<g>
				<polygon class="st0" points="25.7,66.1 24.3,65.3 24.5,65.2 25.9,66 				"/>
				<polygon class="st2" points="25.9,66 25.7,66.1 25.6,65.2 25.2,64.4 25,64.3 24.7,64.4 24.7,65.3 24.5,65.4 24.5,65.1 
					24.5,64.4 24.7,64.1 24.9,64 25.5,64.3 25.9,65 				"/>
				<polygon class="st1" points="25.7,66.1 25.5,66 25.5,65.1 25.2,64.6 24.8,64.4 24.5,64.5 24.5,65.4 24.3,65.3 24.3,64.3 
					24.7,64.1 25.3,64.4 25.7,65.1 				"/>
			</g>
			<g>
				<polygon class="st0" points="7,55.3 5.6,54.5 5.8,54.4 7.2,55.2 				"/>
				<polygon class="st2" points="7.2,55.2 7,55.3 6.9,54.4 6.5,53.6 6.3,53.5 6,53.6 6,54.5 5.8,54.6 5.7,54.3 5.8,53.6 6,53.3 
					6.2,53.2 6.8,53.5 7.2,54.2 				"/>
				<polygon class="st1" points="7,55.3 6.8,55.2 6.8,54.3 6.5,53.8 6.1,53.6 5.8,53.7 5.8,54.6 5.6,54.5 5.6,53.5 6,53.3 6.6,53.6 
					7,54.3 				"/>
			</g>
			<g>
				<polygon class="st0" points="23.1,46 21.7,45.2 21.9,45.1 23.3,45.9 				"/>
				<polygon class="st2" points="23.3,45.9 23.1,46 23.1,45.1 22.6,44.3 22.4,44.2 22.1,44.3 22.1,45.2 21.9,45.3 21.9,45 
					21.9,44.3 22.1,44 22.3,43.9 22.9,44.2 23.3,44.9 				"/>
				<polygon class="st1" points="23.1,46 22.9,45.9 22.9,45 22.6,44.5 22.2,44.2 21.9,44.4 21.9,45.3 21.7,45.2 21.7,44.2 22.1,44 
					22.7,44.3 23.1,45 				"/>
			</g>
			<g>
				<polygon class="st0" points="41.8,56.8 40.5,56 40.6,55.9 42,56.7 				"/>
				<polygon class="st2" points="42,56.7 41.8,56.8 41.8,55.9 41.4,55.1 41.1,55 40.8,55.1 40.8,56 40.6,56.1 40.6,55.8 40.6,55.1 
					40.9,54.8 41,54.7 41.6,55 42,55.7 				"/>
				<polygon class="st1" points="41.8,56.8 41.7,56.7 41.7,55.8 41.4,55.3 40.9,55.1 40.6,55.2 40.6,56.1 40.5,56 40.5,55 
					40.9,54.8 41.4,55.1 41.8,55.8 				"/>
			</g>
		</g>
		<g>
			<g>
				<polygon class="st5" points="20.3,65.5 18.9,64.6 39.9,52.5 41.3,53.3 				"/>
				<polygon class="st6" points="20.3,66.1 18.9,65.2 18.9,64.6 20.3,65.5 20.3,65.5 				"/>
				<polygon class="st7" points="41.3,54 21.4,65.4 20.3,66.1 20.3,65.5 41.3,53.3 				"/>
			</g>
			<g>
				<polygon class="st5" points="7,57.7 5.5,56.9 26.5,44.8 28,45.6 				"/>
				<polygon class="st6" points="7,58.4 5.5,57.5 5.5,56.9 7,57.7 7,57.8 				"/>
				<polygon class="st7" points="28,46.2 7,58.4 7,57.7 28,45.6 				"/>
			</g>
		</g>
		<g>
			<g>
				<polygon class="st1" points="47,59.4 17,42.1 17,39.7 47.6,56.1 				"/>
				<polygon class="st1" points="30,69.2 0,51.9 0,48.1 30.9,65 				"/>
				<polygon class="st4" points="30,65.5 0,48.1 18.3,37.6 48.3,54.9 42.1,59.3 				"/>
				<polygon class="st2" points="30,65.5 30,69.2 31.3,68.5 31.3,66.2 47,57.1 47,59.4 48.3,58.7 48.3,54.9 				"/>
			</g>
			<g>
				<polygon class="st0" points="25.7,61.8 24.3,61 24.5,60.9 25.9,61.7 				"/>
				<polygon class="st2" points="25.9,61.7 25.7,61.8 25.6,60.9 25.2,60.1 25,59.9 24.7,60.1 24.7,61 24.5,61.1 24.5,60.7 
					24.5,60.1 24.7,59.8 24.9,59.7 25.5,60 25.9,60.7 				"/>
				<polygon class="st1" points="25.7,61.8 25.5,61.7 25.5,60.8 25.2,60.3 24.8,60 24.5,60.2 24.5,61.1 24.3,61 24.3,60 24.7,59.8 
					25.3,60.1 25.7,60.8 				"/>
			</g>
			<g>
				<polygon class="st0" points="7,51 5.6,50.2 5.8,50.1 7.2,50.9 				"/>
				<polygon class="st2" points="7.2,50.9 7,51 6.9,50.1 6.5,49.3 6.3,49.1 6,49.3 6,50.2 5.8,50.3 5.7,49.9 5.8,49.3 6,49 
					6.2,48.9 6.8,49.2 7.2,49.9 				"/>
				<polygon class="st1" points="7,51 6.8,50.9 6.8,50 6.5,49.5 6.1,49.2 5.8,49.4 5.8,50.3 5.6,50.2 5.6,49.2 6,49 6.6,49.3 7,50 
									"/>
			</g>
			<g>
				<polygon class="st0" points="23.1,41.7 21.7,40.9 21.9,40.8 23.3,41.6 				"/>
				<polygon class="st2" points="23.3,41.6 23.1,41.7 23.1,40.8 22.6,40 22.4,39.8 22.1,40 22.1,40.9 21.9,41 21.9,40.6 21.9,40 
					22.1,39.6 22.3,39.6 22.9,39.9 23.3,40.6 				"/>
				<polygon class="st1" points="23.1,41.7 22.9,41.6 22.9,40.7 22.6,40.1 22.2,39.9 21.9,40.1 21.9,41 21.7,40.9 21.7,39.9 
					22.1,39.6 22.7,40 23.1,40.7 				"/>
			</g>
			<g>
				<polygon class="st0" points="41.8,52.5 40.5,51.7 40.6,51.6 42,52.4 				"/>
				<polygon class="st2" points="42,52.4 41.8,52.5 41.8,51.6 41.4,50.8 41.1,50.6 40.8,50.8 40.8,51.7 40.6,51.8 40.6,51.4 
					40.6,50.8 40.9,50.4 41,50.4 41.6,50.7 42,51.4 				"/>
				<polygon class="st1" points="41.8,52.5 41.7,52.4 41.7,51.5 41.4,51 40.9,50.7 40.6,50.9 40.6,51.8 40.5,51.7 40.5,50.7 
					40.9,50.4 41.4,50.8 41.8,51.5 				"/>
			</g>
		</g>
		<g>
			<g>
				<polygon class="st5" points="20.3,61.1 18.9,60.2 39.9,48.1 41.3,49 				"/>
				<polygon class="st6" points="20.3,61.7 18.9,60.9 18.9,60.2 20.3,61.1 20.3,61.2 				"/>
				<polygon class="st7" points="41.3,49.6 21.4,61.1 20.3,61.7 20.3,61.1 41.3,49 				"/>
			</g>
			<g>
				<polygon class="st5" points="7,53.4 5.5,52.5 26.5,40.4 28,41.2 				"/>
				<polygon class="st6" points="7,54 5.5,53.2 5.5,52.5 7,53.4 7,53.4 				"/>
				<polygon class="st7" points="28,41.9 7,54 7,53.4 28,41.2 				"/>
			</g>
		</g>
		<g>
			<g>
				<polygon class="st1" points="47,55 17,37.7 17,35.3 47.6,51.7 				"/>
				<polygon class="st1" points="30,64.8 0,47.5 0,43.8 30.9,60.6 				"/>
				<polygon class="st8" points="30,61.1 0,43.8 18.3,33.2 48.3,50.6 42.1,54.9 				"/>
				<polygon class="st2" points="30,61.1 30,64.8 31.3,64.1 31.3,61.9 47,52.8 47,55 48.3,54.3 48.3,50.6 				"/>
			</g>
			<g>
				<polygon class="st0" points="25.7,57.4 24.3,56.6 24.5,56.5 25.9,57.3 				"/>
				<polygon class="st2" points="25.9,57.3 25.7,57.4 25.6,56.5 25.2,55.7 25,55.6 24.7,55.7 24.7,56.6 24.5,56.7 24.5,56.4 
					24.5,55.7 24.7,55.4 24.9,55.3 25.5,55.6 25.9,56.3 				"/>
				<polygon class="st1" points="25.7,57.4 25.5,57.3 25.5,56.4 25.2,55.9 24.8,55.6 24.5,55.8 24.5,56.7 24.3,56.6 24.3,55.6 
					24.7,55.4 25.3,55.7 25.7,56.4 				"/>
			</g>
			<g>
				<polygon class="st0" points="7,46.6 5.6,45.8 5.8,45.7 7.2,46.5 				"/>
				<polygon class="st2" points="7.2,46.5 7,46.6 6.9,45.7 6.5,44.9 6.3,44.8 6,44.9 6,45.8 5.8,45.9 5.7,45.6 5.8,44.9 6,44.6 
					6.2,44.5 6.8,44.8 7.2,45.5 				"/>
				<polygon class="st1" points="7,46.6 6.8,46.5 6.8,45.6 6.5,45.1 6.1,44.8 5.8,45 5.8,45.9 5.6,45.8 5.6,44.8 6,44.6 6.6,44.9 
					7,45.6 				"/>
			</g>
			<g>
				<polygon class="st0" points="23.1,37.3 21.7,36.5 21.9,36.4 23.3,37.2 				"/>
				<polygon class="st2" points="23.3,37.2 23.1,37.3 23.1,36.4 22.6,35.6 22.4,35.4 22.1,35.6 22.1,36.5 21.9,36.6 21.9,36.2 
					21.9,35.6 22.1,35.3 22.3,35.2 22.9,35.5 23.3,36.2 				"/>
				<polygon class="st1" points="23.1,37.3 22.9,37.2 22.9,36.3 22.6,35.8 22.2,35.5 21.9,35.7 21.9,36.6 21.7,36.5 21.7,35.5 
					22.1,35.3 22.7,35.6 23.1,36.3 				"/>
			</g>
			<g>
				<polygon class="st0" points="41.8,48.1 40.5,47.3 40.6,47.2 42,48 				"/>
				<polygon class="st2" points="42,48 41.8,48.1 41.8,47.2 41.4,46.4 41.1,46.2 40.8,46.4 40.8,47.3 40.6,47.4 40.6,47.1 
					40.6,46.4 40.9,46.1 41,46 41.6,46.3 42,47 				"/>
				<polygon class="st1" points="41.8,48.1 41.7,48 41.7,47.1 41.4,46.6 40.9,46.3 40.6,46.5 40.6,47.4 40.5,47.3 40.5,46.3 
					40.9,46.1 41.4,46.4 41.8,47.1 				"/>
			</g>
		</g>
	</g>
	<path class="st0" d="M90.3,52.8l-0.2-0.1l-26,15l26,15l26-15L90.3,52.8z"/>
	<polygon class="st14" points="92.2,74.9 90.1,82.4 64.8,67.8 64.8,62.2 	"/>
	<polygon class="st16" points="115.5,67.8 90.1,82.4 90.1,76.8 103,63.3 115.5,62.2 	"/>
	<polygon class="st15" points="106.5,55.3 90.1,76.8 64.8,62.2 73.7,55.3 89.1,63.1 	"/>
	<polygon class="st14" points="115.5,62.2 90.1,76.8 90.1,64.7 100.2,56.3 106.5,55.3 	"/>
	<polygon class="st14" points="106.5,50.5 90.1,64.7 73.7,55.3 73.7,50.5 	"/>
	<polygon class="st16" points="106.5,55.3 90.1,64.7 90.1,60 95.7,52.1 106.5,50.5 	"/>
	<polygon class="st15" points="106.5,50.5 90.1,60 73.7,50.5 90.1,41.1 	"/>
	<polygon class="st17" points="98,50.7 98.3,52.9 90.1,57.6 81.9,52.9 84.5,49.9 90.1,48.2 	"/>
	<polygon class="st14" points="90.1,48.2 81.9,52.9 77.8,50.5 90.1,43.4 91,46.2 	"/>
	<polygon class="st18" points="90.1,48.2 98.3,52.9 102.5,50.5 90.1,43.4 	"/>
	<g>
		<g>
			<path class="st0" d="M50.5,69.6l-16.7,9.6l32.2,18.6l16.7-9.6L50.5,69.6z"/>
			<g>
				<polygon class="st4" points="66.1,94.7 34.3,76.3 50.5,66.9 82.4,85.3 				"/>
				<polygon class="st1" points="66.1,97.6 34.3,79.2 34.3,76.3 66.1,94.7 66.4,95.6 				"/>
				<polygon class="st2" points="82.4,88.2 66.1,97.6 66.1,94.7 82.4,85.3 				"/>
				<g>
					<polygon class="st19" points="67.3,94.3 66.7,95.3 66.7,96.2 67.3,96.6 68.2,96.1 68.8,95.1 68.8,94.1 68.2,93.8 					"/>
					<polygon class="st19" points="69.9,92.8 69.3,93.8 69.3,94.7 69.9,95.1 70.8,94.6 71.4,93.6 71.4,92.6 70.8,92.3 					"/>
					<polygon class="st19" points="72.5,91.3 72,92.3 72,93.2 72.5,93.6 73.4,93.1 74,92.1 74,91.1 73.4,90.8 					"/>
					<polygon class="st19" points="75.1,89.8 74.6,90.8 74.6,91.7 75.1,92.1 76,91.6 76.6,90.6 76.6,89.6 76,89.3 					"/>
					<polygon class="st19" points="77.7,88.3 77.2,89.3 77.2,90.2 77.7,90.6 78.6,90.1 79.2,89.1 79.2,88.1 78.6,87.8 					"/>
					<polygon class="st19" points="81.2,86.3 80.4,86.7 79.8,87.8 79.8,88.7 80.4,89.1 81.2,88.6 81.8,87.6 81.8,86.6 					"/>
				</g>
			</g>
			<g>
				<g>
					<polygon class="st0" points="54.2,69.9 53.3,69.5 53.4,69.4 54.3,69.9 					"/>
					<polygon class="st2" points="54.3,69.9 54.2,69.9 54.1,69 53.9,68.5 53.7,68.4 53.5,68.5 53.5,69.5 53.4,69.5 53.4,69.3 
						53.4,68.5 53.6,68.3 53.7,68.2 54,68.4 54.3,68.8 					"/>
					<polygon class="st1" points="54.2,69.9 54.1,69.9 54.1,68.9 53.9,68.6 53.6,68.4 53.4,68.5 53.4,69.5 53.3,69.5 53.3,68.4 
						53.6,68.3 53.9,68.5 54.2,68.9 					"/>
				</g>
				<g>
					<polygon class="st0" points="77.8,83.6 77,83.1 77.1,83.1 77.9,83.6 					"/>
					<polygon class="st2" points="77.9,83.6 77.8,83.6 77.8,82.6 77.6,82.2 77.4,82.1 77.2,82.2 77.2,83.1 77.1,83.2 77.1,83 
						77.1,82.2 77.3,82 77.3,81.9 77.7,82.1 77.9,82.5 					"/>
					<polygon class="st1" points="77.8,83.6 77.7,83.5 77.7,82.6 77.6,82.3 77.3,82.1 77.1,82.2 77.1,83.2 77,83.1 77,82.1 77.3,82 
						77.6,82.2 77.8,82.6 					"/>
				</g>
			</g>
			<g>
				<g>
					<polygon class="st0" points="39.5,78.4 38.7,78 38.8,77.9 39.6,78.4 					"/>
					<polygon class="st2" points="39.6,78.4 39.5,78.4 39.5,77.5 39.2,77 39,76.9 38.9,77 38.9,78 38.8,78 38.7,77.8 38.8,77 
						38.9,76.8 39,76.7 39.3,76.9 39.6,77.4 					"/>
					<polygon class="st1" points="39.5,78.4 39.4,78.4 39.4,77.4 39.2,77.1 39,76.9 38.8,77 38.8,78 38.7,78 38.7,76.9 38.9,76.8 
						39.3,77 39.5,77.4 					"/>
				</g>
				<g>
					<polygon class="st0" points="63.2,92.1 62.3,91.6 62.4,91.6 63.3,92.1 					"/>
					<polygon class="st2" points="63.3,92.1 63.2,92.1 63.1,91.1 62.9,90.7 62.7,90.6 62.6,90.7 62.6,91.6 62.5,91.7 62.4,91.5 
						62.4,90.7 62.6,90.5 62.7,90.4 63,90.6 63.3,91 					"/>
					<polygon class="st1" points="63.2,92.1 63.1,92 63.1,91.1 62.9,90.8 62.6,90.6 62.5,90.7 62.5,91.7 62.3,91.6 62.3,90.6 
						62.6,90.5 62.9,90.7 63.2,91.1 					"/>
				</g>
			</g>
		</g>
		<g>
			<polygon class="st5" points="58.8,91.1 57.3,90.3 75.7,79.6 77.2,80.5 			"/>
			<polygon class="st6" points="58.8,91.7 57.3,90.9 57.3,90.3 58.8,91.1 58.8,91.2 			"/>
			<polygon class="st7" points="77.2,81.1 59.9,91.1 58.8,91.7 58.8,91.1 77.2,80.5 			"/>
		</g>
		<g>
			<polygon class="st5" points="40.5,80.5 39,79.7 57.5,69.1 58.9,69.9 			"/>
			<polygon class="st6" points="40.5,81.2 39,80.3 39,79.7 40.5,80.5 40.5,80.6 			"/>
			<polygon class="st7" points="58.9,70.6 40.5,81.2 40.5,80.5 58.9,69.9 			"/>
		</g>
		<g>
			<g>
				<polygon class="st4" points="66.1,91.1 34.3,72.7 50.5,63.3 82.4,81.7 				"/>
				<polygon class="st1" points="66.1,94 34.3,75.6 34.3,72.7 66.1,91.1 66.4,92 				"/>
				<polygon class="st2" points="82.4,84.6 66.1,94 66.1,91.1 82.4,81.7 				"/>
				<g>
					<polygon class="st19" points="67.3,90.7 66.7,91.7 66.7,92.6 67.3,93 68.2,92.5 68.8,91.5 68.8,90.5 68.2,90.2 					"/>
					<polygon class="st19" points="69.9,89.2 69.3,90.2 69.3,91.1 69.9,91.5 70.8,91 71.4,90 71.4,89 70.8,88.7 					"/>
					<polygon class="st19" points="72.5,87.7 72,88.7 72,89.6 72.5,90 73.4,89.5 74,88.5 74,87.5 73.4,87.2 					"/>
					<polygon class="st19" points="75.1,86.2 74.6,87.2 74.6,88.1 75.1,88.5 76,88 76.6,87 76.6,86 76,85.7 					"/>
					<polygon class="st19" points="77.7,84.6 77.2,85.7 77.2,86.6 77.7,87 78.6,86.5 79.2,85.5 79.2,84.5 78.6,84.2 					"/>
					<polygon class="st19" points="81.2,82.7 80.4,83.1 79.8,84.2 79.8,85.1 80.4,85.5 81.2,85 81.8,84 81.8,83 					"/>
				</g>
			</g>
			<g>
				<g>
					<polygon class="st0" points="54.2,66.3 53.3,65.8 53.4,65.8 54.3,66.3 					"/>
					<polygon class="st2" points="54.3,66.3 54.2,66.3 54.1,65.4 53.9,64.9 53.7,64.8 53.5,64.9 53.5,65.9 53.4,65.9 53.4,65.7 
						53.4,64.9 53.6,64.7 53.7,64.6 54,64.8 54.3,65.2 					"/>
					<polygon class="st1" points="54.2,66.3 54.1,66.3 54.1,65.3 53.9,65 53.6,64.8 53.4,64.9 53.4,65.9 53.3,65.8 53.3,64.8 
						53.6,64.7 53.9,64.9 54.2,65.3 					"/>
				</g>
				<g>
					<polygon class="st0" points="77.8,80 77,79.5 77.1,79.5 77.9,79.9 					"/>
					<polygon class="st2" points="77.9,79.9 77.8,80 77.8,79 77.6,78.5 77.4,78.4 77.2,78.6 77.2,79.5 77.1,79.6 77.1,79.4 
						77.1,78.6 77.3,78.3 77.3,78.3 77.7,78.5 77.9,78.9 					"/>
					<polygon class="st1" points="77.8,80 77.7,79.9 77.7,79 77.6,78.6 77.3,78.5 77.1,78.6 77.1,79.6 77,79.5 77,78.5 77.3,78.3 
						77.6,78.5 77.8,79 					"/>
				</g>
			</g>
			<g>
				<g>
					<polygon class="st0" points="39.5,74.8 38.7,74.4 38.8,74.3 39.6,74.8 					"/>
					<polygon class="st2" points="39.6,74.8 39.5,74.8 39.5,73.9 39.2,73.4 39,73.3 38.9,73.4 38.9,74.4 38.8,74.4 38.7,74.2 
						38.8,73.4 38.9,73.2 39,73.1 39.3,73.3 39.6,73.7 					"/>
					<polygon class="st1" points="39.5,74.8 39.4,74.8 39.4,73.8 39.2,73.5 39,73.3 38.8,73.4 38.8,74.4 38.7,74.4 38.7,73.3 
						38.9,73.2 39.3,73.4 39.5,73.8 					"/>
				</g>
				<g>
					<polygon class="st0" points="63.2,88.5 62.3,88 62.4,88 63.3,88.5 					"/>
					<polygon class="st2" points="63.3,88.5 63.2,88.5 63.1,87.5 62.9,87.1 62.7,87 62.6,87.1 62.6,88 62.5,88.1 62.4,87.9 
						62.4,87.1 62.6,86.9 62.7,86.8 63,87 63.3,87.4 					"/>
					<polygon class="st1" points="63.2,88.5 63.1,88.4 63.1,87.5 62.9,87.2 62.6,87 62.5,87.1 62.5,88.1 62.3,88 62.3,87 62.6,86.9 
						62.9,87.1 63.2,87.5 					"/>
				</g>
			</g>
		</g>
		<g>
			<polygon class="st5" points="58.8,87.5 57.3,86.6 75.7,76 77.2,76.9 			"/>
			<polygon class="st6" points="58.8,88.1 57.3,87.3 57.3,86.6 58.8,87.5 58.8,87.6 			"/>
			<polygon class="st7" points="77.2,77.5 59.9,87.5 58.8,88.1 58.8,87.5 77.2,76.9 			"/>
		</g>
		<g>
			<polygon class="st5" points="40.5,76.9 39,76.1 57.5,65.5 58.9,66.3 			"/>
			<polygon class="st6" points="40.5,77.6 39,76.7 39,76.1 40.5,76.9 40.5,77 			"/>
			<polygon class="st7" points="58.9,66.9 40.5,77.6 40.5,76.9 58.9,66.3 			"/>
		</g>
		<g>
			<g>
				<polygon class="st4" points="66.1,87.4 34.3,69.1 50.5,59.7 82.4,78 				"/>
				<polygon class="st1" points="66.1,90.4 34.3,72 34.3,69.1 66.1,87.4 66.4,88.3 				"/>
				<polygon class="st2" points="82.4,81 66.1,90.4 66.1,87.4 82.4,78 				"/>
				<g>
					<polygon class="st19" points="67.3,87 66.7,88.1 66.7,89 67.3,89.4 68.2,88.9 68.8,87.9 68.8,86.9 68.2,86.6 					"/>
					<polygon class="st19" points="69.9,85.5 69.3,86.6 69.3,87.5 69.9,87.9 70.8,87.4 71.4,86.4 71.4,85.4 70.8,85.1 					"/>
					<polygon class="st19" points="72.5,84 72,85.1 72,86 72.5,86.4 73.4,85.9 74,84.9 74,83.9 73.4,83.6 					"/>
					<polygon class="st19" points="75.1,82.5 74.6,83.6 74.6,84.5 75.1,84.9 76,84.4 76.6,83.4 76.6,82.4 76,82.1 					"/>
					<polygon class="st19" points="77.7,81 77.2,82.1 77.2,83 77.7,83.4 78.6,82.9 79.2,81.9 79.2,80.9 78.6,80.6 					"/>
					<polygon class="st19" points="81.2,79.1 80.4,79.5 79.8,80.6 79.8,81.5 80.4,81.9 81.2,81.4 81.8,80.4 81.8,79.4 					"/>
				</g>
			</g>
			<g>
				<g>
					<polygon class="st0" points="54.2,62.7 53.3,62.2 53.4,62.2 54.3,62.7 					"/>
					<polygon class="st2" points="54.3,62.7 54.2,62.7 54.1,61.7 53.9,61.3 53.7,61.2 53.5,61.3 53.5,62.2 53.4,62.3 53.4,62.1 
						53.4,61.3 53.6,61.1 53.7,61 54,61.2 54.3,61.6 					"/>
					<polygon class="st1" points="54.2,62.7 54.1,62.7 54.1,61.7 53.9,61.4 53.6,61.2 53.4,61.3 53.4,62.3 53.3,62.2 53.3,61.2 
						53.6,61.1 53.9,61.3 54.2,61.7 					"/>
				</g>
				<g>
					<polygon class="st0" points="77.8,76.4 77,75.9 77.1,75.9 77.9,76.3 					"/>
					<polygon class="st2" points="77.9,76.3 77.8,76.4 77.8,75.4 77.6,74.9 77.4,74.8 77.2,74.9 77.2,75.9 77.1,76 77.1,75.8 
						77.1,74.9 77.3,74.7 77.3,74.7 77.7,74.9 77.9,75.3 					"/>
					<polygon class="st1" points="77.8,76.4 77.7,76.3 77.7,75.3 77.6,75 77.3,74.9 77.1,75 77.1,76 77,75.9 77,74.9 77.3,74.7 
						77.6,74.9 77.8,75.4 					"/>
				</g>
			</g>
			<g>
				<g>
					<polygon class="st0" points="39.5,71.2 38.7,70.7 38.8,70.7 39.6,71.2 					"/>
					<polygon class="st2" points="39.6,71.2 39.5,71.2 39.5,70.2 39.2,69.8 39,69.7 38.9,69.8 38.9,70.8 38.8,70.8 38.7,70.6 
						38.8,69.8 38.9,69.6 39,69.5 39.3,69.7 39.6,70.1 					"/>
					<polygon class="st1" points="39.5,71.2 39.4,71.2 39.4,70.2 39.2,69.9 39,69.7 38.8,69.8 38.8,70.8 38.7,70.7 38.7,69.7 
						38.9,69.6 39.3,69.8 39.5,70.2 					"/>
				</g>
				<g>
					<polygon class="st0" points="63.2,84.9 62.3,84.4 62.4,84.4 63.3,84.8 					"/>
					<polygon class="st2" points="63.3,84.8 63.2,84.9 63.1,83.9 62.9,83.4 62.7,83.3 62.6,83.4 62.6,84.4 62.5,84.5 62.4,84.3 
						62.4,83.5 62.6,83.2 62.7,83.2 63,83.4 63.3,83.8 					"/>
					<polygon class="st1" points="63.2,84.9 63.1,84.8 63.1,83.9 62.9,83.5 62.6,83.4 62.5,83.5 62.5,84.5 62.3,84.4 62.3,83.4 
						62.6,83.2 62.9,83.4 63.2,83.9 					"/>
				</g>
			</g>
		</g>
		<g>
			<polygon class="st5" points="58.8,83.9 57.3,83 75.7,72.4 77.2,73.3 			"/>
			<polygon class="st6" points="58.8,84.5 57.3,83.7 57.3,83 58.8,83.9 58.8,84 			"/>
			<polygon class="st7" points="77.2,73.9 59.9,83.9 58.8,84.5 58.8,83.9 77.2,73.3 			"/>
		</g>
		<g>
			<polygon class="st5" points="40.5,73.3 39,72.5 57.5,61.9 58.9,62.7 			"/>
			<polygon class="st6" points="40.5,74 39,73.1 39,72.5 40.5,73.3 40.5,73.4 			"/>
			<polygon class="st7" points="58.9,63.3 40.5,74 40.5,73.3 58.9,62.7 			"/>
		</g>
		<g>
			<g>
				<polygon class="st8" points="66.1,83.8 34.3,65.5 50.5,56.1 82.4,74.4 				"/>
				<polygon class="st1" points="66.1,86.8 34.3,68.4 34.3,65.5 66.1,83.8 66.4,84.7 				"/>
				<polygon class="st2" points="82.4,77.4 66.1,86.8 66.1,83.8 82.4,74.4 				"/>
				<g>
					<polygon class="st19" points="67.3,83.4 66.7,84.5 66.7,85.4 67.3,85.8 68.2,85.3 68.8,84.3 68.8,83.3 68.2,83 					"/>
					<polygon class="st19" points="69.9,81.9 69.3,83 69.3,83.9 69.9,84.3 70.8,83.8 71.4,82.8 71.4,81.8 70.8,81.5 					"/>
					<polygon class="st19" points="72.5,80.4 72,81.5 72,82.4 72.5,82.8 73.4,82.3 74,81.3 74,80.3 73.4,80 					"/>
					<polygon class="st19" points="75.1,78.9 74.6,80 74.6,80.9 75.1,81.3 76,80.8 76.6,79.8 76.6,78.8 76,78.5 					"/>
					<polygon class="st19" points="77.7,77.4 77.2,78.5 77.2,79.4 77.7,79.8 78.6,79.3 79.2,78.3 79.2,77.3 78.6,77 					"/>
					<polygon class="st19" points="81.2,75.4 80.4,75.9 79.8,77 79.8,77.9 80.4,78.3 81.2,77.8 81.8,76.8 81.8,75.8 					"/>
				</g>
			</g>
			<g>
				<g>
					<polygon class="st0" points="54.2,59.1 53.3,58.6 53.4,58.6 54.3,59.1 					"/>
					<polygon class="st2" points="54.3,59.1 54.2,59.1 54.1,58.1 53.9,57.7 53.7,57.6 53.5,57.7 53.5,58.6 53.4,58.7 53.4,58.5 
						53.4,57.7 53.6,57.5 53.7,57.4 54,57.6 54.3,58 					"/>
					<polygon class="st1" points="54.2,59.1 54.1,59.1 54.1,58.1 53.9,57.8 53.6,57.6 53.4,57.7 53.4,58.7 53.3,58.6 53.3,57.6 
						53.6,57.5 53.9,57.7 54.2,58.1 					"/>
				</g>
				<g>
					<polygon class="st0" points="77.8,72.8 77,72.3 77.1,72.3 77.9,72.7 					"/>
					<polygon class="st2" points="77.9,72.7 77.8,72.8 77.8,71.8 77.6,71.3 77.4,71.2 77.2,71.3 77.2,72.3 77.1,72.4 77.1,72.2 
						77.1,71.3 77.3,71.1 77.3,71.1 77.7,71.3 77.9,71.7 					"/>
					<polygon class="st1" points="77.8,72.8 77.7,72.7 77.7,71.7 77.6,71.4 77.3,71.3 77.1,71.4 77.1,72.4 77,72.3 77,71.3 
						77.3,71.1 77.6,71.3 77.8,71.8 					"/>
				</g>
			</g>
			<g>
				<g>
					<polygon class="st0" points="39.5,67.6 38.7,67.1 38.8,67.1 39.6,67.6 					"/>
					<polygon class="st2" points="39.6,67.6 39.5,67.6 39.5,66.6 39.2,66.2 39,66.1 38.9,66.2 38.9,67.1 38.8,67.2 38.7,67 
						38.8,66.2 38.9,66 39,65.9 39.3,66.1 39.6,66.5 					"/>
					<polygon class="st1" points="39.5,67.6 39.4,67.6 39.4,66.6 39.2,66.3 39,66.1 38.8,66.2 38.8,67.2 38.7,67.1 38.7,66.1 
						38.9,66 39.3,66.2 39.5,66.6 					"/>
				</g>
				<g>
					<polygon class="st0" points="63.2,81.3 62.3,80.8 62.4,80.8 63.3,81.2 					"/>
					<polygon class="st2" points="63.3,81.2 63.2,81.3 63.1,80.3 62.9,79.8 62.7,79.7 62.6,79.8 62.6,80.8 62.5,80.9 62.4,80.7 
						62.4,79.8 62.6,79.6 62.7,79.6 63,79.8 63.3,80.2 					"/>
					<polygon class="st1" points="63.2,81.3 63.1,81.2 63.1,80.3 62.9,79.9 62.6,79.8 62.5,79.9 62.5,80.9 62.3,80.8 62.3,79.8 
						62.6,79.6 62.9,79.8 63.2,80.3 					"/>
				</g>
			</g>
		</g>
	</g>
	<polygon class="st0" points="34.1,98.8 3.9,81.4 15.5,74.7 45.7,92.1 	"/>
	<g>
		<polygon class="st2" points="44.5,91.3 32.8,98 34.2,96.2 42.5,91.2 46.3,89.8 		"/>
		<polygon class="st20" points="18.8,73.9 7.1,80.6 4.8,79.5 4.4,76.4 16,69.7 		"/>
		<polygon class="st3" points="23.4,76.5 11.7,83.3 9.3,82.2 9,79.1 20.6,72.4 		"/>
		<g>
			<polygon class="st6" points="15.9,80.5 12.3,82.8 11.3,81.4 12.8,80.1 			"/>
			<polygon class="st7" points="16.4,80.5 12.3,82.8 13.7,81.6 14.8,80.3 17.8,79.3 			"/>
			<polygon class="st21" points="17.8,79.3 13.7,81.6 12.8,80.1 16.8,77.8 			"/>
		</g>
		<polygon class="st20" points="27.9,79.2 16.3,85.9 13.9,84.8 13.5,81.7 25.2,75 		"/>
		<polygon class="st3" points="32.5,81.9 20.9,88.6 18.5,87.5 18.1,84.4 29.7,77.7 		"/>
		<polygon class="st20" points="37.1,84.5 25.5,91.2 23.1,90.1 22.7,87 34.3,80.3 		"/>
		<polygon class="st3" points="41.7,87.1 30.1,93.9 27.7,92.8 27.3,89.7 38.9,83 		"/>
		<g>
			<polygon class="st6" points="34,91.2 30.4,93.6 29.4,92.1 30.9,90.9 			"/>
			<polygon class="st7" points="34.5,91.2 30.4,93.6 31.8,92.4 32.8,91.1 35.9,90 			"/>
			<polygon class="st21" points="35.9,90 31.8,92.4 30.9,90.9 34.9,88.5 			"/>
		</g>
		<polygon class="st20" points="46.3,89.8 34.6,96.5 32.3,95.4 31.9,92.3 43.5,85.6 		"/>
		<polygon class="st1" points="31.9,92.3 30.1,93.9 27.3,89.7 25.5,91.2 22.7,87 20.9,88.6 20.9,88.6 18.1,84.4 16.3,85.9 
			16.3,85.9 16.3,85.9 13.5,81.7 11.7,83.3 9,79.1 7.1,80.6 4.4,76.4 2.6,77.9 4.7,81 32,96.7 32.8,98 34.6,96.5 		"/>
	</g>
	<g>
		<polygon class="st2" points="44.5,86.6 32.8,93.3 34.2,91.5 42.5,86.5 46.3,85.1 		"/>
		<polygon class="st20" points="18.8,69.2 7.1,75.9 4.8,74.8 4.4,71.7 16,65 		"/>
		<polygon class="st3" points="23.4,71.8 11.7,78.5 9.3,77.5 9,74.3 20.6,67.6 		"/>
		<g>
			<polygon class="st6" points="15.9,75.8 12.3,78.1 11.3,76.6 12.8,75.4 			"/>
			<polygon class="st7" points="16.4,75.8 12.3,78.1 13.7,76.9 14.8,75.6 17.8,74.5 			"/>
			<polygon class="st21" points="17.8,74.5 13.7,76.9 12.8,75.4 16.8,73.1 			"/>
		</g>
		<polygon class="st20" points="27.9,74.5 16.3,81.2 13.9,80.1 13.5,77 25.2,70.3 		"/>
		<polygon class="st3" points="32.5,77.1 20.9,83.8 18.5,82.8 18.1,79.6 29.7,72.9 		"/>
		<polygon class="st20" points="37.1,79.8 25.5,86.5 23.1,85.4 22.7,82.3 34.3,75.6 		"/>
		<polygon class="st3" points="41.7,82.4 30.1,89.1 27.7,88.1 27.3,84.9 38.9,78.2 		"/>
		<g>
			<polygon class="st6" points="34,86.5 30.4,88.8 29.4,87.4 30.9,86.2 			"/>
			<polygon class="st7" points="34.5,86.5 30.4,88.8 31.8,87.6 32.8,86.4 35.9,85.3 			"/>
			<polygon class="st21" points="35.9,85.3 31.8,87.6 30.9,86.2 34.9,83.8 			"/>
		</g>
		<polygon class="st20" points="46.3,85.1 34.6,91.8 32.3,90.7 31.9,87.6 43.5,80.9 		"/>
		<polygon class="st1" points="31.9,87.6 30.1,89.1 27.3,84.9 25.5,86.5 22.7,82.3 20.9,83.8 20.9,83.8 18.1,79.6 16.3,81.2 
			16.3,81.2 16.3,81.2 13.5,77 11.7,78.5 9,74.3 7.1,75.9 4.4,71.7 2.6,73.2 4.7,76.3 32,92 32.8,93.3 34.6,91.8 		"/>
	</g>
	<g>
		<polygon class="st2" points="44.5,81.9 32.8,88.6 34.2,86.8 42.5,81.8 46.3,80.3 		"/>
		<polygon class="st20" points="18.8,64.4 7.1,71.2 4.8,70.1 4.4,67 16,60.3 		"/>
		<polygon class="st3" points="23.4,67.1 11.7,73.8 9.3,72.7 9,69.6 20.6,62.9 		"/>
		<g>
			<polygon class="st6" points="15.9,71 12.3,73.4 11.3,71.9 12.8,70.7 			"/>
			<polygon class="st7" points="16.4,71 12.3,73.4 13.7,72.2 14.8,70.9 17.8,69.8 			"/>
			<polygon class="st21" points="17.8,69.8 13.7,72.2 12.8,70.7 16.8,68.3 			"/>
		</g>
		<polygon class="st20" points="27.9,69.7 16.3,76.5 13.9,75.4 13.5,72.3 25.2,65.6 		"/>
		<polygon class="st3" points="32.5,72.4 20.9,79.1 18.5,78 18.1,74.9 29.7,68.2 		"/>
		<polygon class="st20" points="37.1,75 25.5,81.8 23.1,80.7 22.7,77.6 34.3,70.9 		"/>
		<polygon class="st3" points="41.7,77.7 30.1,84.4 27.7,83.3 27.3,80.2 38.9,73.5 		"/>
		<g>
			<polygon class="st6" points="34,81.8 30.4,84.1 29.4,82.7 30.9,81.4 			"/>
			<polygon class="st7" points="34.5,81.8 30.4,84.1 31.8,82.9 32.8,81.6 35.9,80.6 			"/>
			<polygon class="st21" points="35.9,80.6 31.8,82.9 30.9,81.4 34.9,79.1 			"/>
		</g>
		<polygon class="st20" points="46.3,80.3 34.6,87.1 32.3,86 31.9,82.9 43.5,76.2 		"/>
		<polygon class="st1" points="31.9,82.9 30.1,84.4 27.3,80.2 25.5,81.8 22.7,77.6 20.9,79.1 20.9,79.1 18.1,74.9 16.3,76.5 
			16.3,76.5 16.3,76.5 13.5,72.3 11.7,73.8 9,69.6 7.1,71.2 4.4,67 2.6,68.4 4.7,71.6 32,87.3 32.8,88.6 34.6,87.1 		"/>
	</g>
</g>
<g id="Layer_2" class="st22">
	<linearGradient id="SVGID_1_" gradientUnits="userSpaceOnUse" x1="101.0575" y1="29.0386" x2="114.6297" y2="29.0386">
		<stop  offset="0" style="stop-color:#009AC9"/>
		<stop  offset="0.5286" style="stop-color:#00AEEF"/>
		<stop  offset="1" style="stop-color:#00CFFF"/>
	</linearGradient>
	<rect x="101.1" y="24.7" class="st23" width="13.6" height="8.6"/>
	<rect x="108.8" y="35.8" class="st24" width="4.1" height="4.1"/>
	<rect x="108.8" y="41.2" class="st25" width="4.1" height="4.1"/>
	<rect x="104" y="41.2" class="st26" width="4.1" height="4.1"/>
	<rect x="104" y="35.8" class="st27" width="4.1" height="4.1"/>
</g>
</svg>
