<?xml version="1.0" encoding="utf-8"?>
<!-- Generator: Adobe Illustrator 26.3.0, SVG Export Plug-In . SVG Version: 6.00 Build 0)  -->
<svg version="1.1" id="Layer_1" xmlns="http://www.w3.org/2000/svg" xmlns:xlink="http://www.w3.org/1999/xlink" x="0px" y="0px"
	 viewBox="0 0 232.3 220.6" style="enable-background:new 0 0 232.3 220.6;" xml:space="preserve">
<style type="text/css">
	.st0{fill:#010101;}
</style>
<g>
	<g id="g1363">
		<g id="g1369" transform="translate(174.4404,512)">
			<g id="path1371">
				<rect x="1583.6" y="-538.3" class="st0" width="16" height="273.2"/>
			</g>
		</g>
		<g id="g1373" transform="translate(113.1455)">
			<g id="path1375">
				<rect x="1612.2" y="-26.3" class="st0" width="16" height="273.2"/>
			</g>
		</g>
		<g id="g1377" transform="translate(398.8545,512)">
			<g id="path1379">
				<rect x="1478.9" y="-538.3" class="st0" width="16" height="273.2"/>
			</g>
		</g>
		<g id="g1381" transform="translate(337.5596)">
			<g id="path1383">
				<rect x="1507.5" y="-26.3" class="st0" width="16" height="273.2"/>
			</g>
		</g>
		<g id="g1385" transform="translate(174.4404,466.519)">
			<g id="path1387">
				<rect x="1591.6" y="-476.5" class="st0" width="87" height="16"/>
			</g>
		</g>
	</g>
	<g id="g1389" transform="translate(174.4404,396.3462)">
		<g id="path1391">
			<rect x="1591.6" y="-368.9" class="st0" width="87" height="16"/>
		</g>
	</g>
	<g id="g1393" transform="translate(174.4404,326.1729)">
		<g id="path1395">
			<rect x="1591.6" y="-261.3" class="st0" width="87" height="16"/>
		</g>
	</g>
	<g id="g1397" transform="translate(174.4404,256)">
		<g id="path1399">
			<rect x="1591.6" y="-153.7" class="st0" width="87" height="16"/>
		</g>
	</g>
	<g id="g1401" transform="translate(174.4404,185.8271)">
		<g id="path1403">
			<rect x="1591.6" y="-46.1" class="st0" width="87" height="16"/>
		</g>
	</g>
	<g id="g1405" transform="translate(174.4404,115.6538)">
		<g id="path1407">
			<rect x="1591.6" y="61.6" class="st0" width="87" height="16"/>
		</g>
	</g>
	<g id="g1417" transform="translate(174.4404,45.481)">
		<g id="path1419">
			<rect x="1591.6" y="169.2" class="st0" width="87" height="16"/>
		</g>
	</g>
	<g id="g1421" transform="translate(398.8545,466.519)">
		<g id="path1423">
			<rect x="1486.9" y="-476.5" class="st0" width="24.9" height="16"/>
		</g>
	</g>
	<g id="g1425" transform="translate(398.8545,396.3462)">
		<g id="path1427">
			<rect x="1486.9" y="-368.9" class="st0" width="24.9" height="16"/>
		</g>
	</g>
	<g id="g1429" transform="translate(398.8545,326.1729)">
		<g id="path1431">
			<rect x="1486.9" y="-261.3" class="st0" width="24.9" height="16"/>
		</g>
	</g>
	<g id="g1433" transform="translate(398.8545,256)">
		<g id="path1435">
			<rect x="1486.9" y="-153.7" class="st0" width="24.9" height="16"/>
		</g>
	</g>
	<g id="g1437" transform="translate(398.8545,185.8271)">
		<g id="path1439">
			<rect x="1486.9" y="-46.1" class="st0" width="24.9" height="16"/>
		</g>
	</g>
	<g id="g1441" transform="translate(398.8545,115.6538)">
		<g id="path1443">
			<rect x="1486.9" y="61.6" class="st0" width="24.9" height="16"/>
		</g>
	</g>
	<g id="g1447">
		<g id="g1453" transform="translate(398.8545,45.481)">
			<g id="path1455">
				<rect x="1486.9" y="169.2" class="st0" width="24.9" height="16"/>
			</g>
		</g>
		<g id="g1457" transform="translate(66.4033,466.519)">
			<g id="path1459">
				<rect x="1642" y="-476.5" class="st0" width="24.9" height="16"/>
			</g>
		</g>
	</g>
	<g id="g1461" transform="translate(66.4033,396.3462)">
		<g id="path1463">
			<rect x="1642" y="-368.9" class="st0" width="24.9" height="16"/>
		</g>
	</g>
	<g id="g1465" transform="translate(66.4033,326.1729)">
		<g id="path1467">
			<rect x="1642" y="-261.3" class="st0" width="24.9" height="16"/>
		</g>
	</g>
	<g id="g1469" transform="translate(66.4033,256)">
		<g id="path1471">
			<rect x="1642" y="-153.7" class="st0" width="24.9" height="16"/>
		</g>
	</g>
	<g id="g1473" transform="translate(66.4033,185.8271)">
		<g id="path1475">
			<rect x="1642" y="-46.1" class="st0" width="24.9" height="16"/>
		</g>
	</g>
	<g id="g1477" transform="translate(66.4033,115.6538)">
		<g id="path1479">
			<rect x="1642" y="61.6" class="st0" width="24.9" height="16"/>
		</g>
	</g>
	<g id="g1483">
		<g id="g1489" transform="translate(66.4033,45.481)">
			<g id="path1491">
				<rect x="1642" y="169.2" class="st0" width="24.9" height="16"/>
			</g>
		</g>
	</g>
</g>
<g>
	<g id="g257_00000116197981869173538010000009278703297802865295_" transform="translate(429.2178,418.7583)">
		<g id="path259_00000036973238325257088480000003646322703433602697_">
			<path class="st0" d="M638.5-349.5h-20c-2.1,0-3.8-1.7-3.8-3.8v-37.3c0-2.1,1.7-3.8,3.8-3.8s3.8,1.7,3.8,3.8v33.5h12.5v-44
				c0-2.1,1.7-3.8,3.8-3.8s3.8,1.7,3.8,3.8v47.7C642.3-351.2,640.6-349.5,638.5-349.5z"/>
		</g>
	</g>
	<g id="g269_00000014636493203061564320000012833600129256331675_" transform="translate(485.7393,311.8311)">
		<g id="path271_00000021083295845993653080000006443051177435506075_">
			<path class="st0" d="M590.5-225.9h-37c-2.1,0-3.8-1.7-3.8-3.8v-10.6c0-5.5,4.5-9.9,9.9-9.9h24.7c5.5,0,9.9,4.5,9.9,9.9v10.6
				C594.3-227.6,592.6-225.9,590.5-225.9z M557.2-233.5h29.5v-6.8c0-1.3-1.1-2.4-2.4-2.4h-24.7c-1.3,0-2.4,1.1-2.4,2.4V-233.5z"/>
		</g>
	</g>
	<g id="g273_00000147211745028077900190000010573617716485830330_" transform="translate(324.8965,334.0029)">
		<g id="path275_00000072278886086931257620000010328289433609753020_">
			<path class="st0" d="M690.1-207.2h-20c-2.1,0-3.8-1.7-3.8-3.8v-52.1c0-2.1,1.7-3.8,3.8-3.8s3.8,1.7,3.8,3.8v48.3h12.5v-68.5
				c0-2.1,1.7-3.8,3.8-3.8s3.8,1.7,3.8,3.8v72.2C693.9-208.9,692.2-207.2,690.1-207.2z"/>
		</g>
	</g>
	<g id="g277_00000034790255141708962120000015236056325182783142_" transform="translate(381.418,196.8042)">
		<g id="path279_00000049901427524855678590000010849447384223923376_">
			<path class="st0" d="M642.1-52.8h-37c-2.1,0-3.8-1.7-3.8-3.8v-10.9c0-5.5,4.5-10,10-10h24.6c5.5,0,10,4.5,10,10v10.9
				C645.9-54.5,644.2-52.8,642.1-52.8z M608.9-60.4h29.5v-7.2c0-1.3-1.1-2.4-2.4-2.4h-24.6c-1.3,0-2.4,1.1-2.4,2.4V-60.4z"/>
		</g>
	</g>
	<g id="g289_00000109729255617501172570000008250508982042913956_" transform="translate(427.4033,457.9946)">
		<g id="path291_00000101792213977772852020000000815245501135015555_">
			<path class="st0" d="M490.1-238.8c-1.4,0-2.7-0.8-3.4-2.1c-1.5-3-2.9-6.2-4.1-9.7c-0.7-2,0.3-4.1,2.3-4.9c2-0.7,4.1,0.3,4.9,2.3
				c1.2,3.2,2.4,6.2,3.8,8.9c0.9,1.9,0.2,4.1-1.7,5.1C491.3-238.9,490.7-238.8,490.1-238.8z M480.9-267.6c-1.8,0-3.3-1.2-3.7-3
				c-0.3-1.4-0.6-2.8-0.8-4.3c-0.3-2-0.7-3.9-0.9-5.9c-0.3-2.1,1.1-4,3.2-4.3c2.1-0.3,4,1.1,4.3,3.2c0.3,1.9,0.6,3.7,0.9,5.6
				c0.2,1.4,0.5,2.8,0.8,4.1c0.4,2.1-0.9,4-3,4.5C481.4-267.6,481.1-267.6,480.9-267.6z M477.6-297.7c-2.1,0-3.8-1.7-3.8-3.8
				c0-0.3,0-0.6,0-0.9c0-2.6,0.1-5.2,0.2-7.7c0-0.6,0.1-1.2,0.1-1.8c0.1-2.1,2-3.7,4-3.5c2.1,0.1,3.7,2,3.5,4c0,0.6-0.1,1.1-0.1,1.7
				c-0.1,2.4-0.2,4.8-0.2,7.3c0,0.3,0,0.6,0,0.8C481.4-299.4,479.7-297.7,477.6-297.7C477.6-297.7,477.6-297.7,477.6-297.7z
				 M480.7-327.7c-0.3,0-0.5,0-0.8-0.1c-2-0.4-3.3-2.4-2.9-4.5c0.7-3.4,1.6-6.8,2.5-10.1c0.6-2,2.7-3.2,4.7-2.6
				c2,0.6,3.2,2.7,2.6,4.7c-0.9,3.1-1.7,6.3-2.4,9.5C484.1-328.9,482.5-327.7,480.7-327.7z M490.4-356.4c-0.5,0-1.1-0.1-1.6-0.4
				c-1.9-0.9-2.7-3.2-1.8-5.1c1.5-3.1,3.2-6.2,4.9-9.2c1.1-1.8,3.4-2.4,5.2-1.3c1.8,1.1,2.4,3.4,1.3,5.2c-1.6,2.8-3.2,5.7-4.6,8.6
				C493.2-357.1,491.8-356.4,490.4-356.4z M506.9-381.7c-0.9,0-1.7-0.3-2.4-0.9c-1.6-1.4-1.8-3.7-0.4-5.3c2.2-2.6,4.6-5.2,7-7.6
				c1.5-1.5,3.9-1.5,5.4,0c1.5,1.5,1.5,3.9,0,5.4c-2.3,2.3-4.6,4.8-6.6,7.2C509-382.1,508-381.7,506.9-381.7z M528.9-402.4
				c-1.1,0-2.3-0.5-3-1.5c-1.3-1.7-1-4,0.7-5.3c0.9-0.7,1.7-1.3,2.6-2c1.9-1.4,3.8-2.7,5.7-4.1c1.7-1.2,4.1-0.8,5.3,1
				c1.2,1.7,0.8,4.1-1,5.3c-1.9,1.3-3.7,2.6-5.5,3.9c-0.8,0.6-1.7,1.3-2.5,1.9C530.5-402.7,529.7-402.4,528.9-402.4z M554.2-419.1
				c-1.3,0-2.6-0.7-3.3-1.9c-1-1.8-0.4-4.1,1.4-5.2c2.9-1.7,6-3.4,9-4.9c1.9-1,4.1-0.3,5.1,1.6c1,1.9,0.3,4.1-1.6,5.1
				c-2.9,1.5-5.9,3.2-8.7,4.8C555.5-419.3,554.8-419.1,554.2-419.1z M581.2-432.7c-1.5,0-2.9-0.9-3.5-2.3c-0.8-1.9,0-4.1,2-5
				c3.1-1.4,6.3-2.7,9.5-3.9c1.9-0.8,4.1,0.2,4.9,2.1c0.8,1.9-0.2,4.1-2.1,4.9c-3.1,1.2-6.2,2.5-9.2,3.8
				C582.2-432.8,581.7-432.7,581.2-432.7z M609.6-443.2c-1.6,0-3.1-1.1-3.6-2.7c-0.6-2,0.5-4.1,2.5-4.7c3.3-1,6.6-1.9,9.9-2.7
				c2-0.5,4.1,0.7,4.6,2.7c0.5,2-0.7,4.1-2.7,4.6c-3.2,0.8-6.4,1.7-9.6,2.7C610.4-443.2,610-443.2,609.6-443.2z"/>
		</g>
	</g>
	<g>
		<path class="st0" d="M1088-18c-0.8-0.7-1.9-1.1-3-0.9c-52.8,6.4-95.5,15.7-127,27.7l-0.4,0.1c0,0-0.1,0-0.1,0.1l-16.3,6.7
			c-35.5,15.6-61.2,34.5-81,59.4c-18.1,22.9-28.1,51.2-28.9,81.8c-0.7,28.8,6.4,51,17.2,75.4c0.6,1.3,0.7,1.7,0.8,2.1
			c0.3,0.7,0.5,1.3,1.3,3.1c0.6,1.3,2,2.1,3.4,2.1h171.6c1.6,0,3.1-1,3.6-2.6c0.5-1.5,0-3.3-1.3-4.2c-16.9-12.6-32.5-32.9-42.8-55.6
			l-6.1-16.1c-9.5-31.8-2.8-61.7,19.9-88.8c19.3-23.1,49.8-43.5,88.1-58.9c1.4-0.6,2.4-2,2.4-3.5v-25
			C1089.3-16.2,1088.8-17.3,1088-18z M1081.7,7.3c-27.3,11.3-64,30.6-88.7,60.1c-11.5,13.8-19.3,28.5-23.1,43.8
			c-4.1,16.7-3.5,34.2,1.8,52l6.5,17c9.1,20.1,22.3,38.4,36.9,51.7H856.4c0,0,0,0,0,0c-0.2-0.5-0.4-1.2-1.1-2.7
			c-10.7-24.2-17.2-44.7-16.5-72.2c0.7-29,10.1-55.7,27.3-77.3c19-23.9,43.8-42.1,78.1-57.2l16.5-6.7c30.1-11.4,70.8-20.4,121-26.7
			V7.3z"/>
		<path d="M1025.5,241.6H854c-2.2,0-4.2-1.3-5.2-3.3c-0.9-1.8-1.1-2.5-1.4-3.3c-0.1-0.4-0.2-0.7-0.8-1.9
			c-10.9-24.7-18.1-47.1-17.4-76.3c0.8-31.1,10.9-59.8,29.3-83c20-25.2,46-44.3,81.8-60l16.3-6.7c0.1,0,0.2-0.1,0.2-0.1l0.4-0.1
			c31.7-12,74.6-21.4,127.5-27.8c1.7-0.2,3.3,0.3,4.5,1.4l0,0c1.2,1.1,2,2.7,2,4.3v25c0,2.4-1.4,4.5-3.6,5.4
			c-38,15.3-68.2,35.5-87.3,58.3c-22.2,26.5-28.8,55.8-19.5,86.9l6,15.9c10.2,22.4,25.6,42.3,42.2,54.8c2,1.5,2.8,4.1,2,6.5
			C1030.3,240,1028,241.6,1025.5,241.6z M958.4,10.7c-0.1,0-0.1,0.1-0.2,0.1l-16.4,6.7c-35.1,15.4-60.7,34.1-80.2,58.8
			c-17.9,22.5-27.7,50.4-28.5,80.6c-0.7,28.5,6.3,50.4,17,74.6c0.6,1.3,0.8,1.8,0.9,2.3c0.2,0.7,0.4,1.2,1.2,2.8
			c0.3,0.6,0.9,1,1.6,1h171.6c0.8,0,1.5-0.5,1.7-1.2c0.2-0.7,0-1.5-0.6-2c-17.2-12.8-33-33.4-43.5-56.4l0-0.1l-6.1-16.2
			c-9.7-32.5-2.9-63,20.3-90.6c19.5-23.3,50.3-43.9,88.9-59.5c0.7-0.3,1.1-0.9,1.1-1.7v-25c0-0.5-0.2-1-0.6-1.3l0,0
			c-0.4-0.3-0.9-0.5-1.4-0.4c-52.6,6.4-95.2,15.7-126.6,27.6L958.4,10.7z M1020.2,234H855.1l-0.5-1.4c-0.2-0.5-0.4-1.1-1-2.6
			c-10.8-24.4-17.4-45.2-16.7-73.1c0.7-29.4,10.3-56.5,27.7-78.5c19.2-24.2,44.3-42.6,78.9-57.8l16.5-6.8
			c30.3-11.5,71.2-20.5,121.5-26.8l2.2-0.3V8.7l-1.2,0.5c-26.6,10.9-63.4,30.2-88,59.5c-11.3,13.6-19,28-22.7,43
			c-4,16.3-3.5,33.4,1.7,50.8l6.4,16.9c9,19.7,21.9,37.8,36.4,51L1020.2,234z M857.8,230H1010c-13.4-13.2-25.3-30.3-33.7-48.9l0-0.1
			l-6.5-17.2c-5.4-18.1-6-36-1.8-53c3.9-15.6,11.8-30.6,23.5-44.6c24.7-29.6,61.4-49,88.3-60.2V-8.6c-49,6.3-88.8,15.1-118.3,26.3
			L945,24.4c-34,14.9-58.6,32.9-77.3,56.6c-16.8,21.2-26.1,47.5-26.8,76.1c-0.7,27.1,5.8,47.4,16.4,71.3
			C857.5,229.1,857.7,229.6,857.8,230z"/>
	</g>
</g>
<g>
	<path d="M17.4,81.3c-3.2,0-5.8,2.6-5.8,5.8s2.6,5.8,5.8,5.8h52.3v5.8c0,3.2,2.6,5.8,5.8,5.8h34.8c3.2,0,5.8-2.6,5.8-5.8V5.8
		c0-3.2-2.6-5.8-5.8-5.8H75.5c-3.2,0-5.8,2.6-5.8,5.8v5.8H17.4c-3.2,0-5.8,2.6-5.8,5.8s2.6,5.8,5.8,5.8h52.3v58.1H17.4z M81.3,11.6
		h23.2v81.3H81.3V11.6z"/>
	<path d="M5.8,162.6c20.3,0,29.6-3.8,37.7-7.1c6.2-2.5,11-4.5,20.3-4.5c10.5,0,17,2.6,24,5.4c7.6,3.1,15.5,6.2,28.3,6.2
		c28.2,0,46.5-16,46.5-40.6c0-34.8,0-52.3-29-52.3c-3.2,0-5.8,2.6-5.8,5.8s2.6,5.8,5.8,5.8c16.1,0,17.4,3,17.4,40.6
		c0,26.2-24.4,29-34.8,29c-10.5,0-17-2.6-24-5.4c-7.6-3.1-15.5-6.2-28.3-6.2c-11.6,0-18.3,2.7-24.7,5.4c-7.5,3.1-15.3,6.3-33.4,6.3
		c-3.2,0-5.8,2.6-5.8,5.8S2.6,162.6,5.8,162.6z"/>
	<path d="M133.5,34.8c30.2,0,63.9,31,63.9,75.5v23.2c0,17.4,11.7,29,29,29c3.2,0,5.8-2.6,5.8-5.8s-2.6-5.8-5.8-5.8
		c-11.1,0-17.4-6.4-17.4-17.4v-23.2c0-52.1-39-87.1-75.5-87.1c-3.2,0-5.8,2.6-5.8,5.8S130.3,34.8,133.5,34.8z"/>
	<path d="M226.5,180c-10.7,0-18.7-2.7-27.2-5.5c-9-3-18.3-6.1-30.9-6.1c-12.7,0-20.5,3.1-28.1,6.2c-6.9,2.8-13.5,5.4-24.2,5.4
		c-10.5,0-17-2.6-24-5.4c-7.6-3.1-15.5-6.2-28.3-6.2c-11.6,0-18.3,2.7-24.7,5.4c-7.5,3.1-15.3,6.3-33.4,6.3c-3.2,0-5.8,2.6-5.8,5.8
		s2.6,5.8,5.8,5.8c20.3,0,29.6-3.8,37.7-7.1c6.2-2.5,11-4.5,20.3-4.5c10.5,0,17,2.6,24,5.4c7.6,3.1,15.5,6.2,28.3,6.2
		c13,0,21.2-3.3,28.5-6.3c6.8-2.8,13.3-5.4,23.7-5.4c10.7,0,18.7,2.7,27.2,5.5c9,3,18.3,6.1,30.9,6.1c3.2,0,5.8-2.6,5.8-5.8
		S229.7,180,226.5,180z"/>
	<path d="M226.5,209c-10.7,0-18.7-2.7-27.2-5.5c-9-3-18.3-6.1-30.9-6.1c-12.7,0-20.5,3.1-28.1,6.2c-6.9,2.8-13.5,5.4-24.2,5.4
		c-10.5,0-17-2.6-24-5.4c-7.6-3.1-15.5-6.2-28.3-6.2c-11.6,0-18.3,2.7-24.7,5.4c-7.5,3.1-15.3,6.3-33.4,6.3c-3.2,0-5.8,2.6-5.8,5.8
		c0,3.2,2.6,5.8,5.8,5.8c20.3,0,29.6-3.8,37.7-7.1c6.2-2.5,11-4.5,20.3-4.5c10.5,0,17,2.6,24,5.4c7.6,3.1,15.5,6.2,28.3,6.2
		c13,0,21.2-3.3,28.5-6.3c6.8-2.8,13.3-5.4,23.7-5.4c10.7,0,18.7,2.7,27.2,5.5c9,3,18.3,6.1,30.9,6.1c3.2,0,5.8-2.6,5.8-5.8
		C232.3,211.6,229.7,209,226.5,209z"/>
</g>
<g>
	<path class="st0" d="M-662.3,39.4V17.5h8.3c3.9,0,7-3.1,7-7v-0.4h22c1.9,0,3.6-0.6,5-1.6c0.2-0.2,0.5-0.4,0.7-0.6
		c0,0,0.1-0.1,0.1-0.2c1.2-1.2,2-2.9,2-4.7v-23.4c0-3.9-3.5-7-7.8-7h-22v-0.4c0-3.9-3.1-7-7-7h-54c-3.9,0-7,3.1-7,7v0.4h-8h-50.8
		c0,0,0,0,0,0h-60.8c-4.3,0-7.8,3.2-7.8,7V3.1c0,3.9,3.5,7,7.8,7h20.2v14.6l-15.7,16.7h-3.9c-3.7,0-6.7,3-6.7,6.7v19.9
		c0,3.7,3,6.8,6.7,6.8h47.7c3.7,0,6.8-3,6.8-6.8V48.2c0-3.7-3-6.7-6.8-6.7h-3.9L-806,24.7V10.1h32.1c0,0,0,0,0,0c0,0,0,0,0,0h50.8h8
		v0.4c0,3.9,3.1,7,7,7h8.3v21.9c0,0,0,0,0,0c0,0,0,0,0,0v50.7v50.7v46.5h-13.3c-5.9,0-10.7,4.8-10.7,10.7v27.7h-4.7
		c-8.2,0-14.9,6.7-14.9,14.9v7.7c0,3.9,3.2,7.1,7.1,7.1h111.7c3.9,0,7.1-3.2,7.1-7.1v-7.7c0-8.2-6.7-14.9-14.9-14.9h-4.7V198
		c0-5.9-4.8-10.7-10.7-10.7h-14.6v-46.5V90.1c0,0,0,0,0,0c0,0,0,0,0,0V39.4z M-788.1,66.3h-44.2V49.9h4c0,0,0,0,0,0c0,0,0,0,0,0
		h36.3c0,0,0,0,0,0c0,0,0,0,0,0h4V66.3z M-818.5,41.5l8.3-8.8l8.3,8.8H-818.5z M-670.8,90.1C-670.8,90.1-670.8,90.1-670.8,90.1v1.8
		l-18.8-19.3l18.8-19.3V90.1C-670.8,90.1-670.8,90.1-670.8,90.1z M-670.8,140.8v10.5l-18.8-19.3l18.8-19.3V140.8z M-691.2,39.4
		C-691.2,39.4-691.2,39.4-691.2,39.4V23.7l18.8,19.3l-18.8,19.3V39.4C-691.2,39.4-691.2,39.4-691.2,39.4z M-691.2,90.1v-7l18.8,19.3
		l-18.8,19.3V90.1z M-691.2,142.5l18.8,19.3l-18.8,19.3V142.5z M-670.8,32.5l-14.7-15h14.7V32.5z M-647-13l15.1,14.6H-647V-13z
		 M-625.7-4.2l-15.1-14.6l15.1,0V-4.2z M-773.9,1.6C-773.9,1.6-773.9,1.6-773.9,1.6C-773.9,1.6-773.9,1.6-773.9,1.6l-15.8,0
		l19.3-18.8L-751,1.6H-773.9z M-800.1-0.1l-19.3-18.8h38.6L-800.1-0.1z M-759.9-18.8h36.8h1.8l-19.3,18.8L-759.9-18.8z M-834-18.8
		h2.4l21,20.4l-23.4,0V-18.8z M-723.1,1.6h-7L-715-13V1.6H-723.1z M-706.5-26.2h51.1V9h-11h-29h-11V-26.2z M-625.9,240.5v6.3h-108.9
		v-6.3c0-3.5,2.9-6.4,6.4-6.4h96.2C-628.7,234.2-625.9,237-625.9,240.5z M-645.4,198v27.7h-69.8V198c0-1.2,1-2.2,2.2-2.2h17.6
		c0,0,0,0,0,0c0,0,0,0,0,0h29h18.9C-646.4,195.8-645.4,196.8-645.4,198z M-685.4,187.3l14.7-15v15H-685.4z"/>
	<path class="st0" d="M-886.5,170.5v17.3c0,3.5,2.9,6.4,6.4,6.4h52.2c3.5,0,6.3-2.8,6.3-6.4v-17.3c0-3.5-2.8-6.4-6.3-6.4h-52.2
		C-883.6,164.1-886.5,167-886.5,170.5z M-830.1,185.7h-19.7v-13h19.7V185.7z M-878,172.6h19.7v13H-878V172.6z"/>
	<path class="st0" d="M-827.9,206.8h-52.2c-3.5,0-6.4,2.8-6.4,6.4v17.3c0,3.5,2.9,6.4,6.4,6.4h52.2c3.5,0,6.3-2.8,6.3-6.4v-17.3
		C-821.6,209.7-824.4,206.8-827.9,206.8z M-878,215.3h19.7v13H-878V215.3z M-830.1,228.4h-19.7v-13h19.7V228.4z"/>
	<path class="st0" d="M-808.6,142.9h-41.2V63.6c0-3.1-2.4-5.6-5.5-5.6h-43.6c-3.5,0-6.3,3-6.3,6.9v183.5c0,3.9,2.7,6.9,6.3,6.9h89.7
		c3.5,0,6.3-3.1,6.3-6.9v-100C-802.9,145.1-805.9,142.9-808.6,142.9z M-811.4,246.9h-85.2V66.5h38.4v10.7h-14.4
		c-2.3,0-4.2,1.9-4.2,4.2c0,2.3,1.9,4.2,4.2,4.2h14.4v15.4h-12.9c-2.3,0-4.2,1.9-4.2,4.2s1.9,4.2,4.2,4.2h12.9v37.5
		c0,2.3,1.9,4.2,4.2,4.2h42.6V246.9z"/>
</g>
<path class="st0" d="M-1537.6,252.9h-72.4l-45.5-93v-13.4h78.4v9.6h-4.8c-2.7,0-4.8,2.2-4.8,4.8c0,2.7,2.2,4.8,4.8,4.8h4.8v9.6h-4.8
	c-2.7,0-4.8,2.2-4.8,4.8c0,2.7,2.2,4.8,4.8,4.8h19.3c2.7,0,4.8-2.2,4.8-4.8c0-2.7-2.2-4.8-4.8-4.8h-4.8v-9.6h4.8
	c2.7,0,4.8-2.2,4.8-4.8c0-2.7-2.2-4.8-4.8-4.8h-4.8c0-5.2,0-17.5,0-22.7c0-7.9-4.6-15.3-11.7-18.8l-76.3-37.3V65.9h24.1h4.3h22.5
	h27.4v9.6h-4.8c-2.7,0-4.8,2.2-4.8,4.8c0,2.7,2.2,4.8,4.8,4.8h19.3c2.7,0,4.8-2.2,4.8-4.8c0-2.7-2.2-4.8-4.8-4.8h-4.8V61.1
	c0,0,0,0,0,0v-8.2c0-7.9-4.6-15.3-11.7-18.8l-77.4-37.8l-15.4-33.4l31,0c0.9,0,1.6,0.7,1.6,1.6l0,8.1h-4.8c-2.7,0-4.8,2.2-4.8,4.8
	c0,2.7,2.2,4.8,4.8,4.8h19.3c2.7,0,4.8-2.2,4.8-4.8c0-2.7-2.2-4.8-4.8-4.8h-4.8l0-8.1c0-6.2-5.1-11.2-11.3-11.2l-99.7,0
	c-6.2,0-11.3,5-11.3,11.3v8h-4.8c-2.7,0-4.8,2.2-4.8,4.8c0,2.7,2.2,4.8,4.8,4.8h19.3c2.7,0,4.8-2.2,4.8-4.8c0-2.7-2.2-4.8-4.8-4.8
	h-4.8v-8c0-0.9,0.7-1.6,1.6-1.6l31,0l-15.4,33.4l-31,15.2l-20.2,9.9l-26.2,12.8c-7.1,3.5-11.7,10.9-11.7,18.8v8.2v0v14.5h-4.8
	c-2.7,0-4.8,2.2-4.8,4.8c0,2.7,2.2,4.8,4.8,4.8h19.3c2.7,0,4.8-2.2,4.8-4.8c0-2.7-2.2-4.8-4.8-4.8h-4.8v-9.6h78.4v11.5l-76.3,37.3
	c-7.1,3.5-11.7,10.9-11.7,18.8v22.7h-4.8c-2.7,0-4.8,2.2-4.8,4.8c0,2.7,2.2,4.8,4.8,4.8h4.8v9.6h-4.8c-2.7,0-4.8,2.2-4.8,4.8
	c0,2.7,2.2,4.8,4.8,4.8h19.3c2.7,0,4.8-2.2,4.8-4.8c0-2.7-2.2-4.8-4.8-4.8h-4.8v-9.6h4.8c2.7,0,4.8-2.2,4.8-4.8
	c0-2.7-2.2-4.8-4.8-4.8h-4.8v-9.6h28h6.8h22.6h20.9v13.4l-45.5,93h-72.4c-6.2,0-11.3,5-11.3,11.3v7.1c0,6.2,5,11.3,11.3,11.3h306.7
	c6.2,0,11.3-5,11.3-11.3v-7.1C-1526.4,257.9-1531.4,252.9-1537.6,252.9z M-1655.6,7.6l72.1,35.2c3.8,1.9,6.3,5.8,6.3,10.1v3.4h-22.7
	h-4.7h-22.5h-0.5h-27.9V7.6z M-1655.6,88.2l72.1,35.2c3.8,1.9,6.3,5.8,6.3,10.1v3.4h-78.4V88.2z M-1726.4,56.3h-78.4v-3.4
	c0-4.3,2.5-8.2,6.3-10.1l26.2-12.8l20.2-9.9l25.6-12.5V56.3z M-1620.8,252.9h-11.1l-19-21l-15.1-16.7l-18.4-20.3l22.9-25.3
	L-1620.8,252.9z M-1673.2,221.6l15.1,16.7l13.2,14.5h-92.1l46.1-50.9L-1673.2,221.6z M-1710.7,165.8h39.5l-19.8,21.8L-1710.7,165.8z
	 M-1672,136.9h-38v0l19-19L-1672,136.9z M-1710,85.3h38l-19,19L-1710,85.3z M-1684.2,111.1l19-19v38L-1684.2,111.1z M-1665.2,49.5
	l-19-19l19-19V49.5z M-1672,56.3h-38l19-19L-1672,56.3z M-1710,4.7h38l-19,19L-1710,4.7z M-1699.2-37.1l16.5,0l14.8,32.1h-46.2
	L-1699.2-37.1z M-1716.8,11.5l19,19l-19,19V11.5z M-1716.8,65.9h51.6v9.7h-51.6V65.9z M-1716.8,92.1l19,19l-19,19V92.1z
	 M-1716.8,146.5h51.6v9.7h-51.6V146.5z M-1747.4,136.9h-22.6h-34.8v-3.4c0-4.3,2.5-8.2,6.3-10.1l72-35.2v48.7H-1747.4z
	 M-1720.4,169.5l22.9,25.3l-52.6,58.1h-11.1L-1720.4,169.5z M-1536,271.2c0,0.9-0.7,1.6-1.6,1.6h-306.7c-0.9,0-1.6-0.7-1.6-1.6v-7.1
	c0-0.9,0.7-1.6,1.6-1.6h306.7c0.9,0,1.6,0.7,1.6,1.6V271.2z"/>
<g>
</g>
<g>
</g>
<g>
</g>
<g>
</g>
<g>
</g>
<g>
</g>
</svg>
